<mxfile host="Electron" modified="2024-04-23T12:59:56.940Z" agent="Mozilla/5.0 (Windows NT 10.0; Win64; x64) AppleWebKit/537.36 (KHTML, like Gecko) draw.io/24.1.0 Chrome/120.0.6099.109 Electron/28.1.0 Safari/537.36" etag="s3Hsur3ncs9hI1IaXixM" version="24.1.0" type="device" pages="3">
  <diagram name="Validate" id="nvvTJAzrZNnOXTXzCFPR">
    <mxGraphModel dx="2011" dy="1175" grid="1" gridSize="10" guides="1" tooltips="1" connect="1" arrows="1" fold="1" page="1" pageScale="1" pageWidth="850" pageHeight="1100" math="0" shadow="0">
      <root>
        <mxCell id="TfanE9FAZFEMDZ-ole27-0" />
        <mxCell id="TfanE9FAZFEMDZ-ole27-1" parent="TfanE9FAZFEMDZ-ole27-0" />
        <mxCell id="TfanE9FAZFEMDZ-ole27-2" value="" style="rounded=0;whiteSpace=wrap;html=1;glass=0;shadow=1;textShadow=1;" parent="TfanE9FAZFEMDZ-ole27-1" vertex="1">
          <mxGeometry x="1170" y="275" width="480" height="550" as="geometry" />
        </mxCell>
        <mxCell id="TfanE9FAZFEMDZ-ole27-3" value="" style="rounded=1;whiteSpace=wrap;html=1;arcSize=3;fillColor=#f5f5f5;fontColor=#333333;strokeColor=#666666;fontSize=13;" parent="TfanE9FAZFEMDZ-ole27-1" vertex="1">
          <mxGeometry x="1199" y="365" width="421" height="320" as="geometry" />
        </mxCell>
        <mxCell id="S3Q43ut7uCeKV6x3lYP4-0" style="edgeStyle=orthogonalEdgeStyle;rounded=0;orthogonalLoop=1;jettySize=auto;html=1;exitX=1;exitY=0.5;exitDx=0;exitDy=0;entryX=0;entryY=0.5;entryDx=0;entryDy=0;" edge="1" parent="TfanE9FAZFEMDZ-ole27-1" source="TfanE9FAZFEMDZ-ole27-4" target="TfanE9FAZFEMDZ-ole27-35">
          <mxGeometry relative="1" as="geometry" />
        </mxCell>
        <mxCell id="TfanE9FAZFEMDZ-ole27-4" value="Terraform Specific Provisioner" style="rounded=0;whiteSpace=wrap;html=1;fontStyle=1;strokeWidth=2;fontSize=13;verticalAlign=top;fillColor=#dae8fc;strokeColor=#6c8ebf;" parent="TfanE9FAZFEMDZ-ole27-1" vertex="1">
          <mxGeometry x="650" y="455" width="320" height="200" as="geometry" />
        </mxCell>
        <mxCell id="TfanE9FAZFEMDZ-ole27-5" style="edgeStyle=orthogonalEdgeStyle;rounded=0;orthogonalLoop=1;jettySize=auto;html=1;fontSize=13;" parent="TfanE9FAZFEMDZ-ole27-1" source="TfanE9FAZFEMDZ-ole27-23" target="TfanE9FAZFEMDZ-ole27-4" edge="1">
          <mxGeometry relative="1" as="geometry">
            <mxPoint x="650" y="465" as="targetPoint" />
            <mxPoint x="410" y="464.4999999999998" as="sourcePoint" />
            <Array as="points">
              <mxPoint x="600" y="566" />
              <mxPoint x="600" y="566" />
            </Array>
          </mxGeometry>
        </mxCell>
        <mxCell id="TfanE9FAZFEMDZ-ole27-6" value="Validate request" style="edgeLabel;html=1;align=center;verticalAlign=middle;resizable=0;points=[];fontSize=13;" parent="TfanE9FAZFEMDZ-ole27-5" vertex="1" connectable="0">
          <mxGeometry x="0.0837" y="2" relative="1" as="geometry">
            <mxPoint x="-11" y="-9" as="offset" />
          </mxGeometry>
        </mxCell>
        <mxCell id="TfanE9FAZFEMDZ-ole27-7" value="A&lt;br style=&quot;font-size: 13px;&quot;&gt;P&lt;br style=&quot;font-size: 13px;&quot;&gt;I" style="rounded=0;whiteSpace=wrap;html=1;fontStyle=1;strokeWidth=2;fontSize=13;fillColor=#dae8fc;strokeColor=#6c8ebf;" parent="TfanE9FAZFEMDZ-ole27-1" vertex="1">
          <mxGeometry x="650" y="425" width="25" height="260" as="geometry" />
        </mxCell>
        <mxCell id="TfanE9FAZFEMDZ-ole27-8" value="" style="group;fontSize=13;" parent="TfanE9FAZFEMDZ-ole27-1" vertex="1" connectable="0">
          <mxGeometry x="530" y="495" width="40" height="43" as="geometry" />
        </mxCell>
        <mxCell id="TfanE9FAZFEMDZ-ole27-9" value="" style="shape=note;whiteSpace=wrap;html=1;backgroundOutline=1;darkOpacity=0.05;size=13;fontSize=13;" parent="TfanE9FAZFEMDZ-ole27-8" vertex="1">
          <mxGeometry width="40" height="43" as="geometry" />
        </mxCell>
        <mxCell id="TfanE9FAZFEMDZ-ole27-10" value="" style="endArrow=none;html=1;rounded=0;fontSize=13;" parent="TfanE9FAZFEMDZ-ole27-8" edge="1">
          <mxGeometry width="50" height="50" relative="1" as="geometry">
            <mxPoint x="3.333333333333334" y="18.305714285714295" as="sourcePoint" />
            <mxPoint x="36.66666666666667" y="18.305714285714295" as="targetPoint" />
          </mxGeometry>
        </mxCell>
        <mxCell id="TfanE9FAZFEMDZ-ole27-11" value="" style="endArrow=none;html=1;rounded=0;fontSize=13;" parent="TfanE9FAZFEMDZ-ole27-8" edge="1">
          <mxGeometry width="50" height="50" relative="1" as="geometry">
            <mxPoint x="3.333333333333334" y="24.571428571428573" as="sourcePoint" />
            <mxPoint x="36.66666666666667" y="24.571428571428573" as="targetPoint" />
          </mxGeometry>
        </mxCell>
        <mxCell id="TfanE9FAZFEMDZ-ole27-12" value="" style="endArrow=none;html=1;rounded=0;fontStyle=0;fontSize=13;" parent="TfanE9FAZFEMDZ-ole27-8" edge="1">
          <mxGeometry width="50" height="50" relative="1" as="geometry">
            <mxPoint x="3.333333333333334" y="30.71428571428571" as="sourcePoint" />
            <mxPoint x="36.66666666666667" y="30.71428571428571" as="targetPoint" />
          </mxGeometry>
        </mxCell>
        <mxCell id="TfanE9FAZFEMDZ-ole27-13" value="" style="endArrow=none;html=1;rounded=0;fontSize=13;" parent="TfanE9FAZFEMDZ-ole27-8" edge="1">
          <mxGeometry width="50" height="50" relative="1" as="geometry">
            <mxPoint x="3.333333333333334" y="36.85714285714286" as="sourcePoint" />
            <mxPoint x="36.66666666666667" y="36.85714285714286" as="targetPoint" />
          </mxGeometry>
        </mxCell>
        <mxCell id="TfanE9FAZFEMDZ-ole27-14" value="yaml descriptor" style="text;html=1;align=center;verticalAlign=middle;resizable=0;points=[];autosize=1;strokeColor=none;fillColor=none;fontSize=13;" parent="TfanE9FAZFEMDZ-ole27-1" vertex="1">
          <mxGeometry x="495" y="465" width="110" height="30" as="geometry" />
        </mxCell>
        <mxCell id="TfanE9FAZFEMDZ-ole27-15" style="edgeStyle=orthogonalEdgeStyle;shape=connector;curved=1;rounded=0;hachureGap=4;orthogonalLoop=1;jettySize=auto;html=1;entryX=0;entryY=0.5;entryDx=0;entryDy=0;labelBackgroundColor=default;strokeColor=default;fontFamily=Helvetica;fontSize=16;fontColor=default;endArrow=classic;" parent="TfanE9FAZFEMDZ-ole27-1" source="TfanE9FAZFEMDZ-ole27-17" target="TfanE9FAZFEMDZ-ole27-22" edge="1">
          <mxGeometry relative="1" as="geometry" />
        </mxCell>
        <mxCell id="TfanE9FAZFEMDZ-ole27-16" value="Deploy,&lt;br&gt;update DP" style="edgeLabel;html=1;align=center;verticalAlign=middle;resizable=0;points=[];fontSize=16;fontFamily=Helvetica;fontColor=default;" parent="TfanE9FAZFEMDZ-ole27-15" vertex="1" connectable="0">
          <mxGeometry x="-0.0027" y="-2" relative="1" as="geometry">
            <mxPoint x="2" y="-26" as="offset" />
          </mxGeometry>
        </mxCell>
        <mxCell id="TfanE9FAZFEMDZ-ole27-17" value="DP team" style="shape=umlActor;verticalLabelPosition=bottom;verticalAlign=top;html=1;outlineConnect=0;hachureGap=4;fontFamily=Helvetica;fontSize=16;fontColor=default;" parent="TfanE9FAZFEMDZ-ole27-1" vertex="1">
          <mxGeometry x="40" y="305.25" width="60" height="117.5" as="geometry" />
        </mxCell>
        <mxCell id="TfanE9FAZFEMDZ-ole27-18" value="" style="edgeStyle=orthogonalEdgeStyle;shape=connector;curved=1;rounded=0;hachureGap=4;orthogonalLoop=1;jettySize=auto;html=1;labelBackgroundColor=default;strokeColor=default;fontFamily=Helvetica;fontSize=16;fontColor=default;endArrow=classic;" parent="TfanE9FAZFEMDZ-ole27-1" source="TfanE9FAZFEMDZ-ole27-22" target="TfanE9FAZFEMDZ-ole27-23" edge="1">
          <mxGeometry relative="1" as="geometry" />
        </mxCell>
        <mxCell id="TfanE9FAZFEMDZ-ole27-19" value="Deploy,&lt;br&gt;update DP" style="edgeLabel;html=1;align=center;verticalAlign=middle;resizable=0;points=[];fontSize=16;fontFamily=Helvetica;fontColor=default;" parent="TfanE9FAZFEMDZ-ole27-18" vertex="1" connectable="0">
          <mxGeometry x="0.3239" relative="1" as="geometry">
            <mxPoint y="-24" as="offset" />
          </mxGeometry>
        </mxCell>
        <mxCell id="TfanE9FAZFEMDZ-ole27-22" value="" style="rounded=0;whiteSpace=wrap;html=1;hachureGap=4;fontFamily=Helvetica;fontSize=20;verticalAlign=middle;fillColor=#fff2cc;strokeColor=#d6b656;glass=0;" parent="TfanE9FAZFEMDZ-ole27-1" vertex="1">
          <mxGeometry x="230" y="304" width="200" height="120" as="geometry" />
        </mxCell>
        <mxCell id="TfanE9FAZFEMDZ-ole27-23" value="Provisioning Coordinator" style="whiteSpace=wrap;html=1;fontSize=20;fontFamily=Helvetica;fillColor=#fff2cc;strokeColor=#d6b656;rounded=0;hachureGap=4;glass=0;" parent="TfanE9FAZFEMDZ-ole27-1" vertex="1">
          <mxGeometry x="230" y="505.62" width="200" height="118.75" as="geometry" />
        </mxCell>
        <mxCell id="TfanE9FAZFEMDZ-ole27-24" value="" style="shape=image;verticalLabelPosition=bottom;labelBackgroundColor=default;verticalAlign=top;aspect=fixed;imageAspect=0;image=data:image/png,iVBORw0KGgoAAAANSUhEUgAABUgAAAD3CAYAAADPJr6lAAAACXBIWXMAAC4jAAAuIwF4pT92AAAgAElEQVR4nO3dDWyd5Z3n/dsvcV6c4KQYesIWbCbMUCpaG3V2mzIRNh0x7fOwTMxoZmiXleyUjlQ98gpn9lkRFkYxGlhAOzsx6pGekaZVbGn7UGZmi720O2VQi82klHbbSVwQlDZpYtomh3AgMYnz4tfV5fxPuOP45bzcL9f/ur4fKYLOtDn3uX18n/v63f///6qam5sLAACISz6bsfmLZqSxO9duwXGkLp/NNAdB0KXw0Icbu3PDFhwHAAAAAKVq+cEBAIAgCExAulvpiSAgBQAAgLfy2UyX5cUO/Y3duX4LjmNJBKQAAAAAAACAXqbYoc3io7e+oKHagmMAAAAAAAAAgFQQkAIAAAAAAADwFgEpAAAAAAAAAG8RkAIAAAAAAADwFgEpAAAAAAAAAG8RkAIAAAAAAADwFgEpAAAAAAAAAG8RkAIAAAAAAADwFgEpAAAAAAAAAG8RkAIAAAAAAADwFgEpAAAAAAAAAG8RkAIAAAAAAADwFgEpAAAAAAAAAG8RkAIAAAAAAADwFgEpAAAAAAAAAG8RkAIAAAAAAADwVi0/egAAAABanXnliaa5yVN3m8OfPT/eFsyc3zT/72eO3zg3dWbNwrc1N31m9cyJQ2vNv1evv2a2eu2V7y/21msamkcL/1697urB+X+pXfvj+lsf3seHBQAAtxCQAgAAALDexEsP9cxNn7l5bvL0DTPjR1rCQWe5Zk8frZ49fXTjYv/z6XdebQv9x4v/fvZfskF1/ebp6nWNp6vXX3Okqm7DkerVDSNVdRueXbd11xifJAAA9CEgBQAAAGAVE4aaatDZU7/aOns231BpEBq12YljtbMTxzYG77zaGgSB+dMRBMGesz/92lxNQ/O4qT41VaeEpgAA6EBACgAAACBV84HomeMdpjJ0+p1XF63o1GBu8lSVOX6pPjV/9pw/9NzZ6g3XHq1Zv3m4et2H/5LAFAAA+xCQAgAAAEjUxL7ee2bP5j8/896b7ZoD0WKY6teZE4e2TAXBliAI7jOBac3GG96s2fCRgfrbHuuz/x0AAOA+AlIAAAAAsTOh6Mz44V3Tx396s2lR9/WMS2A635p/7md/99e1mU/+suaKpr9f3/7kgxYcHgAAXiIgBQAAABALQtHlmZb8qbeGTXXprvM//+YDhKUAAKSDmxQAAAAAkTnzyhNNM6d+3Td9fP9nbdtcyWYLw9JV/+rW0ZpNv/0f6m99eJ/v5wYAgLgRkAIAAAComNloafrkoW4T8nE2K2PC0snDz7cGh5//56lfjZysverm/7H+M3u+pPk9AQBgMwJSAAAAAGUx1aKzZ97+i8mx4U5a6OMhu+Lfd/7gt75Yd137S9VXND1MVSkAANHiJgYAAABASebb6E8eGph8a/g2U+3I2YufOc/nDz7XFgTBP0/nXztU23hzF0EpAADRICAFAAAAUJSJlx/dNnPiF1+Z+s3LLQSj6ZmfVfrW8D/PvPvGr2oamv+6/rbH+nw9FwAARIGAFAAAAMCyTMXo1PED32W+qF0mx757bRAEe6aO/Wj3qn/1e1+u39b7jO/nBACAchCQAgAAAFgUrfQ6yJzSb0y/97PHaL0HAKB0BKQAAAAALnPqhe5nJw8/v51gVI+LrfcnfnGg9sqbOtZt3TXm+zkBAKAYBKQAAAAALpp46aGe84f+139lV3q9Jg8/3zr1m5cPz5z69dCGO7J3+34+AABYCTc9AAAAAOY3YJrO/e+/nzr6wwxnQ7/5Xe/f/IeO6eP7z9Rd2/6f2cgJAIClEZACAAAAnjv1nT8bZs6om2ZOHFp79sShPdMnD3Wvurr192m7BwDgcgSkAAAAgKcm9vXeMzn2wl4TovEZcJuZTzqd+8nh2XMnnlzf/uSDvp8PAADCCEgBAAAAD5mq0fMHn2vjZ+8PUyF87rWBXTPv/axr1TWf3ko1KQAAFxCQAgAAAB6hahRmzux0/nWqSQEAEASkAAAAgCdOvdD97OTh57czaxSFatLZidznaq+8qcOHatJ8NrMxCILWBf/n9iX+6yeDIDiw4P92oLE7dzKmwwPKls9mCp/jxT7jxRou/Pcau3PD/DTgGwJSAOrks5nmIAi6FB76MDcbAIA0nHnliaapoz94hR3qsdDk4edbZ04efGNu+tyO+m29z2g+QaEAtFWCokJoFNkoiXx2/ldoXMLTQoh6xPzhPg9xymczhc92s3y2zWe8JcKX3F34F/mcG2OFz7f8MZ/xk43duYUPDwD1CEgBaNQc/gJXhhtnAECiTEv9+V8M/ffZiWPc+2NRZtzCuYnjT89Njt+x/jN7vqThLEkY2i6BUeGfDQm9fEModN0eOqZAAqUD8meYqlOUI/T5Lny205oX3SR/Cq8/vwaTz/pI+LPe2J07wg8bmtVKKfZSbQU2M180g3z6PiAX0R5bjqcUjd25Xj1Hm4x8NtMjTwW16efL0Q75bKZLwmQsrTmfzdh8/aHqWIEFLZuVtLgVqjOCUGXSEa6pqMTp7+386vmD3/oiLfVYyXzL/etP3zd79r1PXnHnwC22nbAFgVF7xJVzUSoESttDYdKohKXDrGGxFKkQ7bL88x3WFg5u89nMWOFzTmAKjWrl5ltjJZb55ePL5VIdWqvq8tkMoVqI3ADuseaAijdO2G2VrhSfNmvRpOC6SUBqEXmwHG5xi/J3bNG/S6o0RiU8LVRqHOB7EysZ/5+fPzj11vAWThRKYVruT3z9986s3nLXTWnPJZWxSh1yT6MhMFpKi/y5X67pQ/L9Psi13G9yX9Eln/OkKqDjYu6rO+VP4cHAoHzOacmH9WrNB1WS/iZlP64m84XJF8olOiw6llKZY+/Tdcix0vqz5KEFAGfIwjzcvpnm4rywuA63co6FWjiHWXygwMwbnRz77oHpd17V2IkCC8y33L/xzMG56XP/Pum5pHLt7ZH7YW1r1GJtlz97JETqJyz1R2g/hS6HP+NB6N5lt9yz9Ln6Oc9nM3MWHIbtzOfA5sKU2wtziEyocX/KB1MOQjUhFYfbi/ov26mLn+UltAakVLoBUE0qOTqUtLeF2zjNsY/LPV2hKomZdx4y80Ynx17YawIu388FKmNm1p57/etPz02fbV3f/uSDcZ5OWct0SDCquVK0HC3SOWbC0pFQWMo13DFyj9GjfN1erqbQ53xIxrJRXAOrFALSYaUBKaHaBzRXjxotVARfoDzs5ksOgDr5bKZDvke1t7c1hFrb9lKV5B8Tjs4HWswbRUTm55K+NrArmJ28Ko7Nm2TmYk+hJRcXZzr25bMZc1/dy/VbP9kXoNfxatFSzFdQh6pK+3kgABtUBxc2yDEX33GFP5EWKU+Hzo22FtIe8kZF63kY4osNgBamisPMv85nM+a69awszrXP/lqoUJV0OJ/NDJsFmjyEg4NODz/wOOEo4mI2bzr1nT+LrFNIrkfm79tPOLqowgOvwvXbhbWed+RzbgLuvYSjiypUlR4xm6Zyj4K0VYdeX2vlF6HaBS6cB774L9B6HqgeBWA1c+Odz2Z6ZLHyoqOh6FLaZIF2RILhUnfYh8XMTvWmyo9wFHE6f/C5NrPxVyUvsSAwYiPJ4pjz9KI5b1KJCMvJQ9gDBKNFa5BNUwlKkSoXAlLvQzVpDXRhgbedi+E8NmgCgAiZbhMTCgZBcEIqFXxerBSqkvYXqkotOCZUYD4cff3p+ziHSMLUW8NbyglJqaSLRJOMTyEotZTcbwzKQ1jfZulGoRCUHuAzjjRcDEgVD8glVHOritbrimDFYfcI7fUAbCMVHKaF8zAtnItqCy+2uZ/Sh3AUaSglJCUYjUU4KPW+WMgWpvLRBHuebsAUtcJnfJiRikhS9YLXGlJ69n1vsycgdQfVowBQoVAw+iItnEVpCrXf09qmBOEo0rRSSEqLcSKapPV+mLEp6THnXj7ruz0a25OUNpnD2+vH20XaFgakzCFVRp4aunQh9v2JGwEpAJSJYLRi4RlgtLZZjHAUNlgsJKXFOBVtMjalnwdcyTJzzYMgGOazHrvdJoSmmhRxcyUg9TlUcy4cljZz7ygOu0cbu3NHLDgOAJ4KzRglGI1GQ6h90/fODusQjsIm4ZCUFuPUdfKAKxmy6WO/zDWnajQZLcwmRdwuCUhlhqDKNnuPb+BdfN/8LHXpV3rcANzQwYzR2Jj2zWeZAWYPwlHYyISk7+39xE9pMbZCA7Mb4yXndZj7jlQUPt99Hr53JGBhBWlAm70eMmvGxZk+BKS6DCs9bgBuoK0tfhdngNG+mZ7Tww88TjgK21TXb55e+4n7ds5OHL/NdBXxA7JGm1Tb9fh+IqIk6+8D3Huk7n55CMA9CSK1WECqNezwMVRztby8wbeKYMVh91hjd+6ABccBAIjfbllws2tywib29d5z/ufffMCrNw3r1V3/2QNrbrrnhvrbHuuTTkSzNhnnJ2cNU223hyApGtLavZ8qaWuYhwBUSiNSlwWkMktQ49M/70K1IAhcXqD49rPUGnazORMA+KWwa3IfC+5kTLz86LZzr3/96bnJU1U+vF/Yr6puw9yamzufuOLOgVvWbd01VjhgeWjeTkhqnTaZTcrDrTJJOLpX5cG7rTCXtNX3E4FoLFZBGiieKehNqCZPSlwu7fftC1zr+2X+KAD46X4WJfE788oTTZOH//GfCEdhi5pNW86uubnztvXtTz642CFJSEpbt30a5OFWr+8nolSEo9ZrkEpS7kdQsaUCUq1VYT6Faq6HwU2+XOQUh9201wOA30w16X4W3PGZOvqDV2ZOHFrr6vuDLquuaz+06d7vr6u/9eF9yx14Y3fOPEB/hB+vlXbTcl88wlE1CEkRiUUDUsVt9t6Eag7PHw3z4T0GbM4EAFCOBXcM3v925/6poz/MOPfGoNKaj33haw1/+I0bij32xu6ceXAywE/bSm10AKyMcFQdQlJUbKkK0kBx+OF8qOZBe32BLyMTmD8KANCOBXeETn9v51cnDz/PuUTqzLzRta1f/vz6z+z5UhnH0sPO9tZqkjDJx42OVyTfZX2WHyYuZ0LSfh7YolzLBaTMIbWXL6MEnK8IVhx2jzd25whIAQBhhZZ7XzpAYjG/Y/3Bb33RwbcGZebnjX7s3i/Ub+t9ppwjl53tO9i0yVomTHqWa/alZH02zG71arVI+E9IipItGZDKbMExhafUhzZ7n570uR4Ga31/hKMAgKXsNbvcc3ZKN78p09gLe9mUCWkz4ejqLXfdVG44WiCj2wjg7MY1W0ioNkg4ql4LFcAox3IVpAGbNdlHLtrbXX1/i3D9hkpr2E1ACgBYzv35bIY2txJNHT/wXTZlQtpWXfOpnAlH123dFUmxjHQdPcUP1mrz12zfT4KEaj6MsvNBZz6b6fH9JKA0rgakLodqvs2JaZE2B+doDrtprwcAFKGTNrfinR5+4PGpt4a3aDleuMnsVN/wR0ObowpHCxq7c8wjtV+nzyGpzGPttOBQEJ09zEZHKZYNSBu7c8NKZ8Y4G6p5GJAGDr9nre9ryIJjAADowCywIky8/Oi28z//5gPWHyicNh+OlrBTfRm6mEdqPS9DUskOqKB1E90sKNpKFaSB4ipSV0M1n9rrCwhI7UL1KACgFISkK5j61chzzB1FmhIIRwt7XPTyg7aejyFpP3NHndXCdQfFIiBVRMr+fdTm6KJKa9hNQAoAKBUh6RJOvdD97PQ7r3JekJokwtGCxu6cmfE4wk/bet6EpLLGbrPgUBAfM2PX9c2fEYEVA1KZNaixFcLFUM3XgDRw7b0rDruHGrtzJy04DgCAPoSkC5jW+snDz/vYHQRLmN3qkwpHQ2i118H5kFS+j2it9wO72mNFxVSQBlSRWoOA1B1a38+wBccAANCLkDSE1nqkyYSjZrf6pA+hsTt3hJZXNUxI6vIGyD201nvD7FPDdQfLKjYg1RqKOBOqScWhzxfv7Y4tppg/CgDwFSGp2bX+ezu/Sms90lJdv3nahKNR71ZfLFrtVdnrYkgqGzP1WHAoSE6P7/ceWJ7rFaQuhWrMzHAk8FYcdo/KE38AACrldUh65pUnms4f/NYXLTgUeKiqbsPc6t/e/u/TCkdDCKf06MtnM62Ovadeqke900D1OpZTVEAqMweHlJ5JV6pIfW6vL3AlJNb6PpjPAwCIUouvM8Gmjh/4Lq31SMvq3/mjJ+u39T6T9g9AdrV/JO3jQFEaXHqoJdWjnRYcCpJ3v/z8gcsUW0EaKK4iVR+qydO6JgsOJW2E3emivR4AEDUz386rkHTipYd6pt4a3mLBocBDq2/848H17U8+aNE7N7//aVeyojgNDu1H4PJcVayMKlIsyoeA1IVQjQv4BQ2Kd3+fpzjspr0eABCX+x3fBOQSU8d+tNuiw4FHVl3zqdyGO7J32/SOpVORsEKPFu0720sVLOMd/NZJFSkWU3RAKl9eowrPovpQjfb6S2g/F1oXgOxeDwCI014H59tdho2ZkBazKdOqaz691cYfQGN3rp8Nm1TRvrO975sf4wKK0HCZ2hJPifny2qPwNHZorYCVJxu013+AsDsdzB8FAMRt0ISk8lDeSZNjw8y8Qyos2ZRpOaaK9MUEXmc8CAIz+/Sk/LNgYTGAeZARfmhTGNvWlsAxamA2bTogc2S18b161FwHjsjn2+eg2Oxo3+fyPQdKV2pAOqg4INWK6tFLNcjiSd2XseKwe0zpzQ8AQJcmudd0ZVPGS5x6ofvZ2Yljpd57AxUzc0dt2JRpOY3dObMB0EjEAeS4BJ8HCv8sMQxZtMBGWrRb5VpV+KdvQVODFFCoqvyX9ViLBYcSt7HQZ//ASp996eBolp9nhyfnqEHeK4VAuKikmzQzgzCfzYwq/IVRG6pR+r2oLqVP/ticCQCA5bXls5nexu6cUzMJz7zyRNPk4ee3W3Ao8EztVR8/advc0WWYe/zDFf4dI3LvOhzX2k+CpuFw1akETO3yHnwIlwKZR6rteu1y8dGYhH39pe4dIb8rB+R3p1ceAnTI59nlqukeAlKElbJJU4HWsERd0OjRE65Saf1i0xp2E5ACAJK027V5pDMnDw3MTZ6qsuBQ4JGqug1zq65tu0vLO5ZQZ6CM/6kp4NkRBMGmxu5ce2N3ri/pwhjzevK65tp1fRAEO5Xu31EqbddrF4uPTDC6o7E712zC6ig21jUPAcxsYPP7JJ/ncn4vNWhhsyaE+RSQagzVaK9fXJO2hZPisHvctDxZcBwAAL8MSgWLevPVo28N38bnF0mru/6zQ/W3PrxP2YkvthrRtM8/ZcIbE0pKmGPFLEETUIXC0lskXBq34NDioqICz8HiI/OZ2inBaGw/A/k8dzkclPo+kxYhJQek8jTO5gHfS1EXqhGQLkvbuaG9HgCA4jWVEJRYjepRpEFZa/1FRVSRmnXoI2ZeYmN3rieKark4SWVpl8x3fMTRoHS+1d6C41iJS/OtTXWyeTDQl9QLhoLS25XmQUshc8FF5VSQBlSRxk+qJtglcWkEpMkgIAUApOX+fDajfkFL9SiSpq21fhGLhW0mWHwk1EasaudpaVnudTgo3a2gVdmVgNSEo+1pPRyQ7sJWh6pJNRbSISbl7qRpSrjvV/hD6VBUjcCTjOXNzwux/alxoDvsNu31BKS69Yc3EEjAboVna8zy1jBGXMB3/bLRpqowpOD093Z+lepRJK3uuvaXFLbWXyQbA4d3tDeBYp/W60CYvAezCU6frEs1rqmX0m95COlCQFoIR1P9XZDX78pnM+Y+dW+axxKRDtmkCp4rKyA1rQL5bGZM2p80UROqEZAWxZyjxNoKKjxOjQhmlItzHtFi8tmMxoD0iGu7ZcMq46Eb7pOL3HybioXCnM1mhfdVSWiS+WAqf08nx4Y7LTgMeKS6fvP0hs/9rfogqPqKa/+/2dO5NcHs1OeVrN1KIgFTTz6b6Zf1jAudg235bKbDxgILKVjR/h07ZkM4GmbWGvls5qSE4w22HFcZoiikG0nweDcqnadrPsM2X89PlltBGkh4ovGmz/pQTS7g2y04FNt1EZDGiupRACjeiASg83/K3UFZ2ryaJTxtl39qXnREwbRuDia9K3WlTg8/8PjsxLFK7rWBktVd/wd/pf2szVdenzv5xbqmz4xeceeAc+FomFzX2vPZTOFBkPbrfZ+lawgXWqg7bKyiNoG4jMMZVvz5NYV0Gys5v7LjfyLkfL+Y1OtFqN/2wpRKbtoGlQakGkI1lwZIx8n6imDlYTcBKQAsbUyuk8NRVsvIYvlA+BosoWmH/HFpB95S9Gm7P5p++1++bMFhwCNmY6b17U8+qPUdn3nliaapoz94ZeroDzPmP0/95uUW839bt3WXSxvCLMpstiPtyv3Kr/NmnmOvhSGI9vX1UzY/JJQO4x7l7fbtrH9R7iZNgSwGNA6XblEwQJr2+uLZ/mWn9ct4yIU5TwAQsXHZlOB22SikJ4lWQtkF2Sw4TVB6vVkoObaDbDHmWzftP8wLJl5+dNv0O69uLOa/C0Rl1eZ/84jWkzmxr/eec288c7AQjhpmfu/smbf/It0jS45c61vlGq9ZjxSJ2MT29f9KrB8zI6O9dlpwKOWiSA3lB6RCa8Ju+4efgLR4tp8r2usBQL8xuek3oWiX7OCaCtM1IcGsWeztSHjmVdo0jNWZN3PiF1+x4DDgkVXXfCpXf9tjan5HwkxL/bnXv/70YiMppo796N+lenApMNd4ub5r3em+QWZH20RzQDqgpXDFVEKbQhsLDqUcBKTwNiC1NrSS6gjfZ42VYruFTyjDCEgBQC8TjO6QalHrdlA21Roy8+p2T4LS+dZNC45jRaY12PJDhGNqM//6TzS+o/e/3bn/3OtP32eqRRf7/8+cOLTWVJcmf2Tpkmq8dsUhqW1VpJor+rWty7q0dhpbcAxIWaUBqdZdrm0O1ageLZ2V50xx2D1Kez0Az5kbe9Oq2iqLVKuZilYJSnd40HpvY+vmJeY3mFki7AHisOq69kP1tz68T9vJHf+fnz84efj5FTfPmX7vZ48lc0R2KWzgZO7NFR6+bVWkWsOv8SRG+URJ1pEqHmYuJJsfwWMVBaTy4ddaQm1rEElAWjp+ltGyPgwAgBiNSDDaq+1hkYS5LsyvW46NrZuXmDn5yzstOhx4oPZDH31I27s04ejUW8NbivnvTud+8lvxH5GdlIek1j/QUsDajZmWI632Gh/YrvjABm6rtII0oM0+OrJLLe31pbP1SY/WJ1C01wPwkaka3WkqMc2cT63v34S6Mr/udoerSa1ddF/YhfuDTWaAuJmd6+u39T6j6USXEo4GslnT6eEHHo/3qOwlD+s0hqTWP9BSQGvHbqC0ilT7Zl6okM8BqY3hVZcFx6BRg20720rY3WTBoZRqVHMwAABlMovOdql4cIJsJNWquNNnOdYuumdOHPQ2xEE6tO1cX2o4WjDz3s+8XicpDklZ3/pLY05EBannKg5I5WKtcWMA60I12usrYtu503ozQPUoAN+MSDiqso1tOVJN2iHzVF1jZUA6/d4b3MshMdX1m6c17VxfbjhqmMpsU6Ed/VHpEQpJNW2AYzbXIyT1kNJxjFSQeq42ordvQpU2haeyw5ZASHHFoS0Iu6NBQArAJwON3TnnF25mnmo+mzHdAXstOJyomAfdXTZtojXx8qPbzI7bFhwKPFHX1D6g5Z2eeqH72XLD0YLZM2//RRAEX4r0wJQxoZNsJDOsaDRbD3sc+Eke0gJqRNFiHzCHNBJcPCrTYMuuc4rD7jEXK6gAYAlehKMFEiTusONoImPVfLPZidx/tOAw4Imqug1z1es+/Jca3q2ZH3r+zX+oeK3DBmgXyP26pu+vFlkfoXRscgUkKJKAVGYWatxZz5pQjYA0EracQ6pHAcBuXoWjBQ6GpE0W3ccFs6d+tdWCw4AnajOf/OW6rbus34htYl/vPed//s0Hovi7pvOvfziKv8cFjd25QWXjU9isqTxaN/0FVIqqgjRQXDafepiVz2bMrIuWtI/DAQSklaH1BYAPvAxHCxwMSa1YdLN7PZJW+6GPPqThpE+OvbDX7EIfxd/l+272C5nxKYr2AqEYqDwtkhUASECUASlt9rqPwQVNabdvKA67x2mvB+CBIZ/D0QIJSXfacTQV227D4nH23Ikvp30M8Mf85kzbep+x/Q2//+3O/VHP5Z2dyH0uyr/PAR1KNm1qYLOmsqnZiA3QLrKAVNrsrW/zWETqoZriHc9tlPa5pL0eAOw0yvftBxq7c2bBpWaDlxWk/t078/7Yn6R9DPDHqo/83rdsf7MTLz3UM3n4+cjXWNPHf3pz1H+nZrJTuJbvtjSv1RrHARZsJ1wGkhFlBWmgOGRJ7YKTz2Y20l4fqbQXSVq/vAhIAbjMVNd0yUISQqppNS8aC1Jvs595902NmzNCqer6zH+z+cjNyInzh/7Xf43j756dOFY78fKj2+L4u7WSeaRDCg5/u6x906D9+7+Pja6A+EUdkDKHVNdru6gprVY7xWH3uNxYAYCrehgjsiQt7ZnLSbUbyIQ1JrRJ6/Xhl5pNW87W3/rwPpvf9MzJQwNx/k7MnXuXarrLdSm5lqe19tUekDYEQTCcz2bIDoAYRRqQyuJDa5t9WvOruMhFL61zSns9ANhnSGZuYhEyIqnXgXOTWmBCWIMk1V59y/M2n3DzwOD8wefa4nyNmdPH2Nl7AemQ0HAtT2u95MJDUhOSPpvPZlz4zgasFHUFacBmTcWTisPtSb+uB9JaqBCQAoBdxpk7ujKZR6plJ+SlpPYdTFiDJFWvbfyGzSd8Ove//z7u12CkxeLkWm57sVJa10uXukh257OZA/lshu8eIGJxBKTDSn9IaSygqB6NR0vSFcHKw26tv7MAsJJe5o4WTXuQnFqbPWENkmL77vVmY6apoz/MxP06zCFdVuozmVfQkFKwdySF14yTGev2Yj6b6U+xExZwTuQBqcwy1DjLKvv3PE0AACAASURBVPFQjYA0VkmfW60/yyHCAwCOGpVqGhRBWu0fUX6uEg95zWY0zB9FUmquvNHq6sCpYz/andRrzU2eujOp19JE1uK2dwQkvm5yeA55ZxAEhyUopaIUqFAcFaQBbfZF4yIWn6TPrdafJe31AFxlexWNjfqUb9iU+Hfx3OSpu5N+Tfir5oqm2NvXy2WqR6ffeTWxHcpnJ3KfS+q1FLL94WBa6ybto2SW0ykVpab1vku6GwGUiID0UoldrGUHuoakXs9D2xP+YmD+KADYY6SxO8f4kBJJR4HmqtvEu4FmzxynGwiJqV6z6W9sPdvT+dceSPL1Zk8fpa14CVJFanO1cUtKAZ4P9wWm9X6vGSkgVaV8RwEliCUgVdxmn2SoxsUqfomcY8Vh9wjt9QAcxQ6v5aOKtASzZ47fmOTrwV81m7acXbd1l5Whl5kHmsTs0bAkq1WVsv17MI0qUp8KQxqkqtTsen+SsBQoTlwVpIHiJzRJXTi4QMWPn+XyqB4F4KJRqkfL50AVaaKL7pnxtxqTfD34q2bjDW/a+uZnTvziK2m8Lhs1Lcv2gqXEN9WTOaSaHwCWKxyWzuWzmUFpw6cKG1ggzoCUOaRLkAHKtNfHL6mKYAJSALAHGzNVrl/xsSdbQcoGTUhI9doP/cTWcz31m5db0nhdNmpamjzssvleP605pKx/gmC7tOEflpmlfWzwBFxAQHq57Qm8BtWjyYn1Yq847B6VHYsBwCXjjd05zeGeFeT7YUjp4TclVRVjNqVJ4nUAo6qu4QUbT8Tp4Qcen5s8VZXGa8+de+/TabyuIjY/MGxL6XW5R7iUebhxv2zwdJLqUvgutoBUnlqpvLlOYD4HAWly+FkujpsDAC7i2hYdqkhXMDd95uYkXgcw6rf1PmPjiZh5f+xP0nptZgAvT1rKrd2sKZ/NpNFmP2z5BlZpalhQXXpEqks72BUfvoizgjSgzf5y8kXQFNffHyOtXyQEpItjPh8AFxGQRkTxhptBUrPt5iZP35DE6wC1V33c2k01p3M/+a20Xntu6syatF5bEZvX42lVKTKKpzhNUl36bBAEJ/LZzHA+m+lJI9gGkhJ3QMpGTZfrivHvjpP5ch1VeNwNcVUEaw675YkyALiEa1v0tD7oTmTxRvUaklK9/horxyKl2V4fsJN9sWx+cJhW0Nbv6WZNlTJjEfYEQbA/tDN+F9WlcEmsAanMsCJUu5TWAcj9iitz4vpZag67AcA1XNuip/WcJjLbjuo1JKWqboOVAensRO5zFhwGlmH5zu2pBKQyCpCOk8oUdsbfu6C6lNmlUC3uCtKAUO0DcsFIZZfHChWqcrQulOIKpTWH3QDgGkaHREza7FVKogVwZvyIxk0aoVD16oYRG4965uTB1Kuo2SytKLZ+P6YZpvVSRRqpQnVpeHYprfhQJ4mAlFDtA1rnVc7/DBVXBDdFfYF2IOwGAKdoDvMsZ2UwU4TYF95pthbDM7Vrf2zbGz7zyhNNMycOrbXgULAyWwPS1NZSUkXKLNJ4FGaX7icshTaxB6SEapfQ2pI9vMS/axL1uVcddgOAY7SGeBpo/d6PdTE28fKj2+L8+4Gw+lsf3mfbCZmbPHW3BYcRzJ4fT2SkhnLWXsdTnl/ZRxVp7BYLS2nDh7WSqCANFN9cRxaqKa44HF9QlcPIhAtcCLsBwBVc2+Kj9dzGuwCbPvu7sf79gKiu3zxt47mYPXPcjmKBmfObLDgKq1nePZZaZaFUkWpd02lUCEtNG/4BNniCjZIKSAnVHKk4lC/YsfQOp2yRVQQ7FHYDgCsYHRKTxu4cASmQoup1jadtPP+zZ46nPn8UJaHTYhGyNhqy7sDc1yIbPB2R3fBpwYcVEglICdXmad3QZ7FAzfe5srTXA4BdCEjjpfEeLtaAlLZe+G72bN6KTcpmxo9oLFpIwxFLj8uGNXIXrfapKeyGv79QVerpeYAlkqogDXwO1aR0fHs0h5OsJSoOtVYER3XBdSnsBgD1ZN454qMxgG6K9W+nrRcJqWlotnIvBzZoUofvySVIq73WAhiXzFeVyqzSXtrvkYYkA1KfQzWtF9xF2w2kIljjU7aWSodCOxh2A4B2tA3GT2WFLosrIB5mB3tOrToEpMuQcTKPWHuAfjHXl93Sfk9QikQlFpD6HKo52pKtNWyr9GfhVNgNAA44yQ8xdloX1sw0A2Jgyw72KImt13FrrtON3bneIAgGLDgUXNBAUIqkJVlBGngcqqmsOHQ0IK20Ipj5owBgF+aPxo/KIwBWmhk/YsUsVJTNqtCrsTtn1opWjrXwWDgoZUYpYkVAWpyyQ7F8NqO24lDmsSxK2rW1VgRX8kXsYtgNAABKwMYwSEr1uqutu4ebm53+sAWHMW9u8lSVBYdhPWkhR3HaCUmt1CAzSs1mTlr3BIHlEg1IFYdqbRWEaloD0mK+RL0KvF0NuwEAWI7ihTUt9kAM5s6992nOK1wl6yZCUnuZB5Qv5rOZPtruEbWkK0gDD6tIXW7J1rpg8u1nyRNjAICPWDgBAEoWCknZCNJe90vbvdY1OiyURkDqTagmv6wa5+KMNnbnipk3pjXs3l7m0ybmjwIAAACA40xI2tida2fjJquZrOVZqkkRFSpIi1dOqKZ1NkZ/Mf8lebKmdXf0ksJOD8JuAAAAAECIbNy0k3NiNVNNOpzPZhitg4okHpD6FKp5UnGoNfAuNbx2OuwGAAAAAFyusTvXFwTB7Ur3U/FFi4SktNyjbGlUkAY+hGry9KIp3sOJRakVh77MlKW9HgAAAAA8JBsWNjOX1GqFlvte308EykNAWppSQrIuGw64DCXNiJWKYI07/DUU+3TJo7AbAAAUoWrVunOcJ/iqas2HfsAPHz4KzSXdSTWp1Xbnsxk6KVGyVAJSH0I1xRWH5VxItF58iv0ZeRF2AwCA4lSvu/pNThWSMHvmuHVriqrq2rctOIx5VXUb5iw4DOvlsxmt48KsJC33rVSTWq2TkBSlSquCNHA5VFNccTjW2J07UMb/zvWKYJ/CbgAAAECFmoZmqvh0U9vtZjr1pJr0brOOtuCQcDlCUpQkzYDU5VBN6xO6sn4m0sattSJ42Z3uPAy7AQAAgCVV1W14lrOjTrOlB6x+HFhjd25Qqkkfoe3eSoSkKFpqAanLoZriluxKQmutF52VflZehd0AADjkJD9MaDc3M9lg21tYt3UX1XL62BqQOkFmk/bKeR7w/XxYiJAURUmzgjRwMVTLZzPmotiS7OFEYlx25iuX1nmXK1UE+xh2AwBwUREPhm0VWydFVd36g3xCkITZ00etDLZqr/o4DyB0sfU67tTnSIJSs368nqDUOiYk1bq2R0LSDkhdDNW0zqusKFCTdm6NT5Obllr4eRx2AwAQtpGzcamq2nWv2XQ8QNKqVq07Z8NJr2lo1tiRmAZbK0idHAkm80lNGLeJ1nur7GXDMiwn1YDUxVDN14A0wr8jDUs9SfL5ZwkAWmitbtSE1kwgJTPjR6xrsTeq1139pgWHgeJpLPpQb0Hr/Q42c7LCYD6b4cEvFpV2BWmgOMy5LFSTX7S2dA6nIuMyXLpSWkcmLPUUiYAUAOzHTW78tAak8VUm1a79cWx/NxAyN3mqysbzUb3uajvuN2tWn7DgKKxmecWcF5vKSlDa39idM9+nt9N+n6oGxbkFYmZDQOpSqOZ1oKa4IrhF2ukvIuwGADU0Xqu1UVmlaxakcf3d9bc+vC+uvxtYaGJf7z22nZT62x7rs+AwgurVDSMWHIbtrL2Gx3mdtpUZhRZqv9+hdONq7bYzjxSLST0gdSlUUxyQRjmv0pW5svwsAUCJRb6PES2N5zf2e8uqug1zcb8GMG92arONJ6Jm05azFhwGVmZrBanX4XaoqrRVNnXaSQt+ovpotcdCNlSQBi6EavLLtT3dwylblBWHroxMoL0eAPRgDmm8NM6uOxL3C9Q0NLPpBhIxe+a4lfelNRtvSH0OqS2VrJazNSD1rnp0KbKpU5+04N8SBMFTVJbGzrTac/3AJWwJSF0I1bTuhjYUZWuDtHdrXDBcrAgm7AYAdQhIY6J4t9fYA1JbdvGG+2YnT33ExjdZs+Ejqc5RpIp7ZXINt3KjL1/mj5bKdNg2dud6FlSWEpbGo5MuJIRZEZC6EKpRcRj735mEwiKQsBsAdNF63daAgHQJ7OKNpMydffdKG0+2qd5MM6SkirsoNq9RCUhXEKosbQ3NLB1Qmp3Yig2bcJEtFaSB4sq3wsKBgDTevzMJhZ8hP0sA0IWNmuKjNSCNfeFdVbf+YNyvARjT77xq7Zy82swnf5nWa1etvfLdtF5bEQJSR4RmlnY1duc2Siv+I1SXVqwtn83QiYR5BKSV68hnMx0Wty4sZzSmikOtM2W3S3s9ASkAKKO4Fdx2WsPn+Fvsa9e9FvdrAAU27mRv1G7ckk3rtavrNvw6rdfWQL4Xmyw91HFTHWnBcaglrfi9oerSu6W6lI2eStej7YARD5sCUrWh2iIb/GgRSzm5hK5Dis8JYTcA6KP14Za15AGwSmbhGPdxszkMkjQ3OX6HjSfc/B5U12+eTuO1q9ddTXHA8mxeo1I9GiGpLh2U6tJmmV26Q9bktOOvjFmkmGdNQKo8VGNDn2T/7jhp/VkyOwWA7whIo6f1nI4k9UJpBUPwz8zpY9ZWya/a/LvfT+WFa9f+OJXXVUBBV5zW4igVZHapacfvCLXj70zy+1EhrUVviJBNFaQBLcKJGo25rYGfZbI43wB818QMqchpDUgTq0yqabgun9RrwW8z775pa6t0UH1F08NJv6bZHKr+1of3Jf26inRZ3hVHQJogacc3mz21N3bnqqQd/yna8S9BQAoCUo/Feq6VVwRrE3fYDQBacHMbEcXz1YMkA1J2skdSZieO1U68/Og2G0+4CSpXXdd+KMnXZAf7Fdk+U5EW+xRJO35PqB1/J2t3HrTDsoCUUC1RSYTRPBlMBg8WAOACAtLoaB5ZkNj9BzMQkaS5c+9ae42rbbw50WOraWhm5+4l5LOZLos3ZwrYO8Eu0o5vqks7Fmz25ONDCO4jPWdbBWlAqJaIsSQ2LyC4SwznGQAuaJCFISogGxV0Kj2Hie6MXFW34dmkXguweQ5p0lWkVWs+9IOkXkuhXssPmbWLpRZs9rQxFJb6gnn2nrMxIOWCGb9EzrEsUHi6G6+kwm4A0IKAtHKaz2GiD9rXbd01VrNpy9kkXxP+snkOaZBwFensRO7ppF5LEwXVowEFUXoUwlKpLN3hwdq+id3s/WZdQEqologkdzxnd/V48UABAC7Vls9mrK2ysp3sfGz77LrlJP69WL3uw8wBRyLm55Du673H1rOdVBVpdf3m6SvuHPhp3K+jjVy/ba8eNVX+BKTKSGWp2RXfzOi83fHd8LmH9JiNFaQBoVqskq44JMCLF78rAHA52xeINutRvDlTkEZlUk1D08tJvyb8NTN+eJfNb95UkZod5uN8jZorb2Tn7cX1KKgeZW2onAm4zW74QRDc4mhQSkDqMVsDUi6c8Ul04SAVwdzExGOc9noAWBRVpGVwoHp0LMn5owVVa67kYSUSM3Py4I02n21TRVp3XftLcb5GzfrNVCAuIG3BGq7frPMdYdahEpTe7th6n53sPWZlQEqoFqs0vpT4IowH5xWoHHOG3EUVaem0V4+m8r1oAiHmkCIpMycOrZ14+dFtNp/wDZ/72/Y4fyd4KLGofgXXb1PcwfrFMTIyodWhzZxaLDgGpMTWCtKA8CcWaX0pcRMTD35HgMrZ3oqG8rWxo33xpPpot5bjXUJq9xs1G294M63Xhn9mTvziK7a/6bqmO3bE8fea4NU8lIjj79Yqn82Yh1ttCg6ftYujZEZpl2zkpB5dSP6yOSAlVIteKl9K0gZORXC0eAILACvrk7ZxrEz7fVfSM9YvUV2f+U5arw3/TB//6c22v+n6bb3PrL7hrsjnE/Iw4lLycEtLxwRrF8eZjZwcCUm5d4yH9cGztQEpoVos0vxS4gsxWpxPICL5bIZZQ+5q4IHryhRVHy0n1e/F9e1PPpjm68Mv87vZv/SQ9fMmTat97VUfPxnl31mz4SOutPFGZVDJaBSKOzwhIelTyt8tawNP2VxBGhACRS7NgeYMU48WvxtAdJhD6rbt+Wymw/eTsBRl1UfLST0IX3XNp3JpHwP8MX3yULeGN1vX9PutUe1qb/6e+tse64vi73JBPpvpVzQvkYeVHmnszvVQ7IZFWF+Za3tASqgWnSEzGyStF5cnhuNpvb6D+N0AosNTYvf1SxCIy2mpPlpOqu31BTUbf+vbaR8D/DH11vCWM688Yf0c7XVbd42t+di9X4ji76rNfPKXUfw9LpAZ252K3grBtn80P3xlBmk8rH+gY3VASqgWKRsqDql6jEaqYTewDK3Xa26C3GcCwEHmkV5KWfXRcqyoTKpe9+G/tOAw4JGZU79WETqZeaRrPvaFr1X699Rc0fT30RyRbjIaaK+iNzHS2J07YsFxIFms/XEZ20eb1VpwDCsZVPZ0zFa2BKT8LCvHlw1sdUDpHEPtsxdRnBapYGFne53VR8uxIiA1lXJTR3+Qmzr6w4wFhwMPTP36+/9Wy7tc/5k9X5qbPH3D+YPPlfWda9rrmfV7MVzQ1kmWaJAvHSOHk3zNCOxs7M45VWVrCnry2cwI99lYoFXWjFayvcU+IAyKxIgNFYdUBEeG3wkgYsyo9EanVE16TcJRTdVHyxmyqTKJNnskyWzWdHr4gce1nHSzadOq69oPlfO/pb3+knBU01iUsaQ3Z1JarerquCetlcO2j2WyNmAsgtWde9YHpIRqkbApUGN2ZmWsCLuBJWj+bBKQ+sPrkDSfzbQ7FI4Gtm38QZs9kjb99r98WdNJb/jDb9xQTkjqe3u90nA0SHEOpbb8wNVxT1oDUqvnOyvPA6xec2moIA0I1SpmU0BK9WNlOH+wmeanmZ3Mp/SKlyGpVI669D2SeGXSSkybfbkVckA5pt95dePESw/1aDp5pYak1fWbp31ur1ccjo6n+J2j7Z60ydHNJNkIFQs12Ny5pyUgJRQq36hlbQb8LCvD+QPio2qBiYp5FZKG2uq171gfZuUOub5XuiF5U8d+tFvbaTchad31ny0qxKq9+hOvxX9EdlIcjhp9KVa6aaxcdLGbieKD+IwqPnYC0goRCpXPqsWffEkOWXAoGtkWdgMLaa/276GK1DsmJHV+d/t8NtPrWFt9kHJl0rJMpZupeLPx2OAmjVWkxhV3DtxSzO72NZt++z8kc0R2kSorreHoeNKbMy2gcc3k4iaSbNAUH81t9p22VkyrCEgJ1Spi4+KBwLs83m8sAutpn4/bkPLNPNKx3SxApUrHKSb4NQFwEATqqsuKkGZl0opWbf7d79t6bHCTxirSQHa3X/uJ+3aaXeoX+//XXvXxk/W3Prwv+SNLlzzYelZx1X/a12iNY59aXLoXUf5eNMyw1TzaLLC1C0hLBWlAqFaWMUsrDpkpWx5+B2C1xu6c9i/qQJ5oujooH0trkZDUmTEL8jk+IAGwa9KuTFpR9RVNDzt31mE1rVWkRv1tj/WtubnztppNW84u/P/VXnXz/0jnqNLhyIMtG67RWu9JXRr3pLkiVsPnR3thSqeNIbqmgJRQrXRWBmoS2mqemZEGW8NuYCEXfredb7nGokyVzp58NjOseaMEWVybhemLtu/CWgGrq0cNU/HGZk1I2uSvhv+L1pNufmc23fv9deG5pPObM31mz5fSPbLkOPRgqyfta7Ssm7TtZB/Y3HpcBhdHBtjEhXzMuofdagJSQrWy2NySTbt4aagehRYuBPkNUk1ISOonMy/rgLQ3qiLz6szi+n6Hf3LWV48W1G7ckrXjSOCLmROH1p7+3s6van67Zi6pabk34agvoyoce7BlijpsWedprSJVv06WjSFd2hTSRtorSI022+63NVWQBoRqJRmzvN2VwK80fPahhQtt9oG0XDOP1F/mpn53Pps5Ijf5VjNVR6byVebVuVo1WmB99WiBaRterGUYiNP5g9/64plXnlB9HTC/O0Ew9/+c/+U/Xu362JtQ1agrD7Zs+s7UWmHXJg88VZICA3UPmRew/rPjyGizQO63rfm8awtICdWKZ/W5oiK4JLaH3UCYS+NQTJvTASpJvWZChr2FoNS2z4K5oZRg9EVPdoo134eqFl2rNv+b/9+Cw4BH5iZPVU2/+4b6NdPsRO7eYHb6JnN9y2cz/Q61Hc8z70dmjbo0DmWosTtn032g5vWT5s98rwOfaS3VmSMWHEMU+m2ZR6oqICVUK4mGkIK5ssXhwQDUsOzGOAotru5wjpLMB6VmhIQs1FP7PMiiuteEtlIx6kMwWqCuIsXMTzStwhYcCjwyefj51ol9vfdofcdSVRm+tnUGQXBYrn2qH1rKNdx0hh12bBO9cQs3GNJ8T9qgcSa+VAK6UA2tJVx3pYiqwZb1lrYK0oBQrSjjjd05DaEabePF4TMPbVx7kGVC0v0aZ1Iicg2yUN8vVaV9SbR/mhtGs8O+qWiWRfVuD1rpFxqxaK5dSeqa2gcUHS4cMTn2wl7F72Sp79vdoQdVqqrrFgSjnRYcUtR6bdtQVsaxaL4nVTXuScItV9b3WvZUcKnLtEHur1Md01E1NzeX5uuXTH7x9qs66OQNNHbnVOwaJxUwvi3ySmHCbtp7F5BA4kWrDqo4j2hrDy2HbDTg6iYxY7IIcO4Bj+LfK1uMyAMtc7N6pNzRKLLoN3/Mz6NV/slGB0Fwi+ZxM+/tvWVqduJYrQWHAo+svvGPBzfckb1b0zsu8btoSOYSW1tMIBV1XY5Viy5kHmBZOStWHm7vtuBQKmH92l4ymmFH7lfUrL/lnvGwBYcSNXNt70pj5ry6GzVzc5zPZsYI1ZalqSV70PHdditFez00cvn3ujCTslee6g9GXTEhN5kbHRxX4Lq2cEtoPpsJJFAvfD4OLDHTqrCo3CjVIrjcU9pncZsq0nOvP32fBYcCj0wefn67abWv39b7jKJ3XcqDZBM6bpe1obn36LfhWiHf4ybQ6vBkzWpba33YoAMBaae02qcSGK3EsXA00NS9adYgjmZj26VbwBSlJFpFra6CNHC/Oqlijd25Ki3HSkXwiu5WMi4hUVSQ2i+fzZz0qOptVG7A56sHy7l5lc90qywymtL4rFBBCkuZG/9WLTvXL4cqUqShZtOWs5vu/f46DSc/ou+hQlg6nNQ9tIRX7fLHl1C0YGfSAUapHOpYHJWQ1JoHhtIO3efYPb/1n+kwGd3h4tiOgjEZ3dAXx71gYc5v4e/WepPWT0C6pCFLj2tRUhE8Tvvg4ghHodiw4+1kYS3yZ75CQZ7kHpFqwaVuYgtVg810RADLsrJiphxUkSINMycOrT31nT8b3vC5v7WyBXqBKB4MNsk68X6p5B+R7+LC+JOKq8MkyG0OjUHxtfp/REmQNOxIgFTYODTxqrqFJFTqd/ReX1sH16DjAWmTrLF257OZodADsIo6+OQ6Xqj07yj83FUGpIRqy9IYqLn+S10uVWE3sMCgRwHpQk2h0NPXcwBE4SmXRk2YHe0nx4Y7qSJF0s4ffK6t+qWHeupve8zaMEtmdbYV8V8t1UrjT1a6xmyUIDSQf7L+vGBcQgUNXKqwM5+/PfL70pvGd6SjVaMF4wpH+vg0kmt7YW0VKkgpvP/lzkNhvn/her7ktVzzDRqh2uIISN1B9Sg0M59fzTvoAkjXWETVZFZZveX//k9nf/q1PXy2kLRzP/u7v66q2/Dsuq27xiw9+UmGt+EHmXGEsj7o0FLdb0JEB+c0ms/ti/lsZiSJoFQqRjvke9nlzid162/zeyiVlb4VZRSu44VreCSzhquj+EtSQnh0uSGNbWjSRj5uwaHYhs841JJrEVXQAMrlTGt9mKngq73q4869L9hvbvJU1eTYd62sjMpnMz2Mm1HlEYXV/f0WHEMcCkHp/IY2sr9HZEylqsy4PCKFD67/nmpdf5MbRERtBakJ1Wizv4zmXwyqSC+lMuwGFnB1NhGAeGlcfBdt1bVtd02/8+o/KzlcOGT6nVc3vv/tzv1X3Dlwiy3vSirTvNjA0hEjSjcc7XdgN/vlhOc0jhU2Di38KWZdmc9mCm3I7aH5uj5lLeOK9/+gcy8i2mcgEapdSvNiwpXh2VHhKRDUkwdZrrU0AYiX1sV30epvfXjf7PtjI2YupJJDhkMmDz/fevp7O79qZuJa8q5cnWXoolFFc0cvYTZ08agNuUnW1RfX1ovM3g1jtu4FatffHrfZR05zi33g2UDalYxWupNXyggEL8VnG65wtaUJQPQ0bfpRkZqNWzqr6zdPK34LUOzc60/fN7Gv956034HsIkyBhA7jDow+0bDjfpyaQpuWhf8Qjl6g/fPBmisC2gNSQrUPqP6FYF7hJbSH3UAYX9YAitXuy3gZs1FO3fV/8FcWHAo8de71rz9tQUjqe2ClSYfC3b0vIaNbRi06JNhjxIHP96BUCaMCqgNSQrVLuBAWE3hfQKAEZ0jYP8BPFMAKdmhfnJRqffuTD6665lM5XUcNV5hNm87/Yui/n3nliVTG4JgNZYIgaOEDpcIOh+ZCE8pjMa58LsgRKqS9gjQgVJvnSsUhP8sLOA9wDZsvAFjOQGN3zsub+lXXfHprVd2GOQsOBR6anThWe/7Qc28kHZLKTtsub5jjkh0uXZ/lvVBlh7AxxZszLdQn4zBQJgJSNzjxRE8qgkcsOJQ00V4P51BFCmAZQ43duS5fT5BptV/9O3/0pAWHAk/NnDi0NoWQlConHZ5y9OGVt985WJQzhRySp5CPVUB9QCofAt9nibj0xeX7LzSbM8FVVJECWGiUhSqt9khfkiEprfVqmMr+HhffmIwL8L0oBxeMOvgQgDVXBVyoIA08fwo55tjMLt8DUp6ow0lUkQJYYNSnTK25wAAADqJJREFUTZlWQqs90pZESEprvRoDHlT2Oxn+omTOfQ5Yc1XGlYDU51DNqfcuv9C+VgS7FnYDC/UyFweAzH8jHA0xrfZrPvqnf27NAcFLcYak+WxmI4UQKvgQjgay5nrKgkNBeoYc2nxsoR7WXOVxIiD1PFRz8UbD1ypKbhrhNLlWs3so4Ddzw95BOHq5+tse66u7/rM8KEWqYgxJzfd/Kjvmo2g7PZsJ3cuGTd4ad7mKWO6xWHOVwZUK0sDTUG3c0acevs7hJCCF8xq7c73MjQa8NS6Vo4SAS7jizoFbajZtOWvlwcEbhZB04uVHt0XxnvPZjAndOvkEWc3sVu9VoCIhEq32fur1YGPkPh4AlM6lgNTHUM3JQE0WTr79MrsadgOL4WYU8M8Y4Whx6q7/v/6AeaRImwlJz7028NLEvt57KjkUmTtKJZO9xiUc9bKDr7E7N0irvXdGfHgYwAOA8jgTkHoaqrlccehbNSXVo/CGPAzgZhTwh6kabyUcLU79rQ/vYx4pbDA3earq3Otff/r093Z+tZzDCc0dbeAHaqVCVb/vm8TS3eQP85n3ZoyEPAAYsuBQ1HCpgjTwLGQalw+8q3z7oiYghVcau3M93IwCXmC3+jKYeaSrb/xj7g2Qugsh6dP3nfrOn5XT6TTI3FFrmWtzMw+uLlbadbGpjRe6PGitX4jPdglcC0h9CtWcvmn2rCLY9bAbWApf2IDbhghHy7fhjuzdq65rP6T1+OGW8wefaxv/5vZjxW7elM9mzLqsjY+BlQa4Nl9K1p60I7vtER/X3KEHACiCUwGpZ6GaD/MqfZnJSTgKL3EzCjhtoLE7x271FWr4w2/cwKZNsMXU0R9mzr3xzMGV5pKyKZPVzLzRLq7Nl5NRA4/YdlyIxJBsFOslCYYH+CitzLUK0oBQzSm+BIdszgRvyc0o80gBt8wvwPmZRmP1lrtuIiSFLWYnjtWePfA33zj1Qvezix1SPpvpCIJgLz8w65iW+luYN7o8CdEIktwySgXlPMabFcHFgNSHUG3Ih6d+8qTDh/ZbKkjhNZlHys0ooN84C/Dordu6a6yu6Y4d7GwPm5x/8x86Tj5zx4lwy73sWM/vv32ekpZ67+eNFkMe8HFf6gbmoAs5Bx2MN1uecwGpJ6GaT4Ga6+/Vi7AbKAJPNQHdRtjwIz7123qfWfOxe79ASAqbTL/z6sazP/3a4dPDDzwu4egwO9ZbxayJ7zYPollvlIz7Uv0IRxeQDararTooy7hYQRp4EKoRkLqD6lHgg6ea7dyMAiqZjQ9YhMRsPiT96J/+udNvEurM73L/2sCu6vrM3xGOWmVAHlqx1ihD6L50SN3BIyAcXZo8yN5h6/GljYBUn1GfftE9+FLnpgUQhKSAOmZjzNt93vggafW3Pda35mNf+Jpf7xq2W3Vd+6EP7TjwO6ZakfbN1BWuy2zEVCFz/sxmg7Tbq0M4ugIZhURIuggnA1LHQzUf5/q4+uTOq7AbKAYhKaCG+W5ubezOsdFgwtZ/Zs+XCElhCxOONvzhN24IPliDNbP5YirGpZq/metytJhJqgrhaJEISRfnagVp4HCo5mPFoavvmSH2wCIISQGrjclMuw4WIOkhJIUNwuFogVTdmfmN18tsYsRvQB5YUc0fEwlJCZPsNtDYnWvl3qR4hKSXczkgdTFUG5XBur5xNSClvR5YgiywWnliD1jlKVmE8/1lAUJSpGmxcDTMrFnMbGLT7k1QGhtzXm+Rdnof14iJkjDpFsZIWGmnhNgoESHppQhIdfFyQSJPgVyrCPY17AZKIjc7OzlrWAaVxvErLMLZCdkyhKRIw0rhaJhp9w4FpVyvozEic0bbZcMVJETOdzOhvzXG5Xehz/cTUYlQSOp9+O9sQOpoqOZzxYZrs3SovgGKJDc9t/OljSUM0soZG9NOv4NFuN1MSLr2E/ftrKrbMOf7uUD8Vt/4x4PFhqNhEpS2UlFakXAwypzRlEiXU7s8wOfeND0m62HmbkQkJG33/TPtcgVp4FioNub54sS1QJGAFCiB3PzwxB6LopUzcuHNPpiXrcCF3e3v/QIhKeJkqpU33JG9u5KXWFBRyhid4pjzdD3BqF3kAX4r9x2JG5eWemahR4wKafcDUpdCKK8DNWlHd6Utx/ewGygLT+yxkgULbxYspZsPRqUig80+lKnf1vuMCUlrNm056/u5QLRM8L7m5s4nTLVyVH+xXK+7pAPgEalYxwfG5H5nEzNG7RV6QEt7cjKGZBY6LfUxCa23HnHyDa7A6YDUsVCNCg53zgHVo0AFQk/sXRujgogQlJZsLByMUpGhlwlJV2+56yZCUkRlPhz92L1fWN/+5INxnFQJmMx1x1Qt3e35d/u4VIveLhX8fVyPdZBui2ZfQ6UEjMnvRQcPC5IhD8pv8e3hlesVpIEjoRoVhxe4EiwSdgMVkgVVhwRgVJ1gUaGg9BZaORc1KjNGCUYdsm7rrrFN935/ndlIx/dzgcqYoH3tJ+673gTvSZzKxu7coHy3b5KKPF/C0iF5v81SLUobvUJSedcrVdHcc0Sj0E7PrNEUSAbV6lPw70NA6kKoxsXgg4pg7UEIYTcQIQnAmmVhQVCKRZnrLq2clyhUKLUyY9RdZiMds6GO7+cB5TEBu6lGNoF70qdQgqb+BWHpgEMtzGPyfu5u7M5VSVVcPw+p3CAP8bsISisSHvlDO32KFgT/zndl1VpwDLEyF6h8NmO+hJoUvw1ubj9gzsX9thxMGQi7gRhIyNOfz2bMDWmv8ms+YiIP2sznozefzZiFd+FPgwfn3FSLmkXGIItwf5gNdapXN/Sc+9nf/fXc5Kkq388HimOC9Uo3Y4qKXK/6Cx1Y+WymVa7b7VLZpOH6PS5rgPk/FEv4Qe45uvLZTE8QBOZPF/enKxqT33XGS1hGPs/t+WymXe4nW1x8n84HpEJzqDZu2k0sOA5b9CsPSPlZAjEKBaXtcjO6nfONxch362A+m9kYCkpd+7yMyvfmIDO7/GV2uA9q1/548vA//tPMiUNrfT8fWNr8vNGP/umfz39mLCXh4sWAUQLT8J82C458RI5x/g+BqN8k6Cs8nO1y9H6jUuZ3pp+uFvvJqINW+Sz3uBaUVs3NzVlwGPGSL879Sg9/QEr0IfLZzBGlT99M2L3RguNQT8KvFxW+j0fYGTpZ+WymWW5EexRdN8zT88RnkPF7dUGosrRd4XdNoUppUKqUCEVxife/3bl/8vDzrZwVLFR71cdP1jX9fmsaLfVRk+/+ZrmOB6F/RlVxOh4Kac0196T85yNcd1GM0P1pl6uVeEUYL1SH8xBBL0eKUm4vrLu8qCA1v3CK2+ypOLyc1opgfpZAwmShYiph+kJteR0W3oyOyTWCm8SUFSpLgw8WMO2hP7bdRxQW6YW2Tca4YFlX3Dlwy+nhBx4///NvPkDLPQpW33DXyIbP/W27KydEvvuPLDfaSu4JSilcIPxEZBbcnzaHHsy6Xlk6LvdYg3TJukHuPYflc9yldJTExXEOXlSQBh9UhGh8Ys78jQVCv3zaDBJ8REPxZ4AAwxKhtupWuSFNOjAdXRBspb7oooJ0ZfK5aQ3NvmtO8LMzFlrwF9o2WayjLGdeeaJp6ugPXpk6+sMMZ9BfZpf6uqY7diS1Sz2AlUlu0Z7S/WkcRgvdLayD/CAPoArjJGwNS0dDFcz+BaQAACxHAsJC6FWoLInixnREgq2L4RYPvtwSaucs/AlCn6Gwhe2di+0GWlg8FFo2T/JwDXE59UL3s5OHn99ONal/6q7/7IHaK2/qcKGlHnCZ3J+m8WC2XCMLigC45/WYhKXhbqy0NtYrqjiFgBQAgBXIzWlYOAgLQgFoAaEWABUmXn5029SvRp6bfudV5qR7YL5q9Nr2/2zzRkwAlif3pc0LHupHNWO3WKPyMHdY7oHZkAwrWmRjvTg+t+ERVAdKCeoJSAEAAADPMZvUfa7NGgVwudA4oCAUnIYtfMi/mJOhjciCBYUAdEIhcqFilHAH1mKf34KFn9H5DqxKxzgQkAIAAACYn006/e4bg+x07xazQ/2qa9vuqr/14X2+nwsAAJZCQAoAAADgool9vfdM/eb7f0PbvW7V9Zun667/g79a3/7kg76fCwAAVkJACgAAAOAypu1+8vA//b+zE8dqOTt6VNVtmKu7rv0l2ukBACgeASkAAACAJZ3+3s6vTo4NdxKU2s/MGa3ZuKWT3ekBACgNASkAAACAZZn5pDMnDw1MvjV8Gxs52WfVde2Hahtv7mLOKAAA5SEgBQAAAFCUQlA6dezHv0dFabpMK31t5pO/JBgFAKByBKQAAAAASkbrfToKM0ZppQcAIDoEpAAAAADKZjZzmn77X77Mrvfxmt+Vvql9oHrdh/+SYBQAgGgRkAIAAACo2MTLj26bOfGLr0z95uUW5pRGZ36+6MYt2frbHutz5T0BAGAbAlIAAAAAkTLt9zMnf3nn1NEfZjizpavZtOVs7dW3PF+z4SM9VIsCABA/AlIAAAAAsZjf1OnUr/umj+//7MyJQ2s5y0szLfS1V3/itZqG65+o39b7jK3HCQCAiwhIAQAAAMTOtODPTuT+48x7b7Yzr/QCUylas/GGNwlFAQBIFwEpAAAAgESZytLZM2//xczpY+0z777Z5MtO+GYH+trGj71dveHaV6rrM/+t/taH91lwWAAAeI+AFAAAAECqJvb13jN7Nv/52VO/2joz/lajK4GpCURrGprHaxqaR6vXXT3IRksAANiJgBQAAACAVUw7/tzkqTvnzr336ZnxIy0z40caNOyMX3vVx09Wr7/mSPXaD/2kqq7hBdrmAQDQgYAUAAAAgPVMW/7c5Km7Z8+Pt81NnmqePX20eW76zOqkN38ymylVr2s8XbX2yner6zb82lSGBrVrf0y7PAAAehGQAgAAAFCtEJ6a9zA3febmucnTNxTez+yZ4zfOTZ1ZU+z7M+3wH/yH1SeqVzeMzP87ISgAAG4KguD/AHF5VCE9kdVYAAAAAElFTkSuQmCC;fontFamily=Helvetica;" parent="TfanE9FAZFEMDZ-ole27-1" vertex="1">
          <mxGeometry x="251.99" y="349.75" width="156.02" height="28.5" as="geometry" />
        </mxCell>
        <mxCell id="TfanE9FAZFEMDZ-ole27-25" value="Synchronous operations" style="text;html=1;align=center;verticalAlign=middle;resizable=0;points=[];autosize=1;strokeColor=none;fillColor=none;fontStyle=1;labelBackgroundColor=default;fontSize=13;" parent="TfanE9FAZFEMDZ-ole27-1" vertex="1">
          <mxGeometry x="460" y="565" width="180" height="30" as="geometry" />
        </mxCell>
        <mxCell id="TfanE9FAZFEMDZ-ole27-29" value="Idempotent, i.e. does not fail if something it provisions already exists" style="shape=callout;whiteSpace=wrap;html=1;perimeter=calloutPerimeter;flipH=1;spacing=4;flipV=1;fontSize=14;position2=0.64;base=25;size=30;position=0.56;" parent="TfanE9FAZFEMDZ-ole27-1" vertex="1">
          <mxGeometry x="870" y="655" width="250" height="100" as="geometry" />
        </mxCell>
        <mxCell id="TfanE9FAZFEMDZ-ole27-31" value="" style="shape=image;verticalLabelPosition=bottom;labelBackgroundColor=default;verticalAlign=top;aspect=fixed;imageAspect=0;image=data:image/png,iVBORw0KGgoAAAANSUhEUgAAAaIAAAB4CAMAAACHBwagAAAAdVBMVEX///8AidYAh9UAftMAhdUAgdQAg9QAgNNCm9yhyet0suMqlNlTo949l9ra6vfV5/bw9/y/2vFgqODr9Pv1+v3N4vTk8Pm92fGMvuex0u7G3vMdj9hrreLm8fp8tuVZpd+mzOyLveeWw+kAetJ5teRHntwAdNBkg6ipAAAOR0lEQVR4nO1d6ZqquhJtGZ21FafWttVuz/s/4mVIhSSkkgqgnHNh/djfblCIKVJZWVUVPj5egdNLrjqgNSSjfddNGGDEMtp03YQBRhxif9l1GwaYcPS9Z9dtGGDCJhzFu64bMQBHMotG3qLrVgzAsfS80Sj87LoZA1Ac4tRC3pn/ve6wLQN0OPqjFBFftn5dumzNgCpSopDC8/iBy+9Avv9NyIhCPogm/FDsjTts0AAFOVHIBlHED52iUXzosEkDJBz8wkKj4MGPPT3R6w3oFgVRyBAncGybHYvuXTZrAEdBFPJBdOUHH0Fusm2H7RrAsGZEQbHIOXd93k+HLRtQYBl43EJBuRJaxcxog2DXNThRyOCXobxrUBwSxIYBneDulwaSvFoElhMWSgM6wE8oWGgUr/iJz/JElBguMOC1EIlCNogEMWEjTFDT7lrYd4CiwAfRFz+VxMLxIU7eFfLQgziIZuW5mzi8BqmuIxz9kYxQEOTGkvXiIa2uC2xCxUIiu97H8qlBqns/Epko5MTtVp5+KGcHqe7tUImCOlLO6ulBqnszVKKQD5QyCvGxi9Wzg1T3XlSIQoZQ+MA0qJwepLp3okIUKrNNZZ4apLp3QkMU8lEiqDwH3SdENjHgldAQhQzBn/CZH+1HBqnuPdARhQz+d/mZpEIWCisOUt07oCUKKTyxoOim9YRSMGnAq6AlChliUSid6QfaINW9HsmsyqVZ58+Fj+31fi4z5JBV91ogRCHve3HRc0T8XGrJ0csaN38W6PUKeeejFpILinBLSgpE240r4K/sH/6/xQjveamgaIfNV/lwe1E5ywUa12faqGrX4iCShAON+CN89DWl5ImQKPGSG/wXsEY5gFhQlME0iFLi/RJHJND8qLfRww0+NmQSoBV/hA/PsDs0waJ0wr1l9ivTIJLy5Ob4lJUjvLXfOonm93WBjK1GR1JB0YfZIWo+3g7uxRAv2hj0M8B7MkwwgUSkJ2Y/lyK6YnepjSKp3GN5/kHr1/8vIDB4r1gSsA3DDdC6J2KJrwF7PHq5p8DVMDQCaVAsbX4ue8zb3n6GTX8Rc7KSGtUTfCPydjEmpMXo3bQoAsTtPuZrHyzDZiO/f9s9PA3OK5C3VjCIP8IwajdGPikei5RYsnqZ4FUy078WXybnJU8sX+Z1K6Bdqe7Mxw5LPOpfmkQlJ04cELKyfKEMohRhi66ILdnyGY55ur5lGxlpdCzrObRBVHGPjcA0wVz4gQVSvza2SUzdrpCzk3VRBGhRqmPty9P4gFCGvcpkuZg4muJRTLxCsW1rW9axx4INHLYs61VC2NJEuBVNdG36rIKwLUGaVcmERfUZ88qvEWvfgOR7udw7uoCFaWCEci7ChLIoAuu2VM7CFFS4HEiE8b+xLjA5Xefz+eV+0togOUxnYZwjmD/oCoxJnKuQW4L4U6IltfMeyVdjSkOACoH3xZiAGe/FKTuAksTv6TVHJdw7Z99kvf298aMgi90Hv5osm11+lj+/QTyjuhnjUlSJnlHEHwF+K+UsrIExPHUsXIXr6ZfAI8DnJvqJ8gNCGa+CpR/k+FVPzNiligH9KFM/ooqJVuNKBqkXntFbisCTeUZVX0USf4SvtyGlsbWyMPdEWDcwGOP2vG2lhVnyc4SbiD2ZvnqCOZUwN9FFeH4rbZtqM3c8n7B22BrHhbrlBUn8EYA/mHSwrQOEpjAToFotyUR+2bR2THQRn3XFRPsz1qTgbF3i69Pn+Z3kDxPFnxIt6DScHZQ/BeLDYpK5CIqJxJCW3UTsd5tM9JD6RjbRKhR6OXeNwp8ji42qtXbSjY7ypw8OlJtdofHOM8CxRZ/J9Cq1eYA/u4kkyt6GiVasa1IakFECyUSrchYKwvj8nD/PPt+bx/oYm8Q5NZSX4ug6jJqXs4A5xN/8YJ4OYfV/UTq1RwVCCdwXSXW5YCI0gEIwUd5ML4oXl+v0GYVi3vSeWyiI7sAaP3/Ko8b0WqzAgX23Smt/yPoPXKNhXiI4NcnlwgQauk5136z58iYRzU20z1cu0Rku+zUub5CAW/NiadQvefq8ccuKyDiIdJzZaWGUX6TZCpM5Lan8jOsNzlmVrPWKxLtpbqJsEMVi/KV0Hj+wI9xI7QkgGKY1vtlpa8XkxJXUNUx6g8de1mRBzPXd3Ogfm9eU0oDGJoqyCRNhrwc24r1zta1gIzy4tjfP/vrn33H12rCcBRRUdUoF9+fERj6BCSo/rLGJssQkzFux+Jbn6YjbGU5idzar1ti605XWNZLqWBMrj9kF+sbhWmvm1kP1Yo1NlJoB87kw2+uf951lUv00j4cYi/c8HMcRxo0J2LLHobICgtoMtJEawARWWfE2NxFeD+KZ1wfQJoRUGUpVRsY55OJI6+rvPMPUKU1bIC+VThjhWkFlTmjBRJime2DqFVYY9wldqT1rKFXJ+9VAaMdulKF+OQszhKYUAqTFUPMtLWBt6Vd/l9VEK6uJMMF4jv4ABpOJ1uZVqNnLmwdgBX7NXBAQnCpL6DINn1zIAh5H87g3NxE2bycs/w+fjmHzUt05YzTc9tO/Qycb1ZXqNoblDwtEUjn9nAkSulhtcxNhvXVSQl1VQGaP7q5mXmarKt650bp6iQaJie8AVYpJwcsJjEedQwIToasDq4mw9RkjniHuRXa4iSwqgbVPb060rl4pA7OC3k2A/UihXVgB6hcvjU2EZtJA0p+hZTFmImM0nNSlpjz9KmqVs4BcozcCeEHKsgu0WH0ArbGJMD7HtESTM16jJjKVqoxoKdNzpwhsjXKWpTmPBLhEaFcvLohGwdDYRJjP2UHA+G+K4YLRBVuAm5RHaA5kKKhRznI1zPAZ4J1k1uj7CRF+AJfGJkIWKCAlegEK6EP1q1vLZE9L3VlbhqIM93IWptcEN+T8kT1ntpXxFoYbJui9zEQPuqNRv2qrJyZW71hYoQxn4s3r0pVIMj8I/7V5ZZjT0XHc2ESYxOaQjaN801iqMnJQVU4uNnItZylFXiTLip82G/+KCj+A5iZCSHV9E9kmESxtowqnQLlbOYs5NUmCsZDlC4Qf/EMvM9G1rolsFd8ukpphO40K3MpZHPy4qZAliXDhB/DyUeTFVmgbjcIpWdqYEK7AqZzFhS9qNDwAc5fGJP2XmQjE9b9ku92uAYkO0vdsWWZu9DhxUFRdihnM2WMKcC0E5Hwj6xMrzLSoayJWpIBnn+thLFXJf42bLI1v8FiFQzkLLOkMS4pyVYHafmUUfgDNTYS4B7kwigxbrMe5bueLTuscYuSQlLG5TXDcgPVhvhkCf+bZ9WUmAnXBLcPmYHvoCXqKggl9HJHLWYg6NsTHEVfyAxsHmW/GiBfuLuua6FuXBGiFbeqoE9qZ0hVVajnLjDDLiz9H2wk3i/ADuNv2coBVtKuJeIqZCwGzRMNrbsf3JBNkYjkLTHCBLQkL4uO6ZsNFKhk/yEXwKQPWN84mYrOKy0Ye9n3K6mVU0RkyjYzAgsKqRMHGODp3D0lqVoYKcSl0yMLPczbR0XblKja2rqxZybC1rbXKZ4DkSANq73L2E1cUEahCwoUfwBf4I+STfDNFZxO555LZdc+6m/3RFVXKQwDv9CV4XdD7K4lqwIs0GT8qeKoKwpT4StLZRKDW09ea1pz5+lmJZEXVI5SzQF2aIaDMwaypemhIcCKFeyGso+fmpVrobiKYxajlipZo+MiopNhAVlTtOvqaL4oI94VHXAkILIiUMAcsr/R8syxkdDfRnleGUdphjYa7KxUSyIqqtZxlou91PUApkneTulOEn8oNtZzuVFIsczmyFhCaCwxUdskJn10ab1aET1VUrYttoGK0tCGgW2JW9Y4k/HDAElMXGhY3Xq6YaGE1EdfbkNSWFI9fGBnfVhGg4e5U5NIjSzkLdApxTEPUQuAhSUASfkpwVaxCvXZZUidPC1a/ZzdRua6PxtoB8HmO+A+1RcObbzpLVVQtggzMLkSmCrO5QOchAkFWSniRiBffpBPHbLuE4IKtiwgmKvUcT7OGPp3TRwBMZIuGt7GRBVVRNcfIgV9RO5hrqWBSSD31Fs/nc47gKcmFJdcNF3yMJ7dRlDcE+EstEwmhhSC6Co/d/rSJc1IOJrILAC61Ogioiqrp7SzoSgcDKGhAFcs+Me0vI9dpC/3oRfHzej/er2NWee8vG5lIqpkLwvD5d0wvfhmHMaz3mYns+5+38iYGoqJqotNcLyC7XbgnK2ShBRmVJkh1bV4QRDwY5d8+UBONKSZK14yedPEou7hwqKi1Tuxd18ZmMGRFFR+xMKE56FpQVV2IEUTyrz4lU2Rd5z8+mproY2fUxzw/b7d9z5W2tuCjKar43WBF46AWAgXMs98/ifNhZSDfdRspFd3X1EQf6yfyItbsDpuc6S19k1sutvpqaQ9GoqKKxsjBA7i8TOws+Ebq5q1VX/vpqU33wnPe+Y1NlDZrpOsXL/Iv7Lv5pngLBcoWevQeMWNJ6iNsXXr4xy/g0p7Hb/Gd35Qw3Nj/bfjV8NeJF5cKjBfEsBvJmjXqH/ULC3acErI7LVL64Yk9EPmzyft37V+e7j+0p/gFb2dpAbt7yrTiMEz/OV/b3gr8e7LJMurCfO/NaHw9tbKjosP9Px+bsx9G5Fz8f+17otbL1WpFTsh1RLZ57XK53753C+v17jZdRHEUuO090/rbWQZokKR+be7FDkNHRDssfwCGfebXcuPUsU4xjHr3ao53Yf01yf1aVN84DC97kXJ/kaxO92dQ169p0CDIO0DF/gB8rSXr5Gjz7Sw9xjb1a7O4Db+mQcMtH3uP1K9dn54zmXZBe29n6R2Wh+NPQ75GQ2tvZ+kRUr92mYUv8mtVtPV2ln4gm3TG7iJBQ/T0XdQV/A9n77O84dIawQAAAABJRU5ErkJggg==;" parent="TfanE9FAZFEMDZ-ole27-1" vertex="1">
          <mxGeometry x="1199" y="295" width="139.33" height="40" as="geometry" />
        </mxCell>
        <mxCell id="TfanE9FAZFEMDZ-ole27-32" value="Resource group" style="image;aspect=fixed;html=1;points=[];align=left;fontSize=12;image=img/lib/azure2/general/Resource_Groups.svg;labelPosition=right;verticalLabelPosition=middle;verticalAlign=middle;fontStyle=1" parent="TfanE9FAZFEMDZ-ole27-1" vertex="1">
          <mxGeometry x="1214" y="375" width="42.5" height="40" as="geometry" />
        </mxCell>
        <mxCell id="jO-7Yq6EXqsvsZqchOJK-0" value="" style="shape=image;verticalLabelPosition=bottom;labelBackgroundColor=default;verticalAlign=top;aspect=fixed;imageAspect=0;image=data:image/png,iVBORw0KGgoAAAANSUhEUgAAA7UAAALICAYAAACgkteeAAAL5XpUWHRSYXcgcHJvZmlsZSB0eXBlIGV4aWYAAHjarZhrlts6DoT/cxWzBL5AkMvh85zZwSx/PtDq7qTzzr12x1JkiiJRhULBbv/vv8f9h1eSkl0WraWV4nnlllvsnFT/er2Owef7eV9DfHqufnXdzerjPYtcsiGvYb7s1zF0rsvHDZqf6+Pr607n6yTWZ6Lni7cJkz3ZHvWMq89EKb6uh+f/rj339fzFdp5/Zfq75bCeVX76f1aCsYT5UnRxp5A8n9meklhBaqlzzHyGVOPbFUbd6+n7sXPvp5+C9+zkm9j5/oxIX4fCvRZr6/4Uo+d6kO/H7kboyxWFt9P49RerfCzqc+zOWfWc/dpdz4VIFfdsyj9T3DMGDkL5ikbhrfwTzvW+G+/KFieILR43eE8XWojE8YQcVujhhH2PM0yWmOOOyjHGGdO9VpPGFucFJds7nKiAsVyqYDVBLXE5vq8l3Oe2+7wZKk9egZExMFngjm/e7nsX/+b9PtE5FtsQLJjzFSvWFY3TLMOQs09GAUg4T0zlxve+3TusHy8DNoGg3DBXNtj9eE0xJHxwK12cE+PEZ+dfqRF0PRMQIp4tLCYkEPAlJAkleI1RQyCOFXw6K48pxwECQSSu4A7YpFQAh2zg2dyj4Y6NEl+XkRaAkFSSAg3pAlg5C/zRXOFQlyTZiUgRlSpNekklFymlaDGN6po0q2hR1apNe001V6mlaq211d5iS0iYtNLUtdpa652Hdqbu3N0Z0fuII408ZJSho442+oQ+M0+ZZeqss82+4kqL9F9lqVt1tdV32FBp5y27bN11t90PXDvp5COnHD31tNPfUXtQ/Rq18Am5n6MWHtQMsXzH6QdqXFZ9myKYnIhhBmIxBxBXQwBCR8PM15BzNOQMM98iSSER1IIYOCsYYiCYd4hywjt2H8j9FDcn+Y9wiz9Czhl0/wZyzqB7kPsWt++gtvrV4XQBsiy0mPp0EDYG7Npj7VaT/vro/ukEP5hoLF/k+LMs0F1ljBS1SdIWR21GrIOS6ipjnj6W9JnORiXLcgdtkdn0QLujKUoX3/tG0gufcxxq/TwqmUcczYMBOZ8Uwzwhdo2JBMiMc/3IMqKiHc1bXso8pTfIBFp9rShtx7Xl7G1YpFO1HNYR+0qBhSbZp4TFiqbFevrtifgQXWxolbbYjSoJkaNuQzCMXUvvS2uCST0gTmyX+hyy8Jdd9XJP/T88up8MUFZY9cya9hpnj4awxyAbHdt9FQQ8+jOKRblvlwcj2ZEvBD+sfLKcVsm6C+TpQsLN5fFjMK/2UlfJdR7Sii9AafdBVKZ3ZEheZUJZYpeY9Jy6yHa7k3zFWCnoLAkK4DXs3Kz+ZbDIYtUn1zFJ++BqjK3J2qdOVjHJDeorT87S2B8pFb2mxb7AbYYBh5ifwEtibJsohaR94na+hZWIQBBqL7OPrbmM1NUf7bNbVEJrFxlt+8HIf3t0HxfYftt1oBiIWBsF/H2l0ozFas/yqmeLtCVqRKw97wwb/KgXHfe92X90fAPLtPbC1feDVctu/QBkcgqmT5W0gm5czUWR6OCF3mZG0utNNq/HkW+iB1j68cvmG/CafBhspGa4fN7HspIfD3Y2ekxzYOgVyAGONyb5xT0zjSK91XiGztbOyLWmflZWRQcHq/X7yWQ0ex2/FY1IIDx1ISUpmiWbXcTcfKVU6MAejdmNHZBB9p5jMCN2ZJNoourEFp/L2gCWR6E4hMhqPX/sKBye0Ter0HwQg7QLnNkllpzYRUGJkxzSuLvppcyUjlrKI+Dneh/I8IptraZ6Lfqhre+CHMwU2OHWwfVNWuzjBwLmFii1oRfUBjO0UlLhIqIS0A0cwqGAMJx8W8idRzwZL7ohANuGz2se3x0KhxLaSH9kmIrlNkKaxHlQFzLpLGWQcAhjDXgiyWZbKY7kPPONVpV0aI66BDAmzalMC8fZiSvnkCPI4EnaD4l5USUoaPKCDrOD9OZq0kUgU+zYmstw2an139cyLasnYIBSm1itst3U5nfv+AJ4wmkijiudBuCKlaaW4/0C5PADyLouUg77uJS0k4WiDOoO2oQbCdOkBFbOk+fSaAwrFFFdKxQr58cIliDYyCsChRpJd0iqLaW20xwIjYMeYWN+9thIBxZAwszS41mrYR4O/RXBf8kIPd2X6fVVyrhfJtjPc/GVXeSWe0+uAAfenou5kikjs3qPddmR6oafWuQMdZP14nlorVleSB25QsHd3HiuvSmEbOYarltceQ6PJ64dTYPK+dgQ+hUGI0A4nYYdJEUn2wet6IjgISlZHSU5mR7dIm5FHcJxOVJlb8GZNypYwX7anHn7XuFpC5ivXemOqMCYw8JzsAaCs7IsQrsHliwC4ZHE3wKKW58y/RYbLzJCfVEwT8/u3WVy/00mY9YW+9E5V/zEZPdXZZqyxLMh9olTKVns0JlQkPspHIqOjqsCpDHkRLbKwspSWNbIWG1vSUWH2ZTgsvne6DsHRpgGs7mQRky9zVq4JSKPMmOBO70qLgs9wcicq1JUALi8aVtJpfvANQTyDNRhYo+JTDwCQAggBSawnET8JyRKMBFW1E09k1WTGfiKeAZbEYunPaXQpFNGjQ5jRA7uxebwXAP+NcSNKsDK8ylMAVnnegTTPO09qz4lnfk6koAPNFfbN8gUVGzG9ip+A6z2eMXr6pqme89tQuyur2+5N7jnjjseG37JN5B0xhwjGPEfr9wpaP5baSSTXrDA93tHdbhQKi7i07Ms+tORWx3BfplJmML++o7OYJgWmzik197GVHzfs02O7u3kD49rsVKPPk4sS8SfoUcKC6Kfg21gbGJWYrqHx0ZHIPkOqlAskovgAdOwLSxTzURQf6ldlKgd0brRpkkJe5wLa0tqWzCOoUirx57poSuluvbZnqKuVtTdziaYt/IfMVe/O77rGBUpsoquaRWzKWq1im9RtWiycMxhU1bNWhJdF8AO9k7z+PTtw+IYUW205fYRlfWxE+wledUmtm7DeRMKpWJ0Gq9O/ejk2ujv3PoZT76kyUOrZ/CLie4XVAQUwv1OLPsd7p1akvsVQQo0W0PQsTIoN8WD+0ag2tG4Trxybgv9o5aQ1oIJRzfZrSDeGNaZ6ursPKB61r442k/aGhLK7OW01PbISrZYdIuFCLaC3MPRzBUOWIacWDjeSxKMyGEko66LB0u9Q1YMct6Xsig6bYKigqql1Kdr+UXT4n6r0vd8aoECPJJaYWsWKJKtx0K6dks70K+dFhQvRjUqhgoNBKYqKKrDkNMBFf6aFTQuhtvTZWKt+L65NaEzvslwNGdUBLAwZ9gtqWNim1DQm+Sn7pkfWfO9BCwIvIdPslqrm0JC3K56BuA3b9CtmmJ0BqVq0mWYEsP8Pjyuoh1R3FxG1WgVT4SsHiRYomJviXheeUxHHaPqICAl0p9SAA75SxMbaGpsYagohaC0kq07tiaJ8kV2mfp0zHFulkrSXLSajVUFqIm5S9Ts9FGzyyBNTtAwrPbkEehSMABdMIjdKFLybEKfhPjDNIKXCtDPCf9M24sRRmllG057zrmnEJRhvyMzw6Rla9YsCZ5x0WLvkwptVkTyX0UT3v31TwjuR1/8WNYSm83ts1tyL7u04POgEsZbYP27VzKuvM1N2f9sWzAmiRTL8wT3/a8aXS4Tk1xMjLF+TVvLb3WQf3eE/WYHCPZbzX2V3PrUXNwNSCLZSoBwNJAaLxNoVH3qgX57k3yDBoeWekbyzdnvML30SQ51OgPusSqwBmI/rS0jL+yHkfNUAf+qA+n+bJ7tJ5VtYrwqPS1VA4MFeXrZO4VyY7vqL4L7+Rv3t8H914It9qseGaSjQ+gQXNqH8oI4zE7DSE40KFRa3jCfjMcf7jn9od2y7kFui0v7unZek6CRzNtSuLh09aRRTBAM054b7MGLiIc1d7HMO4V+kNL5lspkKe3G6rr3pmtBbBxNn0UNkn9bq+ynNJqUhUbiF5ATnLLfCx1BwnDH9ZD9aSbyYTtTewu8Uhpw8WLujqI5kC7/FvP+G6Fz/5DY30xEz9LDH7ukx01SM5r7P8y3PJFu7AfFAAAABmJLR0QA/wD/AP+gvaeTAAAACXBIWXMAABYlAAAWJQFJUiTwAAAAB3RJTUUH4wQSEAoLIo9oKgAAHFJJREFUeNrt3UFyFFeex/GXVcwsZkVvBlfHLIoT9HCCKaRZ22bfWMUJLE6AOIHhBEju3kPYW5DyBuYGqsXEyMKLZt9UZi8QRoBkqaSszPy//HwOQBBPBJFf3vsFKQEAAAAAAAAAAAAAAAAAAAAAAAAAAAAAAAAAAAAAAAAAAAAAAAAAAAAAAAAAAAAAAAAAAAAAAAAAAAAAAAAAAAAAAAAAAAAAAAAAAAAAAAAAAAAAAAAAAAAAAAAAAAAAAAAAAAAAAAAAAAAAAAAAAAAAAAAAAAAAAAAAAAAAAAAAAAAAAAAAAAAAAAAAAAAAAAAAAAAAAAAAAAAAAAAAAAAAAAAAAAAAAAAAAAAAAAAAAAAAAAAAAAAAAAAAAAAAAAAAAAAAAAAAAAAAAAAAAAAAAAAAAAAAAAAAAAAAAAAAEFrhCKAZ39092i3GN/5RvHv3dLecLJwIAACs38gRQIPqarsejw7ubxzNHQYAAIhaiGg6KkbPtjaPD/+6efyt4wAAAFELIeN2nNLzrc03z+azo6njAAAAUQsB1fN6PDrc+t/ffhC3AAAgaiFo29rbAgCAqIXYft/bilsAABC1EDxu7W0BAEDUQlgne1txCwAAohaCx629LQAAiFoIy94WAABELeQSt54kAwCAqIWw7G0BAEDUQh5xa28LAACiFsKytwUAAFELucStJ8kAACBqISx7WwAAELWQR9za2wIAIGqBsOxtAQAQtUAucetJMgAAohYIy94WAABRC+QRt/a2AACIWiAse1sAAEQtkEvcepIMAICoBcKytwUAQNQCecStvS0AAKIWCMveFgAAUQvkEreeJAMAIGqBsOxtAQAQtUAecWtvCwCAqAXCsrcFAEDUArnErSfJAACIWiAse1sAAEQtkEfc2tsCACBqgbDsbQEAELVALnHrSTIAAKIWCMveFgAAUQvkEbf2tgAAiFogLHtbAABELZBN3D73JBkAAFELRPWtvS0AAKIWCO7D3vbXbWcBAICoBSKajoriB3tbAABELRA8bu1tAQAQtUBs9rYAAIhaIDp7WwAARC0Qm70tAACiFsghbu1tAQAQtUBs9rYAAIhaIDp7WwAARC0Qm70tAACiFsghbu1tAQAQtUBs9rYAAIhaIDp7WwAARC0Qm70tAICoBcghbu1tAQBELUBs9rYAAKIWIDp7WwAAUQsQm70tAICoBcghbu1tAQBELUBs9rYAAKIWIDp7WwAAUQsQm70tAICoBcghbu1tAQBELUBs9rYAAKIWIDp7WwAAUQsQm70tAICoBcghbu1tAQBELUBs9rYAAKIWIDp7WwAAUQsQm70tAICoBcghbu1tAQBELUBs9rYAAKIWILr3e9vvNn575CwAAEQtQETToqh27G0BAEQtQOi4fb+3fXPgSTIAgKgFCKqe2dsCAIhagOhxa28LACBqAUKztwUAELUA8ePW3hYAQNQCBGdvCwAgagHix629LQCAqAUIzd4WAEDUAsSPW3tbAABRCxCcvS0AgKgFiB+39rYAAKIWIDR7WwAAUQsQP27tbQEARC1AcPa2AACiFiB+3NrbAgCIWoDQ7G0BAEQtQPy4tbcFAEQtAMHZ2wIAohaA+HE7r8ejA+cAAIhaAKKaOgIAQNQCAACAqAUAAABRCwAAAKIWAAAAUQsAAACiFgAAAEQtAAAAohYAAABELQAAAIhaALqwtfnm2Xx2NHUSAM2azX7+fjZ7/q2TAFELwFrV83o8Ori/cTR3FgBNxOzz2Wz200FK9ZOUxjedCFzfDUcAwAWmo2L0bGvz+FFVV4//tj/ZdSQAK8fsNKXxs5TSzGmAqAWg07h98z/Fcvl4t5wsHAnAhTF7M6Ub36dUb6eU3MzCGnh+DMCK6nk9Hh3a2wJcFLQ/f5/S+DClekfQgqgFoJ9xa28L8EXMnt7NillYN8+PAbgOe1uAjzE7tZsFUQtA6Li1twUGGbN2s9Ahz48BaJC9LTC0oLWbBVELQK5xa28LZByzdrPQF54fA7Au9rZAjjE7tZsFUQvAIOPW3hYIHbN2s9BTnh8D0BJ7WyBq0NrNgqgFgE/j1t4WCBCzdrMQgefHAHTB3hboc8xO7WZB1ALACnFrbwv0ImbtZiEgz48B6AF7W6DroLWbBVELAM3Erb0t0GLM2s1CdJ4fA9A39rZAGzE7tZsFUQsALcStvS3QaMzazUJmPD8GoOfsbYGmgtZuFkQtAHQbt/a2wBVi1m4Wcub5MQCR2NsCq8Ts1G4WRC0A9Dhu7W2BM2PWbhYGxPNjAAKztwU+D1q7WRC1ABAzbg/ub/y67SxgqDFrNwtD5fkxALmYjorih63N4+/tbWFQMTu1mwVRCwCZxe3o2dbm8TfFsnpobwvZxqzdLJBS8vwYgHx9a28LuQat3SwgagEYDHtbyCdm7WaBL3l+DMAQ2NtC7Jid2s0CohYA7G0hWszazQIX8vwYgCGyt4XeB63dLCBqAeAC9rbQv5i1mwVW4/kxAENnbwv9iNmp3SwgagHgWnFrbwsdxKzdLHAtnh8DwKfsbaG1oLWbBUQtAKyJvS2sL2afz2azn3+xmwWa4PkxAJzP3haajdnpx91s7UAAUQsA7cWtvS1cI2Y/7GZ3nAbQNM+PAeDy7G1h5aD9ZDcLIGoBoHv2tnBxzNrNAu3w/BgArsbeFs6O2andLCBqASBU3Nrbgt0s0BXPjwGgGfa2DDho7WYBUQsAmbC3ZUgxazcLdM/zYwBonr0tucfs1G4WELUAMIi4tbclq5i1mwV6x/NjAFg/e1syCFq7WUDUAsDA2dsSMWbtZoF+8/wYANplb0uUmJ3azQKiFgD4g7i1t6WXMWs3C4Ti+TEAdMvelh4Frd0sIGoBgCuxt6XLmLWbBeLy/BgA+sPelrZjdmo3C4haAGANcWtvy1pj1m4WyIbnxwDQX/a2rCFo7WYBUQsAtMreliZi1m4WyJPnxwAQg70tV43Zqd0sIGoBgB7Frb0tl4pZu1lgEDw/BoCY7G35g6C1mwVELQAQgr0tp2PWbhYYHs+PASA+e1sxO7WbBUQtAJBB3NrbDixm7WaBwfP8GADyY287iKC1mwUQtQCQtfd72+82fnvkLHKKWbtZgNM8PwaAvE2LotrZ2jye29uGj9mp3SyAqAWAwcbt+73tm61iuXxgbxsqZu1mAf6A58cAMCj1zN42UtDazQKIWgDgrLi1t+11zNrNAlyW58cAMFz2tv2L2andLICoBQBWjFt7285j1m4W4Io8PwYATtjbdhO0drMAohYAaDJu7W1biVm7WYAmeH4MAJzF3nZ9MTu1mwUQtQBAS3Frb9tYzNrNAqyB58cAwCXY214vaO1mAUQtANCHuLW3XSlmn89ms58O7WYB1sfzYwBgVfa2F8fs9ONuFgBRCwD0Mm7tbb+I2ZspjR+llLb98QBoh+fHAMA12du+D9oPu1lBCyBqAYCIcTvIva3dLEC3PD8GAJo0mL2t3SxAP7iphYb8eDCZF3X1INVp4TQAft/bHuT2JHk2e35zNvvph5OnxoIWQNRCPnb3J7tFVd2tU/3UaQCklNve1m4WQNRC/mFbThY/vvpqu1hWt+tU7TkRgJSi723tZgFELQw0bifzIqV7niQDpJQ+7m0P728czYPE7HQ2++kgpfFBSmnqRwggamF4cfvq1ou9/Vu37W0BPsZt3/e2drMAohb4PG7tbQE+08+9rd0sgKgFzgtbe1uAs+K2F3tbu1kAUQusFLf2tgCndLa3tZsFELXAVePW3hbgi7hta29rNwsgaoGm4tbeFuAz693b2s0CiFqg6bC1twU4K27n9Xh0cH/j10bi8+Spsd0sgKgF1hu39rYAp0xHqfhLQ7/WLNnNAohaoIW4tbcFAABRC+Hj1t4WAABELYQOW3tbAAAQtZBH3NrbAgCAqIXIcWtvCwAAohbCx629LQAAohYIHbb2tgAAiFogj7idzIuiuutJMgAAohaIGbcvJ6W9LQAAohaIHbcne9uiqB47DQAARC0QL2zLyWL35WTH3hYAAFELhI5be1sAAEQtEDtu7W0BABC1QPi4tbcFAEDUAqHD1t4WAABRC+QQt/a2AACIWiB23NrbAgAgaoHwcWtvCwCAqAVCh629LQAAohbIIW7tbQEAELVA7Li1twUAQNQC4ePW3hYAAFELhA5be1sAAEQtkEPc2tsCACBqgdhxa28LAICoBcLHrb0tAACiFggdtva2AACIWiCHuLW3BQBA1AKx49beFgAAUQuEj1t7WwAARC0QOmztbQEAELVADnFrbwsAgKgFYsetvS0AAKIWCB+39rYAAIhaIHTY2tsCACBqgRzi1t4WAABRC8SOW3tbAABELRA+bu1tAQAQtUDosLW3BQBA1AI5xK29LQAAohaIHbf2tgAAiFogfNza2wIAIGqB0GFrbwsAIGodAZBD3NrbAgCIWoDYcWtvCwAgagHCx629LQCAqAUIHbb2tgAAohYgh7i1twUAELUAsePW3hYAQNQChI9be1sAAFELEDps7W0BAEQtQA5xa28LACBqAWLHrb0tAICoBQgft/a2AACiFiB02NrbAgCIWoAc4tbeFgBA1ALEjlt7WwAAUQsQPm7tbQEARC1A6LC1twUAELUAOcStvS0AgKgFiB239rYAAKIWIHzc2tsCAIhagNBha28LACBqAXKIW3tbAABRCxA7bu1tAQBELUD4uN2f7BbVv9+xtwUAELUAMcO2/NNbe1sAAFELEDxuT/a2y3/e8SQZAEDUAgSN2/96bW8LACBqAWLHrb0tAICoBQgdtva2AACiFiB+3NrbAgCIWoDwcWtvCwAgagGix629LQCAqAUIHbb2tgAAohYgftza2wIAiFqA8HFrbwsAIGoBosetvS0AgKgFCB229rYAAKIWIH7c2tsCAKIWgPBxa28LAIhaAKLH7cne1kkAAKIWgJhhW/7prVMAAEQtAAAAiFoAAAAQtQAAACBqAQAAELUAAAAgagEAAEDUAgAAIGoBAABA1AIAAICoBaALRb18mOq0cBIAjdtNafnCMYCoBWCdX1z7f35SVNXdOlV7TgOgEWVKy7tl+fWDsrz31nHA9d1wBAD8YdiWk0VKaT6fHe1U47RTpNGWUwFY2SKl5cOyvOd2FhrmphaAS8ftj68m86KuHniSDHBpb1OqH6e0vCNoYT3c1AKwWtzuT3ZTSrvzjaN5nUaPUpGmTgXg7L8yT25nPTOGNXJTC8CV49beFuBMpd0stMdNLQBXD1t7W4DTFnaz0D43tQA0Erf2tsCA2c1Ch9zUAtBc3NrbAgP8q89uFrrlphaAtcStvS2QudJuFvrBTS0A6wlbe1sgT4uUlg/K8l7pKKAf3NQCsPa4tbcFMnB6NytooUfc1ALQTtza2wJh1U9TqnY8M4Z+clMLQOtxa28LBFG+381+sy1oob/c1ALQftja2wL9trCbhTjc1ALQadza2wI9YjcLAbmpBaD7uLW3BTpnNwtRuakFoFdxa28LtKy0m4XY3NQC0K+wtbcF2rGwm4U8uKkFoLdxa28LrIHdLIhaAIZiPjuadh63+5Pdvf1bt8UtcH3105SWt8vyG9tZELUADOLzbzw6/G7jt0d9+L3Y2wLXUNrNgqgFYKCKotrZ2jw+vL9xNO88bD88SV5Wt8UtcAmL9zH79V1PjUHUAjBs01Exera1eXw4n/3ff/cmbj1JBs5mNwuiFgDOjtt6/G+/bG2+eWZvC/ST3SyIWgC4+KNx/mFvO58d3uxD3NrbwuCVdrMgagFgJUVR7dTj//jF3hbo0MJuFkQtAFyHvS3QBbtZQNQC0Gzc2tsC7bCbBUQtAOv72LS3BdaltJsFRC0ArbC3BRq0sJsFRC0AXbC3Ba7DbhYQtQD0I27tbYHV2M0CohaA/n2k9nRvWz/1s4HeKN/fzNrNAqIWgJ7q3972q217W+jc4tRu9rXjAEQtAH3Xz71tSvc8SYZWvU2pflyWX9+2mwVELQAh47ZXe9tXt17Y20JbPu5mnQUgagGI/nFrbwvDUdrNAqIWgCzZ20LWFnazgKgFYAjsbSEvdrOAqAVgmHFrbwvR2c0CohYAH8X2thBPaTcLiFoAOMXeFkJY2M0CohYAzmdvC/1kNwuIWgBYJW7tbaEv7GYBUQsAV/2YtreF7pR2s4CoBYAG2NtCqxZ2s4CoBYDm2dvCetnNAqIWANqIW3tbaJrdLCBqAaDtj3B7W7i+0m4WELUA0CF7W7iShd0sIGoBoD/sbeFy7GYBUQsAfY5be1s4j90sIGoBIMrHu70tfFTazQKiFgACsrdl4BZ2s4CoBYD47G0ZGrtZQNQCQI5xa29L/uxmAVELALl/9NvbkqPyJGbtZgFRCwBDYG9LJhandrMLxwGIWgAYFntbonqbUnpoNwuIWgAgJXtbQvmwm/36ibMARC0AcDoWTu1texC39rZ8qrSbBUQtAHCh93vb0YG9LT2xsJsFRC0AsKrf97Z/nR3N+hG3k3lRVHc9SR4Mu1lA1DoCALh+3I7Ho4Pe7G1fTkp72yGwmwUQtQDQbGT0cm9bFNVjP5uslHazAKIWANamb3vb3ZeTHXvbLCzsZgFELQC0xd6WptjNAohaAOgubu1tuTq7WQBRCwD9iBN7W1ZR2s0CiFoA6B17Wy6wsJsFELUA0Hf2tnzObhZA1AJAvLi1t8VuFkDUAkD0qLG3HabSbhZA1AJANuxtB2NhNwsgagEgV/a2+bKbBRC1ADCcuLW3zYndLICoBYBhxpC9bWyl3SyAqAWAwbO3DWdhNwsgagGAT9nb9p/dLICoBQAuilt72z6qH9vNAohaAODyEWVv2w/lyW52x24WQNQCACuyt+1K/dpuFkDUAgDNsLdtz8lu9ps7drMAohYAaDhu7W3XyW4WQNQCAG3El71ts0q7WQBRCwC0zN722v84YDcLIGoBgI7Z267ObhZA1AIAfYtbe9vLsJsFELUAQI/Z256jtJsFELUAQBD2tr9Hvt0sgKgFAIIa8t7WbhZA1AIAucTtsPa2drMAuSgcAQDn2do8rp3CMNX1aGdUvdvbLSeLrn8v89k/bqb0z+lu+Z+vr/trzWY/z1J6t/DMGEDUAiBqyd+iqqvHf9uf7DoKAEQtAKKWsHG7XFYP/l5OSkcBQN/Y1AIAF+nV3hYATnNTC8C53NRylj7tbQHATS0AsJI+/f+2AOCmFoBzuanlEhbLlB7+/dWtF44CgC64qQUArmM6Tum5vS0AXXFTC8C53NSy+pfF6Enx7t1Te1sA2uKmFgBoTl1t29sC0CY3tQCcy00t12RvC8DauakFANbF3haAtXNTC8C53NTS7FeHvS0AzXNTCwC0w94WgDVwUwvAudzUskb2tgA0wk0tANAFe1sAGuGmFoBzuamlvS8Se1sArsZNLQDQPXtbAK7ITS0A53JTS0fsbQG4NDe1AEDf2NsCcGluagE4l5ta+vG1Ym8LwPluOAIAoNfqarsejW6mlB44DAA+5/kxAAAAohYAAABELQAAAIhaAAAARC0AAACIWgAAABC1AAAAIGoBAAAQtQAAACBqAQAAQNQCAAAgagEAAEDUAgAAgKgFAAAAUQsAAICoBQAAAFELAAAAohYAAABRCwAAAKIWAAAARC0AAACIWgAAAEQtAAAAiFoAAAAQtQAAAIhaAAAAELUAAAAgagEAAEDUAgAAIGoBAABA1AIAAICoBQAAQNQCAACAqAUAAABRCwAAAKIWAAAAUQsAAACiFgAAAEQtAAAAohYAAABELQAAAIhaAAAAELUAAACIWgAAABC1AAAAIGoBAAAQtQAAACBqAQAAQNQCAACAqAUAAEDUAgAAgKgFAAAAUQsAAACiFgAAAFELAAAAohYAAABELQAAAKIWAAAARC0AAACIWgAAABC1AAAAiFoAAAAQtQAAACBqAQAAELUAAAAgagEAAEDUAgAAgKgFAABA1AIAAICoBQAAAFELAACAqAUAAABRCwAAAKIWAAAARC0AAACiFgAAAEQtAAAAiFoAAABELQAAAIhaAAAAELUAAAAgagEAABC1AAAAIGoBAABA1AIAACBqAQAAQNQCAACAqAUAAABRCwAAgKgFAAAAUQsAAACiFgAAAFELAF+q08IhAACiFoCQ9vZv3S6K6nGqi7dOAwAQtQCEs/tyslNUyzt1qvacBgAgagGIF7blZPHjq8m8WFa3U0qvnQgAIGoBCBm3e69u3Snq6oG9LQAgagGIGbf7k117WwBA1AIQO27tbQEAUQtA6LC1twUARC0AOcStvS0AIGoBiB239rYAgKgFIHzc2tsCAKIWgNBha28LAIhaAHKIW3tbAEDUAhA7bu1tAQBRC0D4uLW3BQBELQChw9beFgAQtQDkELf2tgCAqAUgdtza2wIAohaA8HFrbwsAiFoAQoetvS0AIGoByCFu7W0BAFELQOy4tbcFAEQtAOHj1t4WABC1AIQOW3tbAEDUApBD3NrbAgCiFoDYcWtvCwCiFgDCx629LQCIWgAIHbaf7G3r0okAgKgFgJBxu/fqq7v2tgAgagEgbtx+srcVtwAgagEgYty+nOwUVXXX3hYARC0AxAxbe1sAELUAkEPc2tsCgKgFgNhxa28LAKIWAMLHrb0tAIhaAAgdtva2ACBqASCHuLW3BQBRCwCx49beFgBELQCEj1t7WwAQtQAQOmztbQFA1AJADnFrbwsAohYAYsetvS0AiFoACB+39rYAIGoBIHTY2tsCgKgFgBzi1t4WAEQtAMSOW3tbABC1ABA+bu1tAUDUAkDosLW3BQBRCwA5xK29LQCIWgCIHbf2tgAgagEgfNza2wKAqAWA0GFrbwsAohYAcohbe1sAELUAEDtu7W0BQNQCQPi4tbcFAFELAKHD1t4WAEQtAOQQt/a2ACBqASB23NrbAoCoBYDwcWtvCwCiFgBCh629LQCIWgDIIW7tbQFA1AJA7Li1twUAUQsA4ePW3hYAUQsAhA5be1sARC0AkEPc2tsCIGoBgNhxa28LgKgFAMLHrb0tAKIWAAgdtva2AIhaACCHuLW3BUDUAgCx49beFgBRCwCEj1t7WwBELQAQOmztbQEQtQBADnFrbwuAqAUAYsetvS0AohYACB+39rYAiFoAIHTY2tsCIGoBgBzi1t4WAFELAMSOW3tbAEQtABA+bu1tARC1AEDosLW3BUDUAgA5xK29LQCiFgCIHbf2tgCIWgAgfNza2wIgagGA0GFrbwuAqAUAcohbe1sARC0AEDtu7W0BELUAQPi4tbcFQNQCAKHD1t4WAFELAOQQt/a2AIhaACB23H7Y29bLh+IWAFELAASN2z8/sbcFQNQCAHHD9tO97QsnAoCoBQBCxu3eq6/u2dsCAAAQ3nzj/7fnG0c7TgIAAAAAAAAAAAAAAAAAAAAAAAAAAAAAAAAAAAAAAAAAAAAAAAAAAAAAAAAAAAAAAAAAAAAAAAAAAAAAAAAAAAAAAAAAAAAAAAAAAAAAAAAAAAAAAAAAAAAAAAAAAAAAAAAAAAAAAAAAAAAAAAAAAAAAAAAAAAAAAAAAAAAAAAAAAAAAAAAAAAAAAAAAAAAAAAAAAAAAAAAAAAAAAAAAAAAAAAAAAAAAAAAAAAAAAAAAAAAAAAAAAAAAAAAAAAAAAAAAAAAAAAAAAAAAAAAAAAAAAAAAAAAAAAAAgBb8C70HhvqxspEsAAAAAElFTkSuQmCC;" parent="TfanE9FAZFEMDZ-ole27-1" vertex="1">
          <mxGeometry x="709.37" y="489.49" width="201.26" height="151" as="geometry" />
        </mxCell>
        <mxCell id="jO-7Yq6EXqsvsZqchOJK-37" value="" style="group" parent="TfanE9FAZFEMDZ-ole27-1" vertex="1" connectable="0">
          <mxGeometry x="1250" y="440" width="335" height="230" as="geometry" />
        </mxCell>
        <mxCell id="noWVmdPfiti3UDOHxXEt-23" value="" style="group" vertex="1" connectable="0" parent="jO-7Yq6EXqsvsZqchOJK-37">
          <mxGeometry width="335" height="230" as="geometry" />
        </mxCell>
        <mxCell id="noWVmdPfiti3UDOHxXEt-24" value="" style="group" vertex="1" connectable="0" parent="noWVmdPfiti3UDOHxXEt-23">
          <mxGeometry width="335" height="230" as="geometry" />
        </mxCell>
        <mxCell id="TfanE9FAZFEMDZ-ole27-35" value="" style="rounded=0;whiteSpace=wrap;html=1;" parent="noWVmdPfiti3UDOHxXEt-24" vertex="1">
          <mxGeometry width="335" height="230" as="geometry" />
        </mxCell>
        <mxCell id="TfanE9FAZFEMDZ-ole27-36" value="Azure Data Lake Storage Gen 2&lt;div&gt;Storage account&lt;/div&gt;" style="image;aspect=fixed;html=1;points=[];align=left;fontSize=15;image=img/lib/azure2/storage/Storage_Accounts.svg;labelPosition=right;verticalLabelPosition=middle;verticalAlign=middle;fontStyle=1" parent="noWVmdPfiti3UDOHxXEt-24" vertex="1">
          <mxGeometry x="7.976190476190476" y="9.998292682926827" width="50.580720092915215" height="40.46457607433218" as="geometry" />
        </mxCell>
        <mxCell id="jO-7Yq6EXqsvsZqchOJK-36" value="" style="group" parent="noWVmdPfiti3UDOHxXEt-24" vertex="1" connectable="0">
          <mxGeometry x="87.73809523809524" y="87.75" width="119.64285714285715" height="54.5" as="geometry" />
        </mxCell>
        <mxCell id="jO-7Yq6EXqsvsZqchOJK-35" value="" style="rounded=0;whiteSpace=wrap;html=1;" parent="jO-7Yq6EXqsvsZqchOJK-36" vertex="1">
          <mxGeometry width="119.64285714285715" height="54.5" as="geometry" />
        </mxCell>
        <mxCell id="noWVmdPfiti3UDOHxXEt-17" value="" style="group" vertex="1" connectable="0" parent="noWVmdPfiti3UDOHxXEt-24">
          <mxGeometry x="94.91666666666667" y="98" width="119.64285714285715" height="54.5" as="geometry" />
        </mxCell>
        <mxCell id="noWVmdPfiti3UDOHxXEt-18" value="" style="rounded=0;whiteSpace=wrap;html=1;" vertex="1" parent="noWVmdPfiti3UDOHxXEt-17">
          <mxGeometry width="119.64285714285715" height="54.5" as="geometry" />
        </mxCell>
        <mxCell id="noWVmdPfiti3UDOHxXEt-19" value="" style="group" vertex="1" connectable="0" parent="noWVmdPfiti3UDOHxXEt-24">
          <mxGeometry x="102.89285714285715" y="108" width="119.64285714285715" height="54.5" as="geometry" />
        </mxCell>
        <mxCell id="noWVmdPfiti3UDOHxXEt-20" value="" style="rounded=0;whiteSpace=wrap;html=1;" vertex="1" parent="noWVmdPfiti3UDOHxXEt-19">
          <mxGeometry width="119.64285714285715" height="54.5" as="geometry" />
        </mxCell>
        <mxCell id="noWVmdPfiti3UDOHxXEt-21" value="" style="group" vertex="1" connectable="0" parent="noWVmdPfiti3UDOHxXEt-24">
          <mxGeometry x="110.86904761904762" y="118" width="119.64285714285715" height="54.5" as="geometry" />
        </mxCell>
        <mxCell id="noWVmdPfiti3UDOHxXEt-22" value="Container N" style="rounded=0;whiteSpace=wrap;html=1;" vertex="1" parent="noWVmdPfiti3UDOHxXEt-21">
          <mxGeometry width="119.64285714285715" height="54.5" as="geometry" />
        </mxCell>
        <mxCell id="noWVmdPfiti3UDOHxXEt-26" value="" style="aspect=fixed;sketch=0;html=1;dashed=0;whitespace=wrap;fillColor=#2875E2;strokeColor=#ffffff;points=[[0.005,0.63,0],[0.1,0.2,0],[0.9,0.2,0],[0.5,0,0],[0.995,0.63,0],[0.72,0.99,0],[0.5,1,0],[0.28,0.99,0]];shape=mxgraph.kubernetes.icon2;kubernetesLabel=1;prIcon=role" vertex="1" parent="TfanE9FAZFEMDZ-ole27-1">
          <mxGeometry x="1550" y="725" width="50" height="48" as="geometry" />
        </mxCell>
        <mxCell id="noWVmdPfiti3UDOHxXEt-30" style="edgeStyle=orthogonalEdgeStyle;rounded=0;orthogonalLoop=1;jettySize=auto;html=1;exitX=0.5;exitY=0;exitDx=0;exitDy=0;exitPerimeter=0;entryX=0.5;entryY=1;entryDx=0;entryDy=0;" edge="1" parent="TfanE9FAZFEMDZ-ole27-1" source="noWVmdPfiti3UDOHxXEt-28" target="TfanE9FAZFEMDZ-ole27-35">
          <mxGeometry relative="1" as="geometry" />
        </mxCell>
        <mxCell id="noWVmdPfiti3UDOHxXEt-31" value="HAS SCOPE" style="edgeLabel;html=1;align=center;verticalAlign=middle;resizable=0;points=[];" vertex="1" connectable="0" parent="noWVmdPfiti3UDOHxXEt-30">
          <mxGeometry x="0.1062" relative="1" as="geometry">
            <mxPoint as="offset" />
          </mxGeometry>
        </mxCell>
        <mxCell id="noWVmdPfiti3UDOHxXEt-28" value="Role assignment" style="aspect=fixed;sketch=0;html=1;dashed=0;whitespace=wrap;fillColor=#2875E2;strokeColor=#ffffff;points=[[0.005,0.63,0],[0.1,0.2,0],[0.9,0.2,0],[0.5,0,0],[0.995,0.63,0],[0.72,0.99,0],[0.5,1,0],[0.28,0.99,0]];shape=mxgraph.kubernetes.icon2;prIcon=c_role;labelPosition=center;verticalLabelPosition=bottom;align=center;verticalAlign=top;fontStyle=1" vertex="1" parent="TfanE9FAZFEMDZ-ole27-1">
          <mxGeometry x="1392.5" y="725" width="50" height="48" as="geometry" />
        </mxCell>
        <mxCell id="noWVmdPfiti3UDOHxXEt-29" style="edgeStyle=orthogonalEdgeStyle;rounded=0;orthogonalLoop=1;jettySize=auto;html=1;exitX=0.995;exitY=0.63;exitDx=0;exitDy=0;exitPerimeter=0;entryX=0.005;entryY=0.63;entryDx=0;entryDy=0;entryPerimeter=0;" edge="1" parent="TfanE9FAZFEMDZ-ole27-1" source="noWVmdPfiti3UDOHxXEt-28" target="noWVmdPfiti3UDOHxXEt-26">
          <mxGeometry relative="1" as="geometry" />
        </mxCell>
        <mxCell id="noWVmdPfiti3UDOHxXEt-32" style="edgeStyle=orthogonalEdgeStyle;rounded=0;orthogonalLoop=1;jettySize=auto;html=1;exitX=1;exitY=0.5;exitDx=0;exitDy=0;entryX=0.005;entryY=0.63;entryDx=0;entryDy=0;entryPerimeter=0;" edge="1" parent="TfanE9FAZFEMDZ-ole27-1" source="TfanE9FAZFEMDZ-ole27-4" target="noWVmdPfiti3UDOHxXEt-28">
          <mxGeometry relative="1" as="geometry">
            <Array as="points">
              <mxPoint x="1150" y="555" />
              <mxPoint x="1150" y="755" />
            </Array>
          </mxGeometry>
        </mxCell>
        <mxCell id="noWVmdPfiti3UDOHxXEt-33" value="PLAN" style="edgeLabel;html=1;align=center;verticalAlign=middle;resizable=0;points=[];fontStyle=1" vertex="1" connectable="0" parent="noWVmdPfiti3UDOHxXEt-32">
          <mxGeometry x="-0.7149" relative="1" as="geometry">
            <mxPoint as="offset" />
          </mxGeometry>
        </mxCell>
      </root>
    </mxGraphModel>
  </diagram>
  <diagram name="Provisioning" id="7YjIDMKq_7zBUn6FgTSi">
    <mxGraphModel dx="1709" dy="999" grid="1" gridSize="10" guides="1" tooltips="1" connect="1" arrows="1" fold="1" page="1" pageScale="1" pageWidth="850" pageHeight="1100" math="0" shadow="0">
      <root>
        <mxCell id="tQHMTcdeYaFuNHWwaCvj-0" />
        <mxCell id="tQHMTcdeYaFuNHWwaCvj-1" parent="tQHMTcdeYaFuNHWwaCvj-0" />
        <mxCell id="tQHMTcdeYaFuNHWwaCvj-2" value="" style="rounded=0;whiteSpace=wrap;html=1;glass=0;shadow=1;textShadow=1;" vertex="1" parent="tQHMTcdeYaFuNHWwaCvj-1">
          <mxGeometry x="1170" y="275" width="480" height="550" as="geometry" />
        </mxCell>
        <mxCell id="tQHMTcdeYaFuNHWwaCvj-3" value="" style="rounded=1;whiteSpace=wrap;html=1;arcSize=3;fillColor=#f5f5f5;fontColor=#333333;strokeColor=#666666;fontSize=13;" vertex="1" parent="tQHMTcdeYaFuNHWwaCvj-1">
          <mxGeometry x="1199" y="365" width="421" height="320" as="geometry" />
        </mxCell>
        <mxCell id="tQHMTcdeYaFuNHWwaCvj-4" style="edgeStyle=orthogonalEdgeStyle;rounded=0;orthogonalLoop=1;jettySize=auto;html=1;exitX=1;exitY=0.5;exitDx=0;exitDy=0;entryX=0;entryY=0.5;entryDx=0;entryDy=0;" edge="1" parent="tQHMTcdeYaFuNHWwaCvj-1" source="tQHMTcdeYaFuNHWwaCvj-5" target="tQHMTcdeYaFuNHWwaCvj-32">
          <mxGeometry relative="1" as="geometry" />
        </mxCell>
        <mxCell id="tQHMTcdeYaFuNHWwaCvj-5" value="Terraform Specific Provisioner" style="rounded=0;whiteSpace=wrap;html=1;fontStyle=1;strokeWidth=2;fontSize=13;verticalAlign=top;fillColor=#dae8fc;strokeColor=#6c8ebf;" vertex="1" parent="tQHMTcdeYaFuNHWwaCvj-1">
          <mxGeometry x="650" y="455" width="320" height="200" as="geometry" />
        </mxCell>
        <mxCell id="tQHMTcdeYaFuNHWwaCvj-6" style="edgeStyle=orthogonalEdgeStyle;rounded=0;orthogonalLoop=1;jettySize=auto;html=1;fontSize=13;" edge="1" parent="tQHMTcdeYaFuNHWwaCvj-1" source="tQHMTcdeYaFuNHWwaCvj-22" target="tQHMTcdeYaFuNHWwaCvj-5">
          <mxGeometry relative="1" as="geometry">
            <mxPoint x="650" y="465" as="targetPoint" />
            <mxPoint x="410" y="464.4999999999998" as="sourcePoint" />
            <Array as="points">
              <mxPoint x="600" y="566" />
              <mxPoint x="600" y="566" />
            </Array>
          </mxGeometry>
        </mxCell>
        <mxCell id="tQHMTcdeYaFuNHWwaCvj-7" value="Provisioning request" style="edgeLabel;html=1;align=center;verticalAlign=middle;resizable=0;points=[];fontSize=13;" vertex="1" connectable="0" parent="tQHMTcdeYaFuNHWwaCvj-6">
          <mxGeometry x="0.0837" y="2" relative="1" as="geometry">
            <mxPoint x="-11" y="-9" as="offset" />
          </mxGeometry>
        </mxCell>
        <mxCell id="tQHMTcdeYaFuNHWwaCvj-8" value="A&lt;br style=&quot;font-size: 13px;&quot;&gt;P&lt;br style=&quot;font-size: 13px;&quot;&gt;I" style="rounded=0;whiteSpace=wrap;html=1;fontStyle=1;strokeWidth=2;fontSize=13;fillColor=#dae8fc;strokeColor=#6c8ebf;" vertex="1" parent="tQHMTcdeYaFuNHWwaCvj-1">
          <mxGeometry x="650" y="425" width="25" height="260" as="geometry" />
        </mxCell>
        <mxCell id="tQHMTcdeYaFuNHWwaCvj-9" value="" style="group;fontSize=13;" vertex="1" connectable="0" parent="tQHMTcdeYaFuNHWwaCvj-1">
          <mxGeometry x="530" y="495" width="40" height="43" as="geometry" />
        </mxCell>
        <mxCell id="tQHMTcdeYaFuNHWwaCvj-10" value="" style="shape=note;whiteSpace=wrap;html=1;backgroundOutline=1;darkOpacity=0.05;size=13;fontSize=13;" vertex="1" parent="tQHMTcdeYaFuNHWwaCvj-9">
          <mxGeometry width="40" height="43" as="geometry" />
        </mxCell>
        <mxCell id="tQHMTcdeYaFuNHWwaCvj-11" value="" style="endArrow=none;html=1;rounded=0;fontSize=13;" edge="1" parent="tQHMTcdeYaFuNHWwaCvj-9">
          <mxGeometry width="50" height="50" relative="1" as="geometry">
            <mxPoint x="3.333333333333334" y="18.305714285714295" as="sourcePoint" />
            <mxPoint x="36.66666666666667" y="18.305714285714295" as="targetPoint" />
          </mxGeometry>
        </mxCell>
        <mxCell id="tQHMTcdeYaFuNHWwaCvj-12" value="" style="endArrow=none;html=1;rounded=0;fontSize=13;" edge="1" parent="tQHMTcdeYaFuNHWwaCvj-9">
          <mxGeometry width="50" height="50" relative="1" as="geometry">
            <mxPoint x="3.333333333333334" y="24.571428571428573" as="sourcePoint" />
            <mxPoint x="36.66666666666667" y="24.571428571428573" as="targetPoint" />
          </mxGeometry>
        </mxCell>
        <mxCell id="tQHMTcdeYaFuNHWwaCvj-13" value="" style="endArrow=none;html=1;rounded=0;fontStyle=0;fontSize=13;" edge="1" parent="tQHMTcdeYaFuNHWwaCvj-9">
          <mxGeometry width="50" height="50" relative="1" as="geometry">
            <mxPoint x="3.333333333333334" y="30.71428571428571" as="sourcePoint" />
            <mxPoint x="36.66666666666667" y="30.71428571428571" as="targetPoint" />
          </mxGeometry>
        </mxCell>
        <mxCell id="tQHMTcdeYaFuNHWwaCvj-14" value="" style="endArrow=none;html=1;rounded=0;fontSize=13;" edge="1" parent="tQHMTcdeYaFuNHWwaCvj-9">
          <mxGeometry width="50" height="50" relative="1" as="geometry">
            <mxPoint x="3.333333333333334" y="36.85714285714286" as="sourcePoint" />
            <mxPoint x="36.66666666666667" y="36.85714285714286" as="targetPoint" />
          </mxGeometry>
        </mxCell>
        <mxCell id="tQHMTcdeYaFuNHWwaCvj-15" value="yaml descriptor" style="text;html=1;align=center;verticalAlign=middle;resizable=0;points=[];autosize=1;strokeColor=none;fillColor=none;fontSize=13;" vertex="1" parent="tQHMTcdeYaFuNHWwaCvj-1">
          <mxGeometry x="495" y="465" width="110" height="30" as="geometry" />
        </mxCell>
        <mxCell id="tQHMTcdeYaFuNHWwaCvj-16" style="edgeStyle=orthogonalEdgeStyle;shape=connector;curved=1;rounded=0;hachureGap=4;orthogonalLoop=1;jettySize=auto;html=1;entryX=0;entryY=0.5;entryDx=0;entryDy=0;labelBackgroundColor=default;strokeColor=default;fontFamily=Helvetica;fontSize=16;fontColor=default;endArrow=classic;" edge="1" parent="tQHMTcdeYaFuNHWwaCvj-1" source="tQHMTcdeYaFuNHWwaCvj-18" target="tQHMTcdeYaFuNHWwaCvj-21">
          <mxGeometry relative="1" as="geometry" />
        </mxCell>
        <mxCell id="tQHMTcdeYaFuNHWwaCvj-17" value="Deploy,&lt;br&gt;update DP" style="edgeLabel;html=1;align=center;verticalAlign=middle;resizable=0;points=[];fontSize=16;fontFamily=Helvetica;fontColor=default;" vertex="1" connectable="0" parent="tQHMTcdeYaFuNHWwaCvj-16">
          <mxGeometry x="-0.0027" y="-2" relative="1" as="geometry">
            <mxPoint x="2" y="-26" as="offset" />
          </mxGeometry>
        </mxCell>
        <mxCell id="tQHMTcdeYaFuNHWwaCvj-18" value="DP team" style="shape=umlActor;verticalLabelPosition=bottom;verticalAlign=top;html=1;outlineConnect=0;hachureGap=4;fontFamily=Helvetica;fontSize=16;fontColor=default;" vertex="1" parent="tQHMTcdeYaFuNHWwaCvj-1">
          <mxGeometry x="40" y="305.25" width="60" height="117.5" as="geometry" />
        </mxCell>
        <mxCell id="tQHMTcdeYaFuNHWwaCvj-19" value="" style="edgeStyle=orthogonalEdgeStyle;shape=connector;curved=1;rounded=0;hachureGap=4;orthogonalLoop=1;jettySize=auto;html=1;labelBackgroundColor=default;strokeColor=default;fontFamily=Helvetica;fontSize=16;fontColor=default;endArrow=classic;" edge="1" parent="tQHMTcdeYaFuNHWwaCvj-1" source="tQHMTcdeYaFuNHWwaCvj-21" target="tQHMTcdeYaFuNHWwaCvj-22">
          <mxGeometry relative="1" as="geometry" />
        </mxCell>
        <mxCell id="tQHMTcdeYaFuNHWwaCvj-20" value="Deploy,&lt;br&gt;update DP" style="edgeLabel;html=1;align=center;verticalAlign=middle;resizable=0;points=[];fontSize=16;fontFamily=Helvetica;fontColor=default;" vertex="1" connectable="0" parent="tQHMTcdeYaFuNHWwaCvj-19">
          <mxGeometry x="0.3239" relative="1" as="geometry">
            <mxPoint y="-24" as="offset" />
          </mxGeometry>
        </mxCell>
        <mxCell id="tQHMTcdeYaFuNHWwaCvj-21" value="" style="rounded=0;whiteSpace=wrap;html=1;hachureGap=4;fontFamily=Helvetica;fontSize=20;verticalAlign=middle;fillColor=#fff2cc;strokeColor=#d6b656;glass=0;" vertex="1" parent="tQHMTcdeYaFuNHWwaCvj-1">
          <mxGeometry x="230" y="304" width="200" height="120" as="geometry" />
        </mxCell>
        <mxCell id="tQHMTcdeYaFuNHWwaCvj-22" value="Provisioning Coordinator" style="whiteSpace=wrap;html=1;fontSize=20;fontFamily=Helvetica;fillColor=#fff2cc;strokeColor=#d6b656;rounded=0;hachureGap=4;glass=0;" vertex="1" parent="tQHMTcdeYaFuNHWwaCvj-1">
          <mxGeometry x="230" y="505.62" width="200" height="118.75" as="geometry" />
        </mxCell>
        <mxCell id="tQHMTcdeYaFuNHWwaCvj-23" value="" style="shape=image;verticalLabelPosition=bottom;labelBackgroundColor=default;verticalAlign=top;aspect=fixed;imageAspect=0;image=data:image/png,iVBORw0KGgoAAAANSUhEUgAABUgAAAD3CAYAAADPJr6lAAAACXBIWXMAAC4jAAAuIwF4pT92AAAgAElEQVR4nO3dDWyd5Z3n/dsvcV6c4KQYesIWbCbMUCpaG3V2mzIRNh0x7fOwTMxoZmiXleyUjlQ98gpn9lkRFkYxGlhAOzsx6pGekaZVbGn7UGZmi720O2VQi82klHbbSVwQlDZpYtomh3AgMYnz4tfV5fxPuOP45bzcL9f/ur4fKYLOtDn3uX18n/v63f///6qam5sLAACISz6bsfmLZqSxO9duwXGkLp/NNAdB0KXw0Icbu3PDFhwHAAAAAKVq+cEBAIAgCExAulvpiSAgBQAAgLfy2UyX5cUO/Y3duX4LjmNJBKQAAAAAAACAXqbYoc3io7e+oKHagmMAAAAAAAAAgFQQkAIAAAAAAADwFgEpAAAAAAAAAG8RkAIAAAAAAADwFgEpAAAAAAAAAG8RkAIAAAAAAADwFgEpAAAAAAAAAG8RkAIAAAAAAADwFgEpAAAAAAAAAG8RkAIAAAAAAADwFgEpAAAAAAAAAG8RkAIAAAAAAADwFgEpAAAAAAAAAG8RkAIAAAAAAADwFgEpAAAAAAAAAG8RkAIAAAAAAADwVi0/egAAAABanXnliaa5yVN3m8OfPT/eFsyc3zT/72eO3zg3dWbNwrc1N31m9cyJQ2vNv1evv2a2eu2V7y/21msamkcL/1697urB+X+pXfvj+lsf3seHBQAAtxCQAgAAALDexEsP9cxNn7l5bvL0DTPjR1rCQWe5Zk8frZ49fXTjYv/z6XdebQv9x4v/fvZfskF1/ebp6nWNp6vXX3Okqm7DkerVDSNVdRueXbd11xifJAAA9CEgBQAAAGAVE4aaatDZU7/aOns231BpEBq12YljtbMTxzYG77zaGgSB+dMRBMGesz/92lxNQ/O4qT41VaeEpgAA6EBACgAAACBV84HomeMdpjJ0+p1XF63o1GBu8lSVOX6pPjV/9pw/9NzZ6g3XHq1Zv3m4et2H/5LAFAAA+xCQAgAAAEjUxL7ee2bP5j8/896b7ZoD0WKY6teZE4e2TAXBliAI7jOBac3GG96s2fCRgfrbHuuz/x0AAOA+AlIAAAAAsTOh6Mz44V3Tx396s2lR9/WMS2A635p/7md/99e1mU/+suaKpr9f3/7kgxYcHgAAXiIgBQAAABALQtHlmZb8qbeGTXXprvM//+YDhKUAAKSDmxQAAAAAkTnzyhNNM6d+3Td9fP9nbdtcyWYLw9JV/+rW0ZpNv/0f6m99eJ/v5wYAgLgRkAIAAAComNloafrkoW4T8nE2K2PC0snDz7cGh5//56lfjZysverm/7H+M3u+pPk9AQBgMwJSAAAAAGUx1aKzZ97+i8mx4U5a6OMhu+Lfd/7gt75Yd137S9VXND1MVSkAANHiJgYAAABASebb6E8eGph8a/g2U+3I2YufOc/nDz7XFgTBP0/nXztU23hzF0EpAADRICAFAAAAUJSJlx/dNnPiF1+Z+s3LLQSj6ZmfVfrW8D/PvPvGr2oamv+6/rbH+nw9FwAARIGAFAAAAMCyTMXo1PED32W+qF0mx757bRAEe6aO/Wj3qn/1e1+u39b7jO/nBACAchCQAgAAAFgUrfQ6yJzSb0y/97PHaL0HAKB0BKQAAAAALnPqhe5nJw8/v51gVI+LrfcnfnGg9sqbOtZt3TXm+zkBAKAYBKQAAAAALpp46aGe84f+139lV3q9Jg8/3zr1m5cPz5z69dCGO7J3+34+AABYCTc9AAAAAOY3YJrO/e+/nzr6wwxnQ7/5Xe/f/IeO6eP7z9Rd2/6f2cgJAIClEZACAAAAnjv1nT8bZs6om2ZOHFp79sShPdMnD3Wvurr192m7BwDgcgSkAAAAgKcm9vXeMzn2wl4TovEZcJuZTzqd+8nh2XMnnlzf/uSDvp8PAADCCEgBAAAAD5mq0fMHn2vjZ+8PUyF87rWBXTPv/axr1TWf3ko1KQAAFxCQAgAAAB6hahRmzux0/nWqSQEAEASkAAAAgCdOvdD97OTh57czaxSFatLZidznaq+8qcOHatJ8NrMxCILWBf/n9iX+6yeDIDiw4P92oLE7dzKmwwPKls9mCp/jxT7jxRou/Pcau3PD/DTgGwJSAOrks5nmIAi6FB76MDcbAIA0nHnliaapoz94hR3qsdDk4edbZ04efGNu+tyO+m29z2g+QaEAtFWCokJoFNkoiXx2/ldoXMLTQoh6xPzhPg9xymczhc92s3y2zWe8JcKX3F34F/mcG2OFz7f8MZ/xk43duYUPDwD1CEgBaNQc/gJXhhtnAECiTEv9+V8M/ffZiWPc+2NRZtzCuYnjT89Njt+x/jN7vqThLEkY2i6BUeGfDQm9fEModN0eOqZAAqUD8meYqlOUI/T5Lny205oX3SR/Cq8/vwaTz/pI+LPe2J07wg8bmtVKKfZSbQU2M180g3z6PiAX0R5bjqcUjd25Xj1Hm4x8NtMjTwW16efL0Q75bKZLwmQsrTmfzdh8/aHqWIEFLZuVtLgVqjOCUGXSEa6pqMTp7+386vmD3/oiLfVYyXzL/etP3zd79r1PXnHnwC22nbAFgVF7xJVzUSoESttDYdKohKXDrGGxFKkQ7bL88x3WFg5u89nMWOFzTmAKjWrl5ltjJZb55ePL5VIdWqvq8tkMoVqI3ADuseaAijdO2G2VrhSfNmvRpOC6SUBqEXmwHG5xi/J3bNG/S6o0RiU8LVRqHOB7EysZ/5+fPzj11vAWThRKYVruT3z9986s3nLXTWnPJZWxSh1yT6MhMFpKi/y5X67pQ/L9Psi13G9yX9Eln/OkKqDjYu6rO+VP4cHAoHzOacmH9WrNB1WS/iZlP64m84XJF8olOiw6llKZY+/Tdcix0vqz5KEFAGfIwjzcvpnm4rywuA63co6FWjiHWXygwMwbnRz77oHpd17V2IkCC8y33L/xzMG56XP/Pum5pHLt7ZH7YW1r1GJtlz97JETqJyz1R2g/hS6HP+NB6N5lt9yz9Ln6Oc9nM3MWHIbtzOfA5sKU2wtziEyocX/KB1MOQjUhFYfbi/ov26mLn+UltAakVLoBUE0qOTqUtLeF2zjNsY/LPV2hKomZdx4y80Ynx17YawIu388FKmNm1p57/etPz02fbV3f/uSDcZ5OWct0SDCquVK0HC3SOWbC0pFQWMo13DFyj9GjfN1erqbQ53xIxrJRXAOrFALSYaUBKaHaBzRXjxotVARfoDzs5ksOgDr5bKZDvke1t7c1hFrb9lKV5B8Tjs4HWswbRUTm55K+NrArmJ28Ko7Nm2TmYk+hJRcXZzr25bMZc1/dy/VbP9kXoNfxatFSzFdQh6pK+3kgABtUBxc2yDEX33GFP5EWKU+Hzo22FtIe8kZF63kY4osNgBamisPMv85nM+a69awszrXP/lqoUJV0OJ/NDJsFmjyEg4NODz/wOOEo4mI2bzr1nT+LrFNIrkfm79tPOLqowgOvwvXbhbWed+RzbgLuvYSjiypUlR4xm6Zyj4K0VYdeX2vlF6HaBS6cB774L9B6HqgeBWA1c+Odz2Z6ZLHyoqOh6FLaZIF2RILhUnfYh8XMTvWmyo9wFHE6f/C5NrPxVyUvsSAwYiPJ4pjz9KI5b1KJCMvJQ9gDBKNFa5BNUwlKkSoXAlLvQzVpDXRhgbedi+E8NmgCgAiZbhMTCgZBcEIqFXxerBSqkvYXqkotOCZUYD4cff3p+ziHSMLUW8NbyglJqaSLRJOMTyEotZTcbwzKQ1jfZulGoRCUHuAzjjRcDEgVD8glVHOritbrimDFYfcI7fUAbCMVHKaF8zAtnItqCy+2uZ/Sh3AUaSglJCUYjUU4KPW+WMgWpvLRBHuebsAUtcJnfJiRikhS9YLXGlJ69n1vsycgdQfVowBQoVAw+iItnEVpCrXf09qmBOEo0rRSSEqLcSKapPV+mLEp6THnXj7ruz0a25OUNpnD2+vH20XaFgakzCFVRp4aunQh9v2JGwEpAJSJYLRi4RlgtLZZjHAUNlgsJKXFOBVtMjalnwdcyTJzzYMgGOazHrvdJoSmmhRxcyUg9TlUcy4cljZz7ygOu0cbu3NHLDgOAJ4KzRglGI1GQ6h90/fODusQjsIm4ZCUFuPUdfKAKxmy6WO/zDWnajQZLcwmRdwuCUhlhqDKNnuPb+BdfN/8LHXpV3rcANzQwYzR2Jj2zWeZAWYPwlHYyISk7+39xE9pMbZCA7Mb4yXndZj7jlQUPt99Hr53JGBhBWlAm70eMmvGxZk+BKS6DCs9bgBuoK0tfhdngNG+mZ7Tww88TjgK21TXb55e+4n7ds5OHL/NdBXxA7JGm1Tb9fh+IqIk6+8D3Huk7n55CMA9CSK1WECqNezwMVRztby8wbeKYMVh91hjd+6ABccBAIjfbllws2tywib29d5z/ufffMCrNw3r1V3/2QNrbrrnhvrbHuuTTkSzNhnnJ2cNU223hyApGtLavZ8qaWuYhwBUSiNSlwWkMktQ49M/70K1IAhcXqD49rPUGnazORMA+KWwa3IfC+5kTLz86LZzr3/96bnJU1U+vF/Yr6puw9yamzufuOLOgVvWbd01VjhgeWjeTkhqnTaZTcrDrTJJOLpX5cG7rTCXtNX3E4FoLFZBGiieKehNqCZPSlwu7fftC1zr+2X+KAD46X4WJfE788oTTZOH//GfCEdhi5pNW86uubnztvXtTz642CFJSEpbt30a5OFWr+8nolSEo9ZrkEpS7kdQsaUCUq1VYT6Faq6HwU2+XOQUh9201wOA30w16X4W3PGZOvqDV2ZOHFrr6vuDLquuaz+06d7vr6u/9eF9yx14Y3fOPEB/hB+vlXbTcl88wlE1CEkRiUUDUsVt9t6Eag7PHw3z4T0GbM4EAFCOBXcM3v925/6poz/MOPfGoNKaj33haw1/+I0bij32xu6ceXAywE/bSm10AKyMcFQdQlJUbKkK0kBx+OF8qOZBe32BLyMTmD8KANCOBXeETn9v51cnDz/PuUTqzLzRta1f/vz6z+z5UhnH0sPO9tZqkjDJx42OVyTfZX2WHyYuZ0LSfh7YolzLBaTMIbWXL6MEnK8IVhx2jzd25whIAQBhhZZ7XzpAYjG/Y/3Bb33RwbcGZebnjX7s3i/Ub+t9ppwjl53tO9i0yVomTHqWa/alZH02zG71arVI+E9IipItGZDKbMExhafUhzZ7n570uR4Ga31/hKMAgKXsNbvcc3ZKN78p09gLe9mUCWkz4ejqLXfdVG44WiCj2wjg7MY1W0ioNkg4ql4LFcAox3IVpAGbNdlHLtrbXX1/i3D9hkpr2E1ACgBYzv35bIY2txJNHT/wXTZlQtpWXfOpnAlH123dFUmxjHQdPcUP1mrz12zfT4KEaj6MsvNBZz6b6fH9JKA0rgakLodqvs2JaZE2B+doDrtprwcAFKGTNrfinR5+4PGpt4a3aDleuMnsVN/wR0ObowpHCxq7c8wjtV+nzyGpzGPttOBQEJ09zEZHKZYNSBu7c8NKZ8Y4G6p5GJAGDr9nre9ryIJjAADowCywIky8/Oi28z//5gPWHyicNh+OlrBTfRm6mEdqPS9DUskOqKB1E90sKNpKFaSB4ipSV0M1n9rrCwhI7UL1KACgFISkK5j61chzzB1FmhIIRwt7XPTyg7aejyFpP3NHndXCdQfFIiBVRMr+fdTm6KJKa9hNQAoAKBUh6RJOvdD97PQ7r3JekJokwtGCxu6cmfE4wk/bet6EpLLGbrPgUBAfM2PX9c2fEYEVA1KZNaixFcLFUM3XgDRw7b0rDruHGrtzJy04DgCAPoSkC5jW+snDz/vYHQRLmN3qkwpHQ2i118H5kFS+j2it9wO72mNFxVSQBlSRWoOA1B1a38+wBccAANCLkDSE1nqkyYSjZrf6pA+hsTt3hJZXNUxI6vIGyD201nvD7FPDdQfLKjYg1RqKOBOqScWhzxfv7Y4tppg/CgDwFSGp2bX+ezu/Sms90lJdv3nahKNR71ZfLFrtVdnrYkgqGzP1WHAoSE6P7/ceWJ7rFaQuhWrMzHAk8FYcdo/KE38AACrldUh65pUnms4f/NYXLTgUeKiqbsPc6t/e/u/TCkdDCKf06MtnM62Ovadeqke900D1OpZTVEAqMweHlJ5JV6pIfW6vL3AlJNb6PpjPAwCIUouvM8Gmjh/4Lq31SMvq3/mjJ+u39T6T9g9AdrV/JO3jQFEaXHqoJdWjnRYcCpJ3v/z8gcsUW0EaKK4iVR+qydO6JgsOJW2E3emivR4AEDUz386rkHTipYd6pt4a3mLBocBDq2/848H17U8+aNE7N7//aVeyojgNDu1H4PJcVayMKlIsyoeA1IVQjQv4BQ2Kd3+fpzjspr0eABCX+x3fBOQSU8d+tNuiw4FHVl3zqdyGO7J32/SOpVORsEKPFu0720sVLOMd/NZJFSkWU3RAKl9eowrPovpQjfb6S2g/F1oXgOxeDwCI014H59tdho2ZkBazKdOqaz691cYfQGN3rp8Nm1TRvrO975sf4wKK0HCZ2hJPifny2qPwNHZorYCVJxu013+AsDsdzB8FAMRt0ISk8lDeSZNjw8y8Qyos2ZRpOaaK9MUEXmc8CAIz+/Sk/LNgYTGAeZARfmhTGNvWlsAxamA2bTogc2S18b161FwHjsjn2+eg2Oxo3+fyPQdKV2pAOqg4INWK6tFLNcjiSd2XseKwe0zpzQ8AQJcmudd0ZVPGS5x6ofvZ2Yljpd57AxUzc0dt2JRpOY3dObMB0EjEAeS4BJ8HCv8sMQxZtMBGWrRb5VpV+KdvQVODFFCoqvyX9ViLBYcSt7HQZ//ASp996eBolp9nhyfnqEHeK4VAuKikmzQzgzCfzYwq/IVRG6pR+r2oLqVP/ticCQCA5bXls5nexu6cUzMJz7zyRNPk4ee3W3Ao8EztVR8/advc0WWYe/zDFf4dI3LvOhzX2k+CpuFw1akETO3yHnwIlwKZR6rteu1y8dGYhH39pe4dIb8rB+R3p1ceAnTI59nlqukeAlKElbJJU4HWsERd0OjRE65Saf1i0xp2E5ACAJK027V5pDMnDw3MTZ6qsuBQ4JGqug1zq65tu0vLO5ZQZ6CM/6kp4NkRBMGmxu5ce2N3ri/pwhjzevK65tp1fRAEO5Xu31EqbddrF4uPTDC6o7E712zC6ig21jUPAcxsYPP7JJ/ncn4vNWhhsyaE+RSQagzVaK9fXJO2hZPisHvctDxZcBwAAL8MSgWLevPVo28N38bnF0mru/6zQ/W3PrxP2YkvthrRtM8/ZcIbE0pKmGPFLEETUIXC0lskXBq34NDioqICz8HiI/OZ2inBaGw/A/k8dzkclPo+kxYhJQek8jTO5gHfS1EXqhGQLkvbuaG9HgCA4jWVEJRYjepRpEFZa/1FRVSRmnXoI2ZeYmN3rieKark4SWVpl8x3fMTRoHS+1d6C41iJS/OtTXWyeTDQl9QLhoLS25XmQUshc8FF5VSQBlSRxk+qJtglcWkEpMkgIAUApOX+fDajfkFL9SiSpq21fhGLhW0mWHwk1EasaudpaVnudTgo3a2gVdmVgNSEo+1pPRyQ7sJWh6pJNRbSISbl7qRpSrjvV/hD6VBUjcCTjOXNzwux/alxoDvsNu31BKS69Yc3EEjAboVna8zy1jBGXMB3/bLRpqowpOD093Z+lepRJK3uuvaXFLbWXyQbA4d3tDeBYp/W60CYvAezCU6frEs1rqmX0m95COlCQFoIR1P9XZDX78pnM+Y+dW+axxKRDtmkCp4rKyA1rQL5bGZM2p80UROqEZAWxZyjxNoKKjxOjQhmlItzHtFi8tmMxoD0iGu7ZcMq46Eb7pOL3HybioXCnM1mhfdVSWiS+WAqf08nx4Y7LTgMeKS6fvP0hs/9rfogqPqKa/+/2dO5NcHs1OeVrN1KIgFTTz6b6Zf1jAudg235bKbDxgILKVjR/h07ZkM4GmbWGvls5qSE4w22HFcZoiikG0nweDcqnadrPsM2X89PlltBGkh4ovGmz/pQTS7g2y04FNt1EZDGiupRACjeiASg83/K3UFZ2ryaJTxtl39qXnREwbRuDia9K3WlTg8/8PjsxLFK7rWBktVd/wd/pf2szVdenzv5xbqmz4xeceeAc+FomFzX2vPZTOFBkPbrfZ+lawgXWqg7bKyiNoG4jMMZVvz5NYV0Gys5v7LjfyLkfL+Y1OtFqN/2wpRKbtoGlQakGkI1lwZIx8n6imDlYTcBKQAsbUyuk8NRVsvIYvlA+BosoWmH/HFpB95S9Gm7P5p++1++bMFhwCNmY6b17U8+qPUdn3nliaapoz94ZeroDzPmP0/95uUW839bt3WXSxvCLMpstiPtyv3Kr/NmnmOvhSGI9vX1UzY/JJQO4x7l7fbtrH9R7iZNgSwGNA6XblEwQJr2+uLZ/mWn9ct4yIU5TwAQsXHZlOB22SikJ4lWQtkF2Sw4TVB6vVkoObaDbDHmWzftP8wLJl5+dNv0O69uLOa/C0Rl1eZ/84jWkzmxr/eec288c7AQjhpmfu/smbf/It0jS45c61vlGq9ZjxSJ2MT29f9KrB8zI6O9dlpwKOWiSA3lB6RCa8Ju+4efgLR4tp8r2usBQL8xuek3oWiX7OCaCtM1IcGsWeztSHjmVdo0jNWZN3PiF1+x4DDgkVXXfCpXf9tjan5HwkxL/bnXv/70YiMppo796N+lenApMNd4ub5r3em+QWZH20RzQDqgpXDFVEKbQhsLDqUcBKTwNiC1NrSS6gjfZ42VYruFTyjDCEgBQC8TjO6QalHrdlA21Roy8+p2T4LS+dZNC45jRaY12PJDhGNqM//6TzS+o/e/3bn/3OtP32eqRRf7/8+cOLTWVJcmf2Tpkmq8dsUhqW1VpJor+rWty7q0dhpbcAxIWaUBqdZdrm0O1ageLZ2V50xx2D1Kez0Az5kbe9Oq2iqLVKuZilYJSnd40HpvY+vmJeY3mFki7AHisOq69kP1tz68T9vJHf+fnz84efj5FTfPmX7vZ48lc0R2KWzgZO7NFR6+bVWkWsOv8SRG+URJ1pEqHmYuJJsfwWMVBaTy4ddaQm1rEElAWjp+ltGyPgwAgBiNSDDaq+1hkYS5LsyvW46NrZuXmDn5yzstOhx4oPZDH31I27s04ejUW8NbivnvTud+8lvxH5GdlIek1j/QUsDajZmWI632Gh/YrvjABm6rtII0oM0+OrJLLe31pbP1SY/WJ1C01wPwkaka3WkqMc2cT63v34S6Mr/udoerSa1ddF/YhfuDTWaAuJmd6+u39T6j6USXEo4GslnT6eEHHo/3qOwlD+s0hqTWP9BSQGvHbqC0ilT7Zl6okM8BqY3hVZcFx6BRg20720rY3WTBoZRqVHMwAABlMovOdql4cIJsJNWquNNnOdYuumdOHPQ2xEE6tO1cX2o4WjDz3s+8XicpDklZ3/pLY05EBannKg5I5WKtcWMA60I12usrYtu503ozQPUoAN+MSDiqso1tOVJN2iHzVF1jZUA6/d4b3MshMdX1m6c17VxfbjhqmMpsU6Ed/VHpEQpJNW2AYzbXIyT1kNJxjFSQeq42ordvQpU2haeyw5ZASHHFoS0Iu6NBQArAJwON3TnnF25mnmo+mzHdAXstOJyomAfdXTZtojXx8qPbzI7bFhwKPFHX1D6g5Z2eeqH72XLD0YLZM2//RRAEX4r0wJQxoZNsJDOsaDRbD3sc+Eke0gJqRNFiHzCHNBJcPCrTYMuuc4rD7jEXK6gAYAlehKMFEiTusONoImPVfLPZidx/tOAw4Imqug1z1es+/Jca3q2ZH3r+zX+oeK3DBmgXyP26pu+vFlkfoXRscgUkKJKAVGYWatxZz5pQjYA0EracQ6pHAcBuXoWjBQ6GpE0W3ccFs6d+tdWCw4AnajOf/OW6rbus34htYl/vPed//s0Hovi7pvOvfziKv8cFjd25QWXjU9isqTxaN/0FVIqqgjRQXDafepiVz2bMrIuWtI/DAQSklaH1BYAPvAxHCxwMSa1YdLN7PZJW+6GPPqThpE+OvbDX7EIfxd/l+272C5nxKYr2AqEYqDwtkhUASECUASlt9rqPwQVNabdvKA67x2mvB+CBIZ/D0QIJSXfacTQV227D4nH23Ikvp30M8Mf85kzbep+x/Q2//+3O/VHP5Z2dyH0uyr/PAR1KNm1qYLOmsqnZiA3QLrKAVNrsrW/zWETqoZriHc9tlPa5pL0eAOw0yvftBxq7c2bBpWaDlxWk/t078/7Yn6R9DPDHqo/83rdsf7MTLz3UM3n4+cjXWNPHf3pz1H+nZrJTuJbvtjSv1RrHARZsJ1wGkhFlBWmgOGRJ7YKTz2Y20l4fqbQXSVq/vAhIAbjMVNd0yUISQqppNS8aC1Jvs595902NmzNCqer6zH+z+cjNyInzh/7Xf43j756dOFY78fKj2+L4u7WSeaRDCg5/u6x906D9+7+Pja6A+EUdkDKHVNdru6gprVY7xWH3uNxYAYCrehgjsiQt7ZnLSbUbyIQ1JrRJ6/Xhl5pNW87W3/rwPpvf9MzJQwNx/k7MnXuXarrLdSm5lqe19tUekDYEQTCcz2bIDoAYRRqQyuJDa5t9WvOruMhFL61zSns9ANhnSGZuYhEyIqnXgXOTWmBCWIMk1V59y/M2n3DzwOD8wefa4nyNmdPH2Nl7AemQ0HAtT2u95MJDUhOSPpvPZlz4zgasFHUFacBmTcWTisPtSb+uB9JaqBCQAoBdxpk7ujKZR6plJ+SlpPYdTFiDJFWvbfyGzSd8Ove//z7u12CkxeLkWm57sVJa10uXukh257OZA/lshu8eIGJxBKTDSn9IaSygqB6NR0vSFcHKw26tv7MAsJJe5o4WTXuQnFqbPWENkmL77vVmY6apoz/MxP06zCFdVuozmVfQkFKwdySF14yTGev2Yj6b6U+xExZwTuQBqcwy1DjLKvv3PE0AACAASURBVPFQjYA0VkmfW60/yyHCAwCOGpVqGhRBWu0fUX6uEg95zWY0zB9FUmquvNHq6sCpYz/andRrzU2eujOp19JE1uK2dwQkvm5yeA55ZxAEhyUopaIUqFAcFaQBbfZF4yIWn6TPrdafJe31AFxlexWNjfqUb9iU+Hfx3OSpu5N+Tfir5oqm2NvXy2WqR6ffeTWxHcpnJ3KfS+q1FLL94WBa6ybto2SW0ykVpab1vku6GwGUiID0UoldrGUHuoakXs9D2xP+YmD+KADYY6SxO8f4kBJJR4HmqtvEu4FmzxynGwiJqV6z6W9sPdvT+dceSPL1Zk8fpa14CVJFanO1cUtKAZ4P9wWm9X6vGSkgVaV8RwEliCUgVdxmn2SoxsUqfomcY8Vh9wjt9QAcxQ6v5aOKtASzZ47fmOTrwV81m7acXbd1l5Whl5kHmsTs0bAkq1WVsv17MI0qUp8KQxqkqtTsen+SsBQoTlwVpIHiJzRJXTi4QMWPn+XyqB4F4KJRqkfL50AVaaKL7pnxtxqTfD34q2bjDW/a+uZnTvziK2m8Lhs1Lcv2gqXEN9WTOaSaHwCWKxyWzuWzmUFpw6cKG1ggzoCUOaRLkAHKtNfHL6mKYAJSALAHGzNVrl/xsSdbQcoGTUhI9doP/cTWcz31m5db0nhdNmpamjzssvleP605pKx/gmC7tOEflpmlfWzwBFxAQHq57Qm8BtWjyYn1Yq847B6VHYsBwCXjjd05zeGeFeT7YUjp4TclVRVjNqVJ4nUAo6qu4QUbT8Tp4Qcen5s8VZXGa8+de+/TabyuIjY/MGxL6XW5R7iUebhxv2zwdJLqUvgutoBUnlqpvLlOYD4HAWly+FkujpsDAC7i2hYdqkhXMDd95uYkXgcw6rf1PmPjiZh5f+xP0nptZgAvT1rKrd2sKZ/NpNFmP2z5BlZpalhQXXpEqks72BUfvoizgjSgzf5y8kXQFNffHyOtXyQEpItjPh8AFxGQRkTxhptBUrPt5iZP35DE6wC1V33c2k01p3M/+a20Xntu6syatF5bEZvX42lVKTKKpzhNUl36bBAEJ/LZzHA+m+lJI9gGkhJ3QMpGTZfrivHvjpP5ch1VeNwNcVUEaw675YkyALiEa1v0tD7oTmTxRvUaklK9/horxyKl2V4fsJN9sWx+cJhW0Nbv6WZNlTJjEfYEQbA/tDN+F9WlcEmsAanMsCJUu5TWAcj9iitz4vpZag67AcA1XNuip/WcJjLbjuo1JKWqboOVAensRO5zFhwGlmH5zu2pBKQyCpCOk8oUdsbfu6C6lNmlUC3uCtKAUO0DcsFIZZfHChWqcrQulOIKpTWH3QDgGkaHREza7FVKogVwZvyIxk0aoVD16oYRG4965uTB1Kuo2SytKLZ+P6YZpvVSRRqpQnVpeHYprfhQJ4mAlFDtA1rnVc7/DBVXBDdFfYF2IOwGAKdoDvMsZ2UwU4TYF95pthbDM7Vrf2zbGz7zyhNNMycOrbXgULAyWwPS1NZSUkXKLNJ4FGaX7icshTaxB6SEapfQ2pI9vMS/axL1uVcddgOAY7SGeBpo/d6PdTE28fKj2+L8+4Gw+lsf3mfbCZmbPHW3BYcRzJ4fT2SkhnLWXsdTnl/ZRxVp7BYLS2nDh7WSqCANFN9cRxaqKa44HF9QlcPIhAtcCLsBwBVc2+Kj9dzGuwCbPvu7sf79gKiu3zxt47mYPXPcjmKBmfObLDgKq1nePZZaZaFUkWpd02lUCEtNG/4BNniCjZIKSAnVHKk4lC/YsfQOp2yRVQQ7FHYDgCsYHRKTxu4cASmQoup1jadtPP+zZ46nPn8UJaHTYhGyNhqy7sDc1yIbPB2R3fBpwYcVEglICdXmad3QZ7FAzfe5srTXA4BdCEjjpfEeLtaAlLZe+G72bN6KTcpmxo9oLFpIwxFLj8uGNXIXrfapKeyGv79QVerpeYAlkqogDXwO1aR0fHs0h5OsJSoOtVYER3XBdSnsBgD1ZN454qMxgG6K9W+nrRcJqWlotnIvBzZoUofvySVIq73WAhiXzFeVyqzSXtrvkYYkA1KfQzWtF9xF2w2kIljjU7aWSodCOxh2A4B2tA3GT2WFLosrIB5mB3tOrToEpMuQcTKPWHuAfjHXl93Sfk9QikQlFpD6HKo52pKtNWyr9GfhVNgNAA44yQ8xdloX1sw0A2Jgyw72KImt13FrrtON3bneIAgGLDgUXNBAUIqkJVlBGngcqqmsOHQ0IK20Ipj5owBgF+aPxo/KIwBWmhk/YsUsVJTNqtCrsTtn1opWjrXwWDgoZUYpYkVAWpyyQ7F8NqO24lDmsSxK2rW1VgRX8kXsYtgNAABKwMYwSEr1uqutu4ebm53+sAWHMW9u8lSVBYdhPWkhR3HaCUmt1CAzSs1mTlr3BIHlEg1IFYdqbRWEaloD0mK+RL0KvF0NuwEAWI7ihTUt9kAM5s6992nOK1wl6yZCUnuZB5Qv5rOZPtruEbWkK0gDD6tIXW7J1rpg8u1nyRNjAICPWDgBAEoWCknZCNJe90vbvdY1OiyURkDqTagmv6wa5+KMNnbnipk3pjXs3l7m0ybmjwIAAACA40xI2tida2fjJquZrOVZqkkRFSpIi1dOqKZ1NkZ/Mf8lebKmdXf0ksJOD8JuAAAAAECIbNy0k3NiNVNNOpzPZhitg4okHpD6FKp5UnGoNfAuNbx2OuwGAAAAAFyusTvXFwTB7Ur3U/FFi4SktNyjbGlUkAY+hGry9KIp3sOJRakVh77MlKW9HgAAAAA8JBsWNjOX1GqFlvte308EykNAWppSQrIuGw64DCXNiJWKYI07/DUU+3TJo7AbAAAUoWrVunOcJ/iqas2HfsAPHz4KzSXdSTWp1Xbnsxk6KVGyVAJSH0I1xRWH5VxItF58iv0ZeRF2AwCA4lSvu/pNThWSMHvmuHVriqrq2rctOIx5VXUb5iw4DOvlsxmt48KsJC33rVSTWq2TkBSlSquCNHA5VFNccTjW2J07UMb/zvWKYJ/CbgAAAECFmoZmqvh0U9vtZjr1pJr0brOOtuCQcDlCUpQkzYDU5VBN6xO6sn4m0sattSJ42Z3uPAy7AQAAgCVV1W14lrOjTrOlB6x+HFhjd25Qqkkfoe3eSoSkKFpqAanLoZriluxKQmutF52VflZehd0AADjkJD9MaDc3M9lg21tYt3UX1XL62BqQOkFmk/bKeR7w/XxYiJAURUmzgjRwMVTLZzPmotiS7OFEYlx25iuX1nmXK1UE+xh2AwBwUREPhm0VWydFVd36g3xCkITZ00etDLZqr/o4DyB0sfU67tTnSIJSs368nqDUOiYk1bq2R0LSDkhdDNW0zqusKFCTdm6NT5Obllr4eRx2AwAQtpGzcamq2nWv2XQ8QNKqVq07Z8NJr2lo1tiRmAZbK0idHAkm80lNGLeJ1nur7GXDMiwn1YDUxVDN14A0wr8jDUs9SfL5ZwkAWmitbtSE1kwgJTPjR6xrsTeq1139pgWHgeJpLPpQb0Hr/Q42c7LCYD6b4cEvFpV2BWmgOMy5LFSTX7S2dA6nIuMyXLpSWkcmLPUUiYAUAOzHTW78tAak8VUm1a79cWx/NxAyN3mqysbzUb3uajvuN2tWn7DgKKxmecWcF5vKSlDa39idM9+nt9N+n6oGxbkFYmZDQOpSqOZ1oKa4IrhF2ukvIuwGADU0Xqu1UVmlaxakcf3d9bc+vC+uvxtYaGJf7z22nZT62x7rs+AwgurVDSMWHIbtrL2Gx3mdtpUZhRZqv9+hdONq7bYzjxSLST0gdSlUUxyQRjmv0pW5svwsAUCJRb6PES2N5zf2e8uqug1zcb8GMG92arONJ6Jm05azFhwGVmZrBanX4XaoqrRVNnXaSQt+ovpotcdCNlSQBi6EavLLtT3dwylblBWHroxMoL0eAPRgDmm8NM6uOxL3C9Q0NLPpBhIxe+a4lfelNRtvSH0OqS2VrJazNSD1rnp0KbKpU5+04N8SBMFTVJbGzrTac/3AJWwJSF0I1bTuhjYUZWuDtHdrXDBcrAgm7AYAdQhIY6J4t9fYA1JbdvGG+2YnT33ExjdZs+Ejqc5RpIp7ZXINt3KjL1/mj5bKdNg2dud6FlSWEpbGo5MuJIRZEZC6EKpRcRj735mEwiKQsBsAdNF63daAgHQJ7OKNpMydffdKG0+2qd5MM6SkirsoNq9RCUhXEKosbQ3NLB1Qmp3Yig2bcJEtFaSB4sq3wsKBgDTevzMJhZ8hP0sA0IWNmuKjNSCNfeFdVbf+YNyvARjT77xq7Zy82swnf5nWa1etvfLdtF5bEQJSR4RmlnY1duc2Siv+I1SXVqwtn83QiYR5BKSV68hnMx0Wty4sZzSmikOtM2W3S3s9ASkAKKO4Fdx2WsPn+Fvsa9e9FvdrAAU27mRv1G7ckk3rtavrNvw6rdfWQL4Xmyw91HFTHWnBcaglrfi9oerSu6W6lI2eStej7YARD5sCUrWh2iIb/GgRSzm5hK5Dis8JYTcA6KP14Za15AGwSmbhGPdxszkMkjQ3OX6HjSfc/B5U12+eTuO1q9ddTXHA8mxeo1I9GiGpLh2U6tJmmV26Q9bktOOvjFmkmGdNQKo8VGNDn2T/7jhp/VkyOwWA7whIo6f1nI4k9UJpBUPwz8zpY9ZWya/a/LvfT+WFa9f+OJXXVUBBV5zW4igVZHapacfvCLXj70zy+1EhrUVviJBNFaQBLcKJGo25rYGfZbI43wB818QMqchpDUgTq0yqabgun9RrwW8z775pa6t0UH1F08NJv6bZHKr+1of3Jf26inRZ3hVHQJogacc3mz21N3bnqqQd/yna8S9BQAoCUo/Feq6VVwRrE3fYDQBacHMbEcXz1YMkA1J2skdSZieO1U68/Og2G0+4CSpXXdd+KMnXZAf7Fdk+U5EW+xRJO35PqB1/J2t3HrTDsoCUUC1RSYTRPBlMBg8WAOACAtLoaB5ZkNj9BzMQkaS5c+9ae42rbbw50WOraWhm5+4l5LOZLos3ZwrYO8Eu0o5vqks7Fmz25ONDCO4jPWdbBWlAqJaIsSQ2LyC4SwznGQAuaJCFISogGxV0Kj2Hie6MXFW34dmkXguweQ5p0lWkVWs+9IOkXkuhXssPmbWLpRZs9rQxFJb6gnn2nrMxIOWCGb9EzrEsUHi6G6+kwm4A0IKAtHKaz2GiD9rXbd01VrNpy9kkXxP+snkOaZBwFensRO7ppF5LEwXVowEFUXoUwlKpLN3hwdq+id3s/WZdQEqologkdzxnd/V48UABAC7Vls9mrK2ysp3sfGz77LrlJP69WL3uw8wBRyLm55Du673H1rOdVBVpdf3m6SvuHPhp3K+jjVy/ba8eNVX+BKTKSGWp2RXfzOi83fHd8LmH9JiNFaQBoVqskq44JMCLF78rAHA52xeINutRvDlTkEZlUk1D08tJvyb8NTN+eJfNb95UkZod5uN8jZorb2Tn7cX1KKgeZW2onAm4zW74QRDc4mhQSkDqMVsDUi6c8Ul04SAVwdzExGOc9noAWBRVpGVwoHp0LMn5owVVa67kYSUSM3Py4I02n21TRVp3XftLcb5GzfrNVCAuIG3BGq7frPMdYdahEpTe7th6n53sPWZlQEqoFqs0vpT4IowH5xWoHHOG3EUVaem0V4+m8r1oAiHmkCIpMycOrZ14+dFtNp/wDZ/72/Y4fyd4KLGofgXXb1PcwfrFMTIyodWhzZxaLDgGpMTWCtKA8CcWaX0pcRMTD35HgMrZ3oqG8rWxo33xpPpot5bjXUJq9xs1G294M63Xhn9mTvziK7a/6bqmO3bE8fea4NU8lIjj79Yqn82Yh1ttCg6ftYujZEZpl2zkpB5dSP6yOSAlVIteKl9K0gZORXC0eAILACvrk7ZxrEz7fVfSM9YvUV2f+U5arw3/TB//6c22v+n6bb3PrL7hrsjnE/Iw4lLycEtLxwRrF8eZjZwcCUm5d4yH9cGztQEpoVos0vxS4gsxWpxPICL5bIZZQ+5q4IHryhRVHy0n1e/F9e1PPpjm68Mv87vZv/SQ9fMmTat97VUfPxnl31mz4SOutPFGZVDJaBSKOzwhIelTyt8tawNP2VxBGhACRS7NgeYMU48WvxtAdJhD6rbt+Wymw/eTsBRl1UfLST0IX3XNp3JpHwP8MX3yULeGN1vX9PutUe1qb/6e+tse64vi73JBPpvpVzQvkYeVHmnszvVQ7IZFWF+Za3tASqgWnSEzGyStF5cnhuNpvb6D+N0AosNTYvf1SxCIy2mpPlpOqu31BTUbf+vbaR8D/DH11vCWM688Yf0c7XVbd42t+di9X4ji76rNfPKXUfw9LpAZ252K3grBtn80P3xlBmk8rH+gY3VASqgWKRsqDql6jEaqYTewDK3Xa26C3GcCwEHmkV5KWfXRcqyoTKpe9+G/tOAw4JGZU79WETqZeaRrPvaFr1X699Rc0fT30RyRbjIaaK+iNzHS2J07YsFxIFms/XEZ20eb1VpwDCsZVPZ0zFa2BKT8LCvHlw1sdUDpHEPtsxdRnBapYGFne53VR8uxIiA1lXJTR3+Qmzr6w4wFhwMPTP36+/9Wy7tc/5k9X5qbPH3D+YPPlfWda9rrmfV7MVzQ1kmWaJAvHSOHk3zNCOxs7M45VWVrCnry2cwI99lYoFXWjFayvcU+IAyKxIgNFYdUBEeG3wkgYsyo9EanVE16TcJRTdVHyxmyqTKJNnskyWzWdHr4gce1nHSzadOq69oPlfO/pb3+knBU01iUsaQ3Z1JarerquCetlcO2j2WyNmAsgtWde9YHpIRqkbApUGN2ZmWsCLuBJWj+bBKQ+sPrkDSfzbQ7FI4Gtm38QZs9kjb99r98WdNJb/jDb9xQTkjqe3u90nA0SHEOpbb8wNVxT1oDUqvnOyvPA6xec2moIA0I1SpmU0BK9WNlOH+wmeanmZ3Mp/SKlyGpVI669D2SeGXSSkybfbkVckA5pt95dePESw/1aDp5pYak1fWbp31ur1ccjo6n+J2j7Z60ydHNJNkIFQs12Ny5pyUgJRQq36hlbQb8LCvD+QPio2qBiYp5FZKG2uq171gfZuUOub5XuiF5U8d+tFvbaTchad31ny0qxKq9+hOvxX9EdlIcjhp9KVa6aaxcdLGbieKD+IwqPnYC0goRCpXPqsWffEkOWXAoGtkWdgMLaa/276GK1DsmJHV+d/t8NtPrWFt9kHJl0rJMpZupeLPx2OAmjVWkxhV3DtxSzO72NZt++z8kc0R2kSorreHoeNKbMy2gcc3k4iaSbNAUH81t9p22VkyrCEgJ1Spi4+KBwLs83m8sAutpn4/bkPLNPNKx3SxApUrHKSb4NQFwEATqqsuKkGZl0opWbf7d79t6bHCTxirSQHa3X/uJ+3aaXeoX+//XXvXxk/W3Prwv+SNLlzzYelZx1X/a12iNY59aXLoXUf5eNMyw1TzaLLC1C0hLBWlAqFaWMUsrDpkpWx5+B2C1xu6c9i/qQJ5oujooH0trkZDUmTEL8jk+IAGwa9KuTFpR9RVNDzt31mE1rVWkRv1tj/WtubnztppNW84u/P/VXnXz/0jnqNLhyIMtG67RWu9JXRr3pLkiVsPnR3thSqeNIbqmgJRQrXRWBmoS2mqemZEGW8NuYCEXfredb7nGokyVzp58NjOseaMEWVybhemLtu/CWgGrq0cNU/HGZk1I2uSvhv+L1pNufmc23fv9deG5pPObM31mz5fSPbLkOPRgqyfta7Ssm7TtZB/Y3HpcBhdHBtjEhXzMuofdagJSQrWy2NySTbt4aagehRYuBPkNUk1ISOonMy/rgLQ3qiLz6szi+n6Hf3LWV48W1G7ckrXjSOCLmROH1p7+3s6van67Zi6pabk34agvoyoce7BlijpsWedprSJVv06WjSFd2hTSRtorSI022+63NVWQBoRqJRmzvN2VwK80fPahhQtt9oG0XDOP1F/mpn53Pps5Ijf5VjNVR6byVebVuVo1WmB99WiBaRterGUYiNP5g9/64plXnlB9HTC/O0Ew9/+c/+U/Xu362JtQ1agrD7Zs+s7UWmHXJg88VZICA3UPmRew/rPjyGizQO63rfm8awtICdWKZ/W5oiK4JLaH3UCYS+NQTJvTASpJvWZChr2FoNS2z4K5oZRg9EVPdoo134eqFl2rNv+b/9+Cw4BH5iZPVU2/+4b6NdPsRO7eYHb6JnN9y2cz/Q61Hc8z70dmjbo0DmWosTtn032g5vWT5s98rwOfaS3VmSMWHEMU+m2ZR6oqICVUK4mGkIK5ssXhwQDUsOzGOAotru5wjpLMB6VmhIQs1FP7PMiiuteEtlIx6kMwWqCuIsXMTzStwhYcCjwyefj51ol9vfdofcdSVRm+tnUGQXBYrn2qH1rKNdx0hh12bBO9cQs3GNJ8T9qgcSa+VAK6UA2tJVx3pYiqwZb1lrYK0oBQrSjjjd05DaEabePF4TMPbVx7kGVC0v0aZ1Iicg2yUN8vVaV9SbR/mhtGs8O+qWiWRfVuD1rpFxqxaK5dSeqa2gcUHS4cMTn2wl7F72Sp79vdoQdVqqrrFgSjnRYcUtR6bdtQVsaxaL4nVTXuScItV9b3WvZUcKnLtEHur1Md01E1NzeX5uuXTH7x9qs66OQNNHbnVOwaJxUwvi3ySmHCbtp7F5BA4kWrDqo4j2hrDy2HbDTg6iYxY7IIcO4Bj+LfK1uMyAMtc7N6pNzRKLLoN3/Mz6NV/slGB0Fwi+ZxM+/tvWVqduJYrQWHAo+svvGPBzfckb1b0zsu8btoSOYSW1tMIBV1XY5Viy5kHmBZOStWHm7vtuBQKmH92l4ymmFH7lfUrL/lnvGwBYcSNXNt70pj5ry6GzVzc5zPZsYI1ZalqSV70PHdditFez00cvn3ujCTslee6g9GXTEhN5kbHRxX4Lq2cEtoPpsJJFAvfD4OLDHTqrCo3CjVIrjcU9pncZsq0nOvP32fBYcCj0wefn67abWv39b7jKJ3XcqDZBM6bpe1obn36LfhWiHf4ybQ6vBkzWpba33YoAMBaae02qcSGK3EsXA00NS9adYgjmZj26VbwBSlJFpFra6CNHC/Oqlijd25Ki3HSkXwiu5WMi4hUVSQ2i+fzZz0qOptVG7A56sHy7l5lc90qywymtL4rFBBCkuZG/9WLTvXL4cqUqShZtOWs5vu/f46DSc/ou+hQlg6nNQ9tIRX7fLHl1C0YGfSAUapHOpYHJWQ1JoHhtIO3efYPb/1n+kwGd3h4tiOgjEZ3dAXx71gYc5v4e/WepPWT0C6pCFLj2tRUhE8Tvvg4ghHodiw4+1kYS3yZ75CQZ7kHpFqwaVuYgtVg810RADLsrJiphxUkSINMycOrT31nT8b3vC5v7WyBXqBKB4MNsk68X6p5B+R7+LC+JOKq8MkyG0OjUHxtfp/REmQNOxIgFTYODTxqrqFJFTqd/ReX1sH16DjAWmTrLF257OZodADsIo6+OQ6Xqj07yj83FUGpIRqy9IYqLn+S10uVWE3sMCgRwHpQk2h0NPXcwBE4SmXRk2YHe0nx4Y7qSJF0s4ffK6t+qWHeupve8zaMEtmdbYV8V8t1UrjT1a6xmyUIDSQf7L+vGBcQgUNXKqwM5+/PfL70pvGd6SjVaMF4wpH+vg0kmt7YW0VKkgpvP/lzkNhvn/her7ktVzzDRqh2uIISN1B9Sg0M59fzTvoAkjXWETVZFZZveX//k9nf/q1PXy2kLRzP/u7v66q2/Dsuq27xiw9+UmGt+EHmXGEsj7o0FLdb0JEB+c0ms/ti/lsZiSJoFQqRjvke9nlzid162/zeyiVlb4VZRSu44VreCSzhquj+EtSQnh0uSGNbWjSRj5uwaHYhs841JJrEVXQAMrlTGt9mKngq73q4869L9hvbvJU1eTYd62sjMpnMz2Mm1HlEYXV/f0WHEMcCkHp/IY2sr9HZEylqsy4PCKFD67/nmpdf5MbRERtBakJ1Wizv4zmXwyqSC+lMuwGFnB1NhGAeGlcfBdt1bVtd02/8+o/KzlcOGT6nVc3vv/tzv1X3Dlwiy3vSirTvNjA0hEjSjcc7XdgN/vlhOc0jhU2Di38KWZdmc9mCm3I7aH5uj5lLeOK9/+gcy8i2mcgEapdSvNiwpXh2VHhKRDUkwdZrrU0AYiX1sV30epvfXjf7PtjI2YupJJDhkMmDz/fevp7O79qZuJa8q5cnWXoolFFc0cvYTZ08agNuUnW1RfX1ovM3g1jtu4FatffHrfZR05zi33g2UDalYxWupNXyggEL8VnG65wtaUJQPQ0bfpRkZqNWzqr6zdPK34LUOzc60/fN7Gv956034HsIkyBhA7jDow+0bDjfpyaQpuWhf8Qjl6g/fPBmisC2gNSQrUPqP6FYF7hJbSH3UAYX9YAitXuy3gZs1FO3fV/8FcWHAo8de71rz9tQUjqe2ClSYfC3b0vIaNbRi06JNhjxIHP96BUCaMCqgNSQrVLuBAWE3hfQKAEZ0jYP8BPFMAKdmhfnJRqffuTD6665lM5XUcNV5hNm87/Yui/n3nliVTG4JgNZYIgaOEDpcIOh+ZCE8pjMa58LsgRKqS9gjQgVJvnSsUhP8sLOA9wDZsvAFjOQGN3zsub+lXXfHprVd2GOQsOBR6anThWe/7Qc28kHZLKTtsub5jjkh0uXZ/lvVBlh7AxxZszLdQn4zBQJgJSNzjxRE8qgkcsOJQ00V4P51BFCmAZQ43duS5fT5BptV/9O3/0pAWHAk/NnDi0NoWQlConHZ5y9OGVt985WJQzhRySp5CPVUB9QCofAt9nibj0xeX7LzSbM8FVVJECWGiUhSqt9khfkiEprfVqmMr+HhffmIwL8L0oBxeMOvgQgDVXBVyoIA08fwo55tjMLt8DUp6ow0lUkQJYYNSnTK25wAAADqJJREFUTZlWQqs90pZESEprvRoDHlT2Oxn+omTOfQ5Yc1XGlYDU51DNqfcuv9C+VgS7FnYDC/UyFweAzH8jHA0xrfZrPvqnf27NAcFLcYak+WxmI4UQKvgQjgay5nrKgkNBeoYc2nxsoR7WXOVxIiD1PFRz8UbD1ypKbhrhNLlWs3so4Ddzw95BOHq5+tse66u7/rM8KEWqYgxJzfd/Kjvmo2g7PZsJ3cuGTd4ad7mKWO6xWHOVwZUK0sDTUG3c0acevs7hJCCF8xq7c73MjQa8NS6Vo4SAS7jizoFbajZtOWvlwcEbhZB04uVHt0XxnvPZjAndOvkEWc3sVu9VoCIhEq32fur1YGPkPh4AlM6lgNTHUM3JQE0WTr79MrsadgOL4WYU8M8Y4Whx6q7/v/6AeaRImwlJz7028NLEvt57KjkUmTtKJZO9xiUc9bKDr7E7N0irvXdGfHgYwAOA8jgTkHoaqrlccehbNSXVo/CGPAzgZhTwh6kabyUcLU79rQ/vYx4pbDA3earq3Otff/r093Z+tZzDCc0dbeAHaqVCVb/vm8TS3eQP85n3ZoyEPAAYsuBQ1HCpgjTwLGQalw+8q3z7oiYghVcau3M93IwCXmC3+jKYeaSrb/xj7g2Qugsh6dP3nfrOn5XT6TTI3FFrmWtzMw+uLlbadbGpjRe6PGitX4jPdglcC0h9CtWcvmn2rCLY9bAbWApf2IDbhghHy7fhjuzdq65rP6T1+OGW8wefaxv/5vZjxW7elM9mzLqsjY+BlQa4Nl9K1p60I7vtER/X3KEHACiCUwGpZ6GaD/MqfZnJSTgKL3EzCjhtoLE7x271FWr4w2/cwKZNsMXU0R9mzr3xzMGV5pKyKZPVzLzRLq7Nl5NRA4/YdlyIxJBsFOslCYYH+CitzLUK0oBQzSm+BIdszgRvyc0o80gBt8wvwPmZRmP1lrtuIiSFLWYnjtWePfA33zj1Qvezix1SPpvpCIJgLz8w65iW+luYN7o8CdEIktwySgXlPMabFcHFgNSHUG3Ih6d+8qTDh/ZbKkjhNZlHys0ooN84C/Dordu6a6yu6Y4d7GwPm5x/8x86Tj5zx4lwy73sWM/vv32ekpZ67+eNFkMe8HFf6gbmoAs5Bx2MN1uecwGpJ6GaT4Ga6+/Vi7AbKAJPNQHdRtjwIz7123qfWfOxe79ASAqbTL/z6sazP/3a4dPDDzwu4egwO9ZbxayJ7zYPollvlIz7Uv0IRxeQDararTooy7hYQRp4EKoRkLqD6lHgg6ea7dyMAiqZjQ9YhMRsPiT96J/+udNvEurM73L/2sCu6vrM3xGOWmVAHlqx1ihD6L50SN3BIyAcXZo8yN5h6/GljYBUn1GfftE9+FLnpgUQhKSAOmZjzNt93vggafW3Pda35mNf+Jpf7xq2W3Vd+6EP7TjwO6ZakfbN1BWuy2zEVCFz/sxmg7Tbq0M4ugIZhURIuggnA1LHQzUf5/q4+uTOq7AbKAYhKaCG+W5ubezOsdFgwtZ/Zs+XCElhCxOONvzhN24IPliDNbP5YirGpZq/metytJhJqgrhaJEISRfnagVp4HCo5mPFoavvmSH2wCIISQGrjclMuw4WIOkhJIUNwuFogVTdmfmN18tsYsRvQB5YUc0fEwlJCZPsNtDYnWvl3qR4hKSXczkgdTFUG5XBur5xNSClvR5YgiywWnliD1jlKVmE8/1lAUJSpGmxcDTMrFnMbGLT7k1QGhtzXm+Rdnof14iJkjDpFsZIWGmnhNgoESHppQhIdfFyQSJPgVyrCPY17AZKIjc7OzlrWAaVxvErLMLZCdkyhKRIw0rhaJhp9w4FpVyvozEic0bbZcMVJETOdzOhvzXG5Xehz/cTUYlQSOp9+O9sQOpoqOZzxYZrs3SovgGKJDc9t/OljSUM0soZG9NOv4NFuN1MSLr2E/ftrKrbMOf7uUD8Vt/4x4PFhqNhEpS2UlFakXAwypzRlEiXU7s8wOfeND0m62HmbkQkJG33/TPtcgVp4FioNub54sS1QJGAFCiB3PzwxB6LopUzcuHNPpiXrcCF3e3v/QIhKeJkqpU33JG9u5KXWFBRyhid4pjzdD3BqF3kAX4r9x2JG5eWemahR4wKafcDUpdCKK8DNWlHd6Utx/ewGygLT+yxkgULbxYspZsPRqUig80+lKnf1vuMCUlrNm056/u5QLRM8L7m5s4nTLVyVH+xXK+7pAPgEalYxwfG5H5nEzNG7RV6QEt7cjKGZBY6LfUxCa23HnHyDa7A6YDUsVCNCg53zgHVo0AFQk/sXRujgogQlJZsLByMUpGhlwlJV2+56yZCUkRlPhz92L1fWN/+5INxnFQJmMx1x1Qt3e35d/u4VIveLhX8fVyPdZBui2ZfQ6UEjMnvRQcPC5IhD8pv8e3hlesVpIEjoRoVhxe4EiwSdgMVkgVVhwRgVJ1gUaGg9BZaORc1KjNGCUYdsm7rrrFN935/ndlIx/dzgcqYoH3tJ+673gTvSZzKxu7coHy3b5KKPF/C0iF5v81SLUobvUJSedcrVdHcc0Sj0E7PrNEUSAbV6lPw70NA6kKoxsXgg4pg7UEIYTcQIQnAmmVhQVCKRZnrLq2clyhUKLUyY9RdZiMds6GO7+cB5TEBu6lGNoF70qdQgqb+BWHpgEMtzGPyfu5u7M5VSVVcPw+p3CAP8bsISisSHvlDO32KFgT/zndl1VpwDLEyF6h8NmO+hJoUvw1ubj9gzsX9thxMGQi7gRhIyNOfz2bMDWmv8ms+YiIP2sznozefzZiFd+FPgwfn3FSLmkXGIItwf5gNdapXN/Sc+9nf/fXc5Kkq388HimOC9Uo3Y4qKXK/6Cx1Y+WymVa7b7VLZpOH6PS5rgPk/FEv4Qe45uvLZTE8QBOZPF/enKxqT33XGS1hGPs/t+WymXe4nW1x8n84HpEJzqDZu2k0sOA5b9CsPSPlZAjEKBaXtcjO6nfONxch362A+m9kYCkpd+7yMyvfmIDO7/GV2uA9q1/548vA//tPMiUNrfT8fWNr8vNGP/umfz39mLCXh4sWAUQLT8J82C458RI5x/g+BqN8k6Cs8nO1y9H6jUuZ3pp+uFvvJqINW+Sz3uBaUVs3NzVlwGPGSL879Sg9/QEr0IfLZzBGlT99M2L3RguNQT8KvFxW+j0fYGTpZ+WymWW5EexRdN8zT88RnkPF7dUGosrRd4XdNoUppUKqUCEVxife/3bl/8vDzrZwVLFR71cdP1jX9fmsaLfVRk+/+ZrmOB6F/RlVxOh4Kac0196T85yNcd1GM0P1pl6uVeEUYL1SH8xBBL0eKUm4vrLu8qCA1v3CK2+ypOLyc1opgfpZAwmShYiph+kJteR0W3oyOyTWCm8SUFSpLgw8WMO2hP7bdRxQW6YW2Tca4YFlX3Dlwy+nhBx4///NvPkDLPQpW33DXyIbP/W27KydEvvuPLDfaSu4JSilcIPxEZBbcnzaHHsy6Xlk6LvdYg3TJukHuPYflc9yldJTExXEOXlSQBh9UhGh8Ys78jQVCv3zaDBJ8REPxZ4AAwxKhtupWuSFNOjAdXRBspb7oooJ0ZfK5aQ3NvmtO8LMzFlrwF9o2WayjLGdeeaJp6ugPXpk6+sMMZ9BfZpf6uqY7diS1Sz2AlUlu0Z7S/WkcRgvdLayD/CAPoArjJGwNS0dDFcz+BaQAACxHAsJC6FWoLInixnREgq2L4RYPvtwSaucs/AlCn6Gwhe2di+0GWlg8FFo2T/JwDXE59UL3s5OHn99ONal/6q7/7IHaK2/qcKGlHnCZ3J+m8WC2XCMLigC45/WYhKXhbqy0NtYrqjiFgBQAgBXIzWlYOAgLQgFoAaEWABUmXn5029SvRp6bfudV5qR7YL5q9Nr2/2zzRkwAlif3pc0LHupHNWO3WKPyMHdY7oHZkAwrWmRjvTg+t+ERVAdKCeoJSAEAAADPMZvUfa7NGgVwudA4oCAUnIYtfMi/mJOhjciCBYUAdEIhcqFilHAH1mKf34KFn9H5DqxKxzgQkAIAAACYn006/e4bg+x07xazQ/2qa9vuqr/14X2+nwsAAJZCQAoAAADgool9vfdM/eb7f0PbvW7V9Zun667/g79a3/7kg76fCwAAVkJACgAAAOAypu1+8vA//b+zE8dqOTt6VNVtmKu7rv0l2ukBACgeASkAAACAJZ3+3s6vTo4NdxKU2s/MGa3ZuKWT3ekBACgNASkAAACAZZn5pDMnDw1MvjV8Gxs52WfVde2Hahtv7mLOKAAA5SEgBQAAAFCUQlA6dezHv0dFabpMK31t5pO/JBgFAKByBKQAAAAASkbrfToKM0ZppQcAIDoEpAAAAADKZjZzmn77X77Mrvfxmt+Vvql9oHrdh/+SYBQAgGgRkAIAAACo2MTLj26bOfGLr0z95uUW5pRGZ36+6MYt2frbHutz5T0BAGAbAlIAAAAAkTLt9zMnf3nn1NEfZjizpavZtOVs7dW3PF+z4SM9VIsCABA/AlIAAAAAsZjf1OnUr/umj+//7MyJQ2s5y0szLfS1V3/itZqG65+o39b7jK3HCQCAiwhIAQAAAMTOtODPTuT+48x7b7Yzr/QCUylas/GGNwlFAQBIFwEpAAAAgESZytLZM2//xczpY+0z777Z5MtO+GYH+trGj71dveHaV6rrM/+t/taH91lwWAAAeI+AFAAAAECqJvb13jN7Nv/52VO/2joz/lajK4GpCURrGprHaxqaR6vXXT3IRksAANiJgBQAAACAVUw7/tzkqTvnzr336ZnxIy0z40caNOyMX3vVx09Wr7/mSPXaD/2kqq7hBdrmAQDQgYAUAAAAgPVMW/7c5Km7Z8+Pt81NnmqePX20eW76zOqkN38ymylVr2s8XbX2yner6zb82lSGBrVrf0y7PAAAehGQAgAAAFCtEJ6a9zA3febmucnTNxTez+yZ4zfOTZ1ZU+z7M+3wH/yH1SeqVzeMzP87ISgAAG4KguD/AHF5VCE9kdVYAAAAAElFTkSuQmCC;fontFamily=Helvetica;" vertex="1" parent="tQHMTcdeYaFuNHWwaCvj-1">
          <mxGeometry x="251.99" y="349.75" width="156.02" height="28.5" as="geometry" />
        </mxCell>
        <mxCell id="tQHMTcdeYaFuNHWwaCvj-24" value="Synchronous operations" style="text;html=1;align=center;verticalAlign=middle;resizable=0;points=[];autosize=1;strokeColor=none;fillColor=none;fontStyle=1;labelBackgroundColor=default;fontSize=13;" vertex="1" parent="tQHMTcdeYaFuNHWwaCvj-1">
          <mxGeometry x="460" y="565" width="180" height="30" as="geometry" />
        </mxCell>
        <mxCell id="tQHMTcdeYaFuNHWwaCvj-25" value="Idempotent, i.e. does not fail if something it provisions already exists" style="shape=callout;whiteSpace=wrap;html=1;perimeter=calloutPerimeter;flipH=1;spacing=4;flipV=1;fontSize=14;position2=0.64;base=25;size=30;position=0.56;" vertex="1" parent="tQHMTcdeYaFuNHWwaCvj-1">
          <mxGeometry x="870" y="655" width="250" height="100" as="geometry" />
        </mxCell>
        <mxCell id="tQHMTcdeYaFuNHWwaCvj-26" value="" style="shape=image;verticalLabelPosition=bottom;labelBackgroundColor=default;verticalAlign=top;aspect=fixed;imageAspect=0;image=data:image/png,iVBORw0KGgoAAAANSUhEUgAAAaIAAAB4CAMAAACHBwagAAAAdVBMVEX///8AidYAh9UAftMAhdUAgdQAg9QAgNNCm9yhyet0suMqlNlTo949l9ra6vfV5/bw9/y/2vFgqODr9Pv1+v3N4vTk8Pm92fGMvuex0u7G3vMdj9hrreLm8fp8tuVZpd+mzOyLveeWw+kAetJ5teRHntwAdNBkg6ipAAAOR0lEQVR4nO1d6ZqquhJtGZ21FafWttVuz/s/4mVIhSSkkgqgnHNh/djfblCIKVJZWVUVPj5egdNLrjqgNSSjfddNGGDEMtp03YQBRhxif9l1GwaYcPS9Z9dtGGDCJhzFu64bMQBHMotG3qLrVgzAsfS80Sj87LoZA1Ac4tRC3pn/ve6wLQN0OPqjFBFftn5dumzNgCpSopDC8/iBy+9Avv9NyIhCPogm/FDsjTts0AAFOVHIBlHED52iUXzosEkDJBz8wkKj4MGPPT3R6w3oFgVRyBAncGybHYvuXTZrAEdBFPJBdOUHH0Fusm2H7RrAsGZEQbHIOXd93k+HLRtQYBl43EJBuRJaxcxog2DXNThRyOCXobxrUBwSxIYBneDulwaSvFoElhMWSgM6wE8oWGgUr/iJz/JElBguMOC1EIlCNogEMWEjTFDT7lrYd4CiwAfRFz+VxMLxIU7eFfLQgziIZuW5mzi8BqmuIxz9kYxQEOTGkvXiIa2uC2xCxUIiu97H8qlBqns/Epko5MTtVp5+KGcHqe7tUImCOlLO6ulBqnszVKKQD5QyCvGxi9Wzg1T3XlSIQoZQ+MA0qJwepLp3okIUKrNNZZ4apLp3QkMU8lEiqDwH3SdENjHgldAQhQzBn/CZH+1HBqnuPdARhQz+d/mZpEIWCisOUt07oCUKKTyxoOim9YRSMGnAq6AlChliUSid6QfaINW9HsmsyqVZ58+Fj+31fi4z5JBV91ogRCHve3HRc0T8XGrJ0csaN38W6PUKeeejFpILinBLSgpE240r4K/sH/6/xQjveamgaIfNV/lwe1E5ywUa12faqGrX4iCShAON+CN89DWl5ImQKPGSG/wXsEY5gFhQlME0iFLi/RJHJND8qLfRww0+NmQSoBV/hA/PsDs0waJ0wr1l9ivTIJLy5Ob4lJUjvLXfOonm93WBjK1GR1JB0YfZIWo+3g7uxRAv2hj0M8B7MkwwgUSkJ2Y/lyK6YnepjSKp3GN5/kHr1/8vIDB4r1gSsA3DDdC6J2KJrwF7PHq5p8DVMDQCaVAsbX4ue8zb3n6GTX8Rc7KSGtUTfCPydjEmpMXo3bQoAsTtPuZrHyzDZiO/f9s9PA3OK5C3VjCIP8IwajdGPikei5RYsnqZ4FUy078WXybnJU8sX+Z1K6Bdqe7Mxw5LPOpfmkQlJ04cELKyfKEMohRhi66ILdnyGY55ur5lGxlpdCzrObRBVHGPjcA0wVz4gQVSvza2SUzdrpCzk3VRBGhRqmPty9P4gFCGvcpkuZg4muJRTLxCsW1rW9axx4INHLYs61VC2NJEuBVNdG36rIKwLUGaVcmERfUZ88qvEWvfgOR7udw7uoCFaWCEci7ChLIoAuu2VM7CFFS4HEiE8b+xLjA5Xefz+eV+0togOUxnYZwjmD/oCoxJnKuQW4L4U6IltfMeyVdjSkOACoH3xZiAGe/FKTuAksTv6TVHJdw7Z99kvf298aMgi90Hv5osm11+lj+/QTyjuhnjUlSJnlHEHwF+K+UsrIExPHUsXIXr6ZfAI8DnJvqJ8gNCGa+CpR/k+FVPzNiligH9KFM/ooqJVuNKBqkXntFbisCTeUZVX0USf4SvtyGlsbWyMPdEWDcwGOP2vG2lhVnyc4SbiD2ZvnqCOZUwN9FFeH4rbZtqM3c8n7B22BrHhbrlBUn8EYA/mHSwrQOEpjAToFotyUR+2bR2THQRn3XFRPsz1qTgbF3i69Pn+Z3kDxPFnxIt6DScHZQ/BeLDYpK5CIqJxJCW3UTsd5tM9JD6RjbRKhR6OXeNwp8ji42qtXbSjY7ypw8OlJtdofHOM8CxRZ/J9Cq1eYA/u4kkyt6GiVasa1IakFECyUSrchYKwvj8nD/PPt+bx/oYm8Q5NZSX4ug6jJqXs4A5xN/8YJ4OYfV/UTq1RwVCCdwXSXW5YCI0gEIwUd5ML4oXl+v0GYVi3vSeWyiI7sAaP3/Ko8b0WqzAgX23Smt/yPoPXKNhXiI4NcnlwgQauk5136z58iYRzU20z1cu0Rku+zUub5CAW/NiadQvefq8ccuKyDiIdJzZaWGUX6TZCpM5Lan8jOsNzlmVrPWKxLtpbqJsEMVi/KV0Hj+wI9xI7QkgGKY1vtlpa8XkxJXUNUx6g8de1mRBzPXd3Ogfm9eU0oDGJoqyCRNhrwc24r1zta1gIzy4tjfP/vrn33H12rCcBRRUdUoF9+fERj6BCSo/rLGJssQkzFux+Jbn6YjbGU5idzar1ti605XWNZLqWBMrj9kF+sbhWmvm1kP1Yo1NlJoB87kw2+uf951lUv00j4cYi/c8HMcRxo0J2LLHobICgtoMtJEawARWWfE2NxFeD+KZ1wfQJoRUGUpVRsY55OJI6+rvPMPUKU1bIC+VThjhWkFlTmjBRJime2DqFVYY9wldqT1rKFXJ+9VAaMdulKF+OQszhKYUAqTFUPMtLWBt6Vd/l9VEK6uJMMF4jv4ABpOJ1uZVqNnLmwdgBX7NXBAQnCpL6DINn1zIAh5H87g3NxE2bycs/w+fjmHzUt05YzTc9tO/Qycb1ZXqNoblDwtEUjn9nAkSulhtcxNhvXVSQl1VQGaP7q5mXmarKt650bp6iQaJie8AVYpJwcsJjEedQwIToasDq4mw9RkjniHuRXa4iSwqgbVPb060rl4pA7OC3k2A/UihXVgB6hcvjU2EZtJA0p+hZTFmImM0nNSlpjz9KmqVs4BcozcCeEHKsgu0WH0ArbGJMD7HtESTM16jJjKVqoxoKdNzpwhsjXKWpTmPBLhEaFcvLohGwdDYRJjP2UHA+G+K4YLRBVuAm5RHaA5kKKhRznI1zPAZ4J1k1uj7CRF+AJfGJkIWKCAlegEK6EP1q1vLZE9L3VlbhqIM93IWptcEN+T8kT1ntpXxFoYbJui9zEQPuqNRv2qrJyZW71hYoQxn4s3r0pVIMj8I/7V5ZZjT0XHc2ESYxOaQjaN801iqMnJQVU4uNnItZylFXiTLip82G/+KCj+A5iZCSHV9E9kmESxtowqnQLlbOYs5NUmCsZDlC4Qf/EMvM9G1rolsFd8ukpphO40K3MpZHPy4qZAliXDhB/DyUeTFVmgbjcIpWdqYEK7AqZzFhS9qNDwAc5fGJP2XmQjE9b9ku92uAYkO0vdsWWZu9DhxUFRdihnM2WMKcC0E5Hwj6xMrzLSoayJWpIBnn+thLFXJf42bLI1v8FiFQzkLLOkMS4pyVYHafmUUfgDNTYS4B7kwigxbrMe5bueLTuscYuSQlLG5TXDcgPVhvhkCf+bZ9WUmAnXBLcPmYHvoCXqKggl9HJHLWYg6NsTHEVfyAxsHmW/GiBfuLuua6FuXBGiFbeqoE9qZ0hVVajnLjDDLiz9H2wk3i/ADuNv2coBVtKuJeIqZCwGzRMNrbsf3JBNkYjkLTHCBLQkL4uO6ZsNFKhk/yEXwKQPWN84mYrOKy0Ye9n3K6mVU0RkyjYzAgsKqRMHGODp3D0lqVoYKcSl0yMLPczbR0XblKja2rqxZybC1rbXKZ4DkSANq73L2E1cUEahCwoUfwBf4I+STfDNFZxO555LZdc+6m/3RFVXKQwDv9CV4XdD7K4lqwIs0GT8qeKoKwpT4StLZRKDW09ea1pz5+lmJZEXVI5SzQF2aIaDMwaypemhIcCKFeyGso+fmpVrobiKYxajlipZo+MiopNhAVlTtOvqaL4oI94VHXAkILIiUMAcsr/R8syxkdDfRnleGUdphjYa7KxUSyIqqtZxlou91PUApkneTulOEn8oNtZzuVFIsczmyFhCaCwxUdskJn10ab1aET1VUrYttoGK0tCGgW2JW9Y4k/HDAElMXGhY3Xq6YaGE1EdfbkNSWFI9fGBnfVhGg4e5U5NIjSzkLdApxTEPUQuAhSUASfkpwVaxCvXZZUidPC1a/ZzdRua6PxtoB8HmO+A+1RcObbzpLVVQtggzMLkSmCrO5QOchAkFWSniRiBffpBPHbLuE4IKtiwgmKvUcT7OGPp3TRwBMZIuGt7GRBVVRNcfIgV9RO5hrqWBSSD31Fs/nc47gKcmFJdcNF3yMJ7dRlDcE+EstEwmhhSC6Co/d/rSJc1IOJrILAC61Ogioiqrp7SzoSgcDKGhAFcs+Me0vI9dpC/3oRfHzej/er2NWee8vG5lIqpkLwvD5d0wvfhmHMaz3mYns+5+38iYGoqJqotNcLyC7XbgnK2ShBRmVJkh1bV4QRDwY5d8+UBONKSZK14yedPEou7hwqKi1Tuxd18ZmMGRFFR+xMKE56FpQVV2IEUTyrz4lU2Rd5z8+mproY2fUxzw/b7d9z5W2tuCjKar43WBF46AWAgXMs98/ifNhZSDfdRspFd3X1EQf6yfyItbsDpuc6S19k1sutvpqaQ9GoqKKxsjBA7i8TOws+Ebq5q1VX/vpqU33wnPe+Y1NlDZrpOsXL/Iv7Lv5pngLBcoWevQeMWNJ6iNsXXr4xy/g0p7Hb/Gd35Qw3Nj/bfjV8NeJF5cKjBfEsBvJmjXqH/ULC3acErI7LVL64Yk9EPmzyft37V+e7j+0p/gFb2dpAbt7yrTiMEz/OV/b3gr8e7LJMurCfO/NaHw9tbKjosP9Px+bsx9G5Fz8f+17otbL1WpFTsh1RLZ57XK53753C+v17jZdRHEUuO090/rbWQZokKR+be7FDkNHRDssfwCGfebXcuPUsU4xjHr3ao53Yf01yf1aVN84DC97kXJ/kaxO92dQ169p0CDIO0DF/gB8rSXr5Gjz7Sw9xjb1a7O4Db+mQcMtH3uP1K9dn54zmXZBe29n6R2Wh+NPQ75GQ2tvZ+kRUr92mYUv8mtVtPV2ln4gm3TG7iJBQ/T0XdQV/A9n77O84dIawQAAAABJRU5ErkJggg==;" vertex="1" parent="tQHMTcdeYaFuNHWwaCvj-1">
          <mxGeometry x="1199" y="295" width="139.33" height="40" as="geometry" />
        </mxCell>
        <mxCell id="tQHMTcdeYaFuNHWwaCvj-27" value="Resource group" style="image;aspect=fixed;html=1;points=[];align=left;fontSize=12;image=img/lib/azure2/general/Resource_Groups.svg;labelPosition=right;verticalLabelPosition=middle;verticalAlign=middle;fontStyle=1" vertex="1" parent="tQHMTcdeYaFuNHWwaCvj-1">
          <mxGeometry x="1214" y="375" width="42.5" height="40" as="geometry" />
        </mxCell>
        <mxCell id="tQHMTcdeYaFuNHWwaCvj-28" value="" style="shape=image;verticalLabelPosition=bottom;labelBackgroundColor=default;verticalAlign=top;aspect=fixed;imageAspect=0;image=data:image/png,iVBORw0KGgoAAAANSUhEUgAAA7UAAALICAYAAACgkteeAAAL5XpUWHRSYXcgcHJvZmlsZSB0eXBlIGV4aWYAAHjarZhrlts6DoT/cxWzBL5AkMvh85zZwSx/PtDq7qTzzr12x1JkiiJRhULBbv/vv8f9h1eSkl0WraWV4nnlllvsnFT/er2Owef7eV9DfHqufnXdzerjPYtcsiGvYb7s1zF0rsvHDZqf6+Pr607n6yTWZ6Lni7cJkz3ZHvWMq89EKb6uh+f/rj339fzFdp5/Zfq75bCeVX76f1aCsYT5UnRxp5A8n9meklhBaqlzzHyGVOPbFUbd6+n7sXPvp5+C9+zkm9j5/oxIX4fCvRZr6/4Uo+d6kO/H7kboyxWFt9P49RerfCzqc+zOWfWc/dpdz4VIFfdsyj9T3DMGDkL5ikbhrfwTzvW+G+/KFieILR43eE8XWojE8YQcVujhhH2PM0yWmOOOyjHGGdO9VpPGFucFJds7nKiAsVyqYDVBLXE5vq8l3Oe2+7wZKk9egZExMFngjm/e7nsX/+b9PtE5FtsQLJjzFSvWFY3TLMOQs09GAUg4T0zlxve+3TusHy8DNoGg3DBXNtj9eE0xJHxwK12cE+PEZ+dfqRF0PRMQIp4tLCYkEPAlJAkleI1RQyCOFXw6K48pxwECQSSu4A7YpFQAh2zg2dyj4Y6NEl+XkRaAkFSSAg3pAlg5C/zRXOFQlyTZiUgRlSpNekklFymlaDGN6po0q2hR1apNe001V6mlaq211d5iS0iYtNLUtdpa652Hdqbu3N0Z0fuII408ZJSho442+oQ+M0+ZZeqss82+4kqL9F9lqVt1tdV32FBp5y27bN11t90PXDvp5COnHD31tNPfUXtQ/Rq18Am5n6MWHtQMsXzH6QdqXFZ9myKYnIhhBmIxBxBXQwBCR8PM15BzNOQMM98iSSER1IIYOCsYYiCYd4hywjt2H8j9FDcn+Y9wiz9Czhl0/wZyzqB7kPsWt++gtvrV4XQBsiy0mPp0EDYG7Npj7VaT/vro/ukEP5hoLF/k+LMs0F1ljBS1SdIWR21GrIOS6ipjnj6W9JnORiXLcgdtkdn0QLujKUoX3/tG0gufcxxq/TwqmUcczYMBOZ8Uwzwhdo2JBMiMc/3IMqKiHc1bXso8pTfIBFp9rShtx7Xl7G1YpFO1HNYR+0qBhSbZp4TFiqbFevrtifgQXWxolbbYjSoJkaNuQzCMXUvvS2uCST0gTmyX+hyy8Jdd9XJP/T88up8MUFZY9cya9hpnj4awxyAbHdt9FQQ8+jOKRblvlwcj2ZEvBD+sfLKcVsm6C+TpQsLN5fFjMK/2UlfJdR7Sii9AafdBVKZ3ZEheZUJZYpeY9Jy6yHa7k3zFWCnoLAkK4DXs3Kz+ZbDIYtUn1zFJ++BqjK3J2qdOVjHJDeorT87S2B8pFb2mxb7AbYYBh5ifwEtibJsohaR94na+hZWIQBBqL7OPrbmM1NUf7bNbVEJrFxlt+8HIf3t0HxfYftt1oBiIWBsF/H2l0ozFas/yqmeLtCVqRKw97wwb/KgXHfe92X90fAPLtPbC1feDVctu/QBkcgqmT5W0gm5czUWR6OCF3mZG0utNNq/HkW+iB1j68cvmG/CafBhspGa4fN7HspIfD3Y2ekxzYOgVyAGONyb5xT0zjSK91XiGztbOyLWmflZWRQcHq/X7yWQ0ex2/FY1IIDx1ISUpmiWbXcTcfKVU6MAejdmNHZBB9p5jMCN2ZJNoourEFp/L2gCWR6E4hMhqPX/sKBye0Ter0HwQg7QLnNkllpzYRUGJkxzSuLvppcyUjlrKI+Dneh/I8IptraZ6Lfqhre+CHMwU2OHWwfVNWuzjBwLmFii1oRfUBjO0UlLhIqIS0A0cwqGAMJx8W8idRzwZL7ohANuGz2se3x0KhxLaSH9kmIrlNkKaxHlQFzLpLGWQcAhjDXgiyWZbKY7kPPONVpV0aI66BDAmzalMC8fZiSvnkCPI4EnaD4l5USUoaPKCDrOD9OZq0kUgU+zYmstw2an139cyLasnYIBSm1itst3U5nfv+AJ4wmkijiudBuCKlaaW4/0C5PADyLouUg77uJS0k4WiDOoO2oQbCdOkBFbOk+fSaAwrFFFdKxQr58cIliDYyCsChRpJd0iqLaW20xwIjYMeYWN+9thIBxZAwszS41mrYR4O/RXBf8kIPd2X6fVVyrhfJtjPc/GVXeSWe0+uAAfenou5kikjs3qPddmR6oafWuQMdZP14nlorVleSB25QsHd3HiuvSmEbOYarltceQ6PJ64dTYPK+dgQ+hUGI0A4nYYdJEUn2wet6IjgISlZHSU5mR7dIm5FHcJxOVJlb8GZNypYwX7anHn7XuFpC5ivXemOqMCYw8JzsAaCs7IsQrsHliwC4ZHE3wKKW58y/RYbLzJCfVEwT8/u3WVy/00mY9YW+9E5V/zEZPdXZZqyxLMh9olTKVns0JlQkPspHIqOjqsCpDHkRLbKwspSWNbIWG1vSUWH2ZTgsvne6DsHRpgGs7mQRky9zVq4JSKPMmOBO70qLgs9wcicq1JUALi8aVtJpfvANQTyDNRhYo+JTDwCQAggBSawnET8JyRKMBFW1E09k1WTGfiKeAZbEYunPaXQpFNGjQ5jRA7uxebwXAP+NcSNKsDK8ylMAVnnegTTPO09qz4lnfk6koAPNFfbN8gUVGzG9ip+A6z2eMXr6pqme89tQuyur2+5N7jnjjseG37JN5B0xhwjGPEfr9wpaP5baSSTXrDA93tHdbhQKi7i07Ms+tORWx3BfplJmML++o7OYJgWmzik197GVHzfs02O7u3kD49rsVKPPk4sS8SfoUcKC6Kfg21gbGJWYrqHx0ZHIPkOqlAskovgAdOwLSxTzURQf6ldlKgd0brRpkkJe5wLa0tqWzCOoUirx57poSuluvbZnqKuVtTdziaYt/IfMVe/O77rGBUpsoquaRWzKWq1im9RtWiycMxhU1bNWhJdF8AO9k7z+PTtw+IYUW205fYRlfWxE+wledUmtm7DeRMKpWJ0Gq9O/ejk2ujv3PoZT76kyUOrZ/CLie4XVAQUwv1OLPsd7p1akvsVQQo0W0PQsTIoN8WD+0ag2tG4Trxybgv9o5aQ1oIJRzfZrSDeGNaZ6ursPKB61r442k/aGhLK7OW01PbISrZYdIuFCLaC3MPRzBUOWIacWDjeSxKMyGEko66LB0u9Q1YMct6Xsig6bYKigqql1Kdr+UXT4n6r0vd8aoECPJJaYWsWKJKtx0K6dks70K+dFhQvRjUqhgoNBKYqKKrDkNMBFf6aFTQuhtvTZWKt+L65NaEzvslwNGdUBLAwZ9gtqWNim1DQm+Sn7pkfWfO9BCwIvIdPslqrm0JC3K56BuA3b9CtmmJ0BqVq0mWYEsP8Pjyuoh1R3FxG1WgVT4SsHiRYomJviXheeUxHHaPqICAl0p9SAA75SxMbaGpsYagohaC0kq07tiaJ8kV2mfp0zHFulkrSXLSajVUFqIm5S9Ts9FGzyyBNTtAwrPbkEehSMABdMIjdKFLybEKfhPjDNIKXCtDPCf9M24sRRmllG057zrmnEJRhvyMzw6Rla9YsCZ5x0WLvkwptVkTyX0UT3v31TwjuR1/8WNYSm83ts1tyL7u04POgEsZbYP27VzKuvM1N2f9sWzAmiRTL8wT3/a8aXS4Tk1xMjLF+TVvLb3WQf3eE/WYHCPZbzX2V3PrUXNwNSCLZSoBwNJAaLxNoVH3qgX57k3yDBoeWekbyzdnvML30SQ51OgPusSqwBmI/rS0jL+yHkfNUAf+qA+n+bJ7tJ5VtYrwqPS1VA4MFeXrZO4VyY7vqL4L7+Rv3t8H914It9qseGaSjQ+gQXNqH8oI4zE7DSE40KFRa3jCfjMcf7jn9od2y7kFui0v7unZek6CRzNtSuLh09aRRTBAM054b7MGLiIc1d7HMO4V+kNL5lspkKe3G6rr3pmtBbBxNn0UNkn9bq+ynNJqUhUbiF5ATnLLfCx1BwnDH9ZD9aSbyYTtTewu8Uhpw8WLujqI5kC7/FvP+G6Fz/5DY30xEz9LDH7ukx01SM5r7P8y3PJFu7AfFAAAABmJLR0QA/wD/AP+gvaeTAAAACXBIWXMAABYlAAAWJQFJUiTwAAAAB3RJTUUH4wQSEAoLIo9oKgAAHFJJREFUeNrt3UFyFFeex/GXVcwsZkVvBlfHLIoT9HCCKaRZ22bfWMUJLE6AOIHhBEju3kPYW5DyBuYGqsXEyMKLZt9UZi8QRoBkqaSszPy//HwOQBBPBJFf3vsFKQEAAAAAAAAAAAAAAAAAAAAAAAAAAAAAAAAAAAAAAAAAAAAAAAAAAAAAAAAAAAAAAAAAAAAAAAAAAAAAAAAAAAAAAAAAAAAAAAAAAAAAAAAAAAAAAAAAAAAAAAAAAAAAAAAAAAAAAAAAAAAAAAAAAAAAAAAAAAAAAAAAAAAAAAAAAAAAAAAAAAAAAAAAAAAAAAAAAAAAAAAAAAAAAAAAAAAAAAAAAAAAAAAAAAAAAAAAAAAAAAAAAAAAAAAAAAAAAAAAAAAAAAAAAAAAAAAAAAAAAAAAAAAAAAAAAAAAAAAAEFrhCKAZ39092i3GN/5RvHv3dLecLJwIAACs38gRQIPqarsejw7ubxzNHQYAAIhaiGg6KkbPtjaPD/+6efyt4wAAAFELIeN2nNLzrc03z+azo6njAAAAUQsB1fN6PDrc+t/ffhC3AAAgaiFo29rbAgCAqIXYft/bilsAABC1EDxu7W0BAEDUQlgne1txCwAAohaCx629LQAAiFoIy94WAABELeQSt54kAwCAqIWw7G0BAEDUQh5xa28LAACiFsKytwUAAFELucStJ8kAACBqISx7WwAAELWQR9za2wIAIGqBsOxtAQAQtUAucetJMgAAohYIy94WAABRC+QRt/a2AACIWiAse1sAAEQtkEvcepIMAICoBcKytwUAQNQCecStvS0AAKIWCMveFgAAUQvkEreeJAMAIGqBsOxtAQAQtUAecWtvCwCAqAXCsrcFAEDUArnErSfJAACIWiAse1sAAEQtkEfc2tsCACBqgbDsbQEAELVALnHrSTIAAKIWCMveFgAAUQvkEbf2tgAAiFogLHtbAABELZBN3D73JBkAAFELRPWtvS0AAKIWCO7D3vbXbWcBAICoBSKajoriB3tbAABELRA8bu1tAQAQtUBs9rYAAIhaIDp7WwAARC0Qm70tAACiFsghbu1tAQAQtUBs9rYAAIhaIDp7WwAARC0Qm70tAACiFsghbu1tAQAQtUBs9rYAAIhaIDp7WwAARC0Qm70tAICoBcghbu1tAQBELUBs9rYAAKIWIDp7WwAAUQsQm70tAICoBcghbu1tAQBELUBs9rYAAKIWIDp7WwAAUQsQm70tAICoBcghbu1tAQBELUBs9rYAAKIWIDp7WwAAUQsQm70tAICoBcghbu1tAQBELUBs9rYAAKIWIDp7WwAAUQsQm70tAICoBcghbu1tAQBELUBs9rYAAKIWILr3e9vvNn575CwAAEQtQETToqh27G0BAEQtQOi4fb+3fXPgSTIAgKgFCKqe2dsCAIhagOhxa28LACBqAUKztwUAELUA8ePW3hYAQNQCBGdvCwAgagHix629LQCAqAUIzd4WAEDUAsSPW3tbAABRCxCcvS0AgKgFiB+39rYAAKIWIDR7WwAAUQsQP27tbQEARC1AcPa2AACiFiB+3NrbAgCIWoDQ7G0BAEQtQPy4tbcFAEQtAMHZ2wIAohaA+HE7r8ejA+cAAIhaAKKaOgIAQNQCAACAqAUAAABRCwAAAKIWAAAAUQsAAACiFgAAAEQtAAAAohYAAABELQAAAIhaALqwtfnm2Xx2NHUSAM2azX7+fjZ7/q2TAFELwFrV83o8Ori/cTR3FgBNxOzz2Wz200FK9ZOUxjedCFzfDUcAwAWmo2L0bGvz+FFVV4//tj/ZdSQAK8fsNKXxs5TSzGmAqAWg07h98z/Fcvl4t5wsHAnAhTF7M6Ub36dUb6eU3MzCGnh+DMCK6nk9Hh3a2wJcFLQ/f5/S+DClekfQgqgFoJ9xa28L8EXMnt7NillYN8+PAbgOe1uAjzE7tZsFUQtA6Li1twUGGbN2s9Ahz48BaJC9LTC0oLWbBVELQK5xa28LZByzdrPQF54fA7Au9rZAjjE7tZsFUQvAIOPW3hYIHbN2s9BTnh8D0BJ7WyBq0NrNgqgFgE/j1t4WCBCzdrMQgefHAHTB3hboc8xO7WZB1ALACnFrbwv0ImbtZiEgz48B6AF7W6DroLWbBVELAM3Erb0t0GLM2s1CdJ4fA9A39rZAGzE7tZsFUQsALcStvS3QaMzazUJmPD8GoOfsbYGmgtZuFkQtAHQbt/a2wBVi1m4Wcub5MQCR2NsCq8Ts1G4WRC0A9Dhu7W2BM2PWbhYGxPNjAAKztwU+D1q7WRC1ABAzbg/ub/y67SxgqDFrNwtD5fkxALmYjorih63N4+/tbWFQMTu1mwVRCwCZxe3o2dbm8TfFsnpobwvZxqzdLJBS8vwYgHx9a28LuQat3SwgagEYDHtbyCdm7WaBL3l+DMAQ2NtC7Jid2s0CohYA7G0hWszazQIX8vwYgCGyt4XeB63dLCBqAeAC9rbQv5i1mwVW4/kxAENnbwv9iNmp3SwgagHgWnFrbwsdxKzdLHAtnh8DwKfsbaG1oLWbBUQtAKyJvS2sL2afz2azn3+xmwWa4PkxAJzP3haajdnpx91s7UAAUQsA7cWtvS1cI2Y/7GZ3nAbQNM+PAeDy7G1h5aD9ZDcLIGoBoHv2tnBxzNrNAu3w/BgArsbeFs6O2andLCBqASBU3Nrbgt0s0BXPjwGgGfa2DDho7WYBUQsAmbC3ZUgxazcLdM/zYwBonr0tucfs1G4WELUAMIi4tbclq5i1mwV6x/NjAFg/e1syCFq7WUDUAsDA2dsSMWbtZoF+8/wYANplb0uUmJ3azQKiFgD4g7i1t6WXMWs3C4Ti+TEAdMvelh4Frd0sIGoBgCuxt6XLmLWbBeLy/BgA+sPelrZjdmo3C4haAGANcWtvy1pj1m4WyIbnxwDQX/a2rCFo7WYBUQsAtMreliZi1m4WyJPnxwAQg70tV43Zqd0sIGoBgB7Frb0tl4pZu1lgEDw/BoCY7G35g6C1mwVELQAQgr0tp2PWbhYYHs+PASA+e1sxO7WbBUQtAJBB3NrbDixm7WaBwfP8GADyY287iKC1mwUQtQCQtfd72+82fnvkLHKKWbtZgNM8PwaAvE2LotrZ2jye29uGj9mp3SyAqAWAwcbt+73tm61iuXxgbxsqZu1mAf6A58cAMCj1zN42UtDazQKIWgDgrLi1t+11zNrNAlyW58cAMFz2tv2L2andLICoBQBWjFt7285j1m4W4Io8PwYATtjbdhO0drMAohYAaDJu7W1biVm7WYAmeH4MAJzF3nZ9MTu1mwUQtQBAS3Frb9tYzNrNAqyB58cAwCXY214vaO1mAUQtANCHuLW3XSlmn89ms58O7WYB1sfzYwBgVfa2F8fs9ONuFgBRCwD0Mm7tbb+I2ZspjR+llLb98QBoh+fHAMA12du+D9oPu1lBCyBqAYCIcTvIva3dLEC3PD8GAJo0mL2t3SxAP7iphYb8eDCZF3X1INVp4TQAft/bHuT2JHk2e35zNvvph5OnxoIWQNRCPnb3J7tFVd2tU/3UaQCklNve1m4WQNRC/mFbThY/vvpqu1hWt+tU7TkRgJSi723tZgFELQw0bifzIqV7niQDpJQ+7m0P728czYPE7HQ2++kgpfFBSmnqRwggamF4cfvq1ou9/Vu37W0BPsZt3/e2drMAohb4PG7tbQE+08+9rd0sgKgFzgtbe1uAs+K2F3tbu1kAUQusFLf2tgCndLa3tZsFELXAVePW3hbgi7hta29rNwsgaoGm4tbeFuAz693b2s0CiFqg6bC1twU4K27n9Xh0cH/j10bi8+Spsd0sgKgF1hu39rYAp0xHqfhLQ7/WLNnNAohaoIW4tbcFAABRC+Hj1t4WAABELYQOW3tbAAAQtZBH3NrbAgCAqIXIcWtvCwAAohbCx629LQAAohYIHbb2tgAAiFogj7idzIuiuutJMgAAohaIGbcvJ6W9LQAAohaIHbcne9uiqB47DQAARC0QL2zLyWL35WTH3hYAAFELhI5be1sAAEQtEDtu7W0BABC1QPi4tbcFAEDUAqHD1t4WAABRC+QQt/a2AACIWiB23NrbAgAgaoHwcWtvCwCAqAVCh629LQAAohbIIW7tbQEAELVA7Li1twUAQNQC4ePW3hYAAFELhA5be1sAAEQtkEPc2tsCACBqgdhxa28LAICoBcLHrb0tAACiFggdtva2AACIWiCHuLW3BQBA1AKx49beFgAAUQuEj1t7WwAARC0QOmztbQEAELVADnFrbwsAgKgFYsetvS0AAKIWCB+39rYAAIhaIHTY2tsCACBqgRzi1t4WAABRC8SOW3tbAABELRA+bu1tAQAQtUDosLW3BQBA1AI5xK29LQAAohaIHbf2tgAAiFogfNza2wIAIGqB0GFrbwsAIGodAZBD3NrbAgCIWoDYcWtvCwAgagHCx629LQCAqAUIHbb2tgAAohYgh7i1twUAELUAsePW3hYAQNQChI9be1sAAFELEDps7W0BAEQtQA5xa28LACBqAWLHrb0tAICoBQgft/a2AACiFiB02NrbAgCIWoAc4tbeFgBA1ALEjlt7WwAAUQsQPm7tbQEARC1A6LC1twUAELUAOcStvS0AgKgFiB239rYAAKIWIHzc2tsCAIhagNBha28LACBqAXKIW3tbAABRCxA7bu1tAQBELUD4uN2f7BbVv9+xtwUAELUAMcO2/NNbe1sAAFELEDxuT/a2y3/e8SQZAEDUAgSN2/96bW8LACBqAWLHrb0tAICoBQgdtva2AACiFiB+3NrbAgCIWoDwcWtvCwAgagGix629LQCAqAUIHbb2tgAAohYgftza2wIAiFqA8HFrbwsAIGoBosetvS0AgKgFCB229rYAAKIWIH7c2tsCAKIWgPBxa28LAIhaAKLH7cne1kkAAKIWgJhhW/7prVMAAEQtAAAAiFoAAAAQtQAAACBqAQAAELUAAAAgagEAAEDUAgAAIGoBAABA1AIAAICoBaALRb18mOq0cBIAjdtNafnCMYCoBWCdX1z7f35SVNXdOlV7TgOgEWVKy7tl+fWDsrz31nHA9d1wBAD8YdiWk0VKaT6fHe1U47RTpNGWUwFY2SKl5cOyvOd2FhrmphaAS8ftj68m86KuHniSDHBpb1OqH6e0vCNoYT3c1AKwWtzuT3ZTSrvzjaN5nUaPUpGmTgXg7L8yT25nPTOGNXJTC8CV49beFuBMpd0stMdNLQBXD1t7W4DTFnaz0D43tQA0Erf2tsCA2c1Ch9zUAtBc3NrbAgP8q89uFrrlphaAtcStvS2QudJuFvrBTS0A6wlbe1sgT4uUlg/K8l7pKKAf3NQCsPa4tbcFMnB6NytooUfc1ALQTtza2wJh1U9TqnY8M4Z+clMLQOtxa28LBFG+381+sy1oob/c1ALQftja2wL9trCbhTjc1ALQadza2wI9YjcLAbmpBaD7uLW3BTpnNwtRuakFoFdxa28LtKy0m4XY3NQC0K+wtbcF2rGwm4U8uKkFoLdxa28LrIHdLIhaAIZiPjuadh63+5Pdvf1bt8UtcH3105SWt8vyG9tZELUADOLzbzw6/G7jt0d9+L3Y2wLXUNrNgqgFYKCKotrZ2jw+vL9xNO88bD88SV5Wt8UtcAmL9zH79V1PjUHUAjBs01Exera1eXw4n/3ff/cmbj1JBs5mNwuiFgDOjtt6/G+/bG2+eWZvC/ST3SyIWgC4+KNx/mFvO58d3uxD3NrbwuCVdrMgagFgJUVR7dTj//jF3hbo0MJuFkQtAFyHvS3QBbtZQNQC0Gzc2tsC7bCbBUQtAOv72LS3BdaltJsFRC0ArbC3BRq0sJsFRC0AXbC3Ba7DbhYQtQD0I27tbYHV2M0CohaA/n2k9nRvWz/1s4HeKN/fzNrNAqIWgJ7q3972q217W+jc4tRu9rXjAEQtAH3Xz71tSvc8SYZWvU2pflyWX9+2mwVELQAh47ZXe9tXt17Y20JbPu5mnQUgagGI/nFrbwvDUdrNAqIWgCzZ20LWFnazgKgFYAjsbSEvdrOAqAVgmHFrbwvR2c0CohYAH8X2thBPaTcLiFoAOMXeFkJY2M0CohYAzmdvC/1kNwuIWgBYJW7tbaEv7GYBUQsAV/2YtreF7pR2s4CoBYAG2NtCqxZ2s4CoBYDm2dvCetnNAqIWANqIW3tbaJrdLCBqAaDtj3B7W7i+0m4WELUA0CF7W7iShd0sIGoBoD/sbeFy7GYBUQsAfY5be1s4j90sIGoBIMrHu70tfFTazQKiFgACsrdl4BZ2s4CoBYD47G0ZGrtZQNQCQI5xa29L/uxmAVELALl/9NvbkqPyJGbtZgFRCwBDYG9LJhandrMLxwGIWgAYFntbonqbUnpoNwuIWgAgJXtbQvmwm/36ibMARC0AcDoWTu1texC39rZ8qrSbBUQtAHCh93vb0YG9LT2xsJsFRC0AsKrf97Z/nR3N+hG3k3lRVHc9SR4Mu1lA1DoCALh+3I7Ho4Pe7G1fTkp72yGwmwUQtQDQbGT0cm9bFNVjP5uslHazAKIWANamb3vb3ZeTHXvbLCzsZgFELQC0xd6WptjNAohaAOgubu1tuTq7WQBRCwD9iBN7W1ZR2s0CiFoA6B17Wy6wsJsFELUA0Hf2tnzObhZA1AJAvLi1t8VuFkDUAkD0qLG3HabSbhZA1AJANuxtB2NhNwsgagEgV/a2+bKbBRC1ADCcuLW3zYndLICoBYBhxpC9bWyl3SyAqAWAwbO3DWdhNwsgagGAT9nb9p/dLICoBQAuilt72z6qH9vNAohaAODyEWVv2w/lyW52x24WQNQCACuyt+1K/dpuFkDUAgDNsLdtz8lu9ps7drMAohYAaDhu7W3XyW4WQNQCAG3El71ts0q7WQBRCwC0zN722v84YDcLIGoBgI7Z267ObhZA1AIAfYtbe9vLsJsFELUAQI/Z256jtJsFELUAQBD2tr9Hvt0sgKgFAIIa8t7WbhZA1AIAucTtsPa2drMAuSgcAQDn2do8rp3CMNX1aGdUvdvbLSeLrn8v89k/bqb0z+lu+Z+vr/trzWY/z1J6t/DMGEDUAiBqyd+iqqvHf9uf7DoKAEQtAKKWsHG7XFYP/l5OSkcBQN/Y1AIAF+nV3hYATnNTC8C53NRylj7tbQHATS0AsJI+/f+2AOCmFoBzuanlEhbLlB7+/dWtF44CgC64qQUArmM6Tum5vS0AXXFTC8C53NSy+pfF6Enx7t1Te1sA2uKmFgBoTl1t29sC0CY3tQCcy00t12RvC8DauakFANbF3haAtXNTC8C53NTS7FeHvS0AzXNTCwC0w94WgDVwUwvAudzUskb2tgA0wk0tANAFe1sAGuGmFoBzuamlvS8Se1sArsZNLQDQPXtbAK7ITS0A53JTS0fsbQG4NDe1AEDf2NsCcGluagE4l5ta+vG1Ym8LwPluOAIAoNfqarsejW6mlB44DAA+5/kxAAAAohYAAABELQAAAIhaAAAARC0AAACIWgAAABC1AAAAIGoBAAAQtQAAACBqAQAAQNQCAAAgagEAAEDUAgAAgKgFAAAAUQsAAICoBQAAAFELAAAAohYAAABRCwAAAKIWAAAARC0AAACIWgAAAEQtAAAAiFoAAAAQtQAAAIhaAAAAELUAAAAgagEAAEDUAgAAIGoBAABA1AIAAICoBQAAQNQCAACAqAUAAABRCwAAAKIWAAAAUQsAAACiFgAAAEQtAAAAohYAAABELQAAAIhaAAAAELUAAACIWgAAABC1AAAAIGoBAAAQtQAAACBqAQAAQNQCAACAqAUAAEDUAgAAgKgFAAAAUQsAAACiFgAAAFELAAAAohYAAABELQAAAKIWAAAARC0AAACIWgAAABC1AAAAiFoAAAAQtQAAACBqAQAAELUAAAAgagEAAEDUAgAAgKgFAABA1AIAAICoBQAAAFELAACAqAUAAABRCwAAAKIWAAAARC0AAACiFgAAAEQtAAAAiFoAAABELQAAAIhaAAAAELUAAAAgagEAABC1AAAAIGoBAABA1AIAACBqAQAAQNQCAACAqAUAAABRCwAAgKgFAAAAUQsAAACiFgAAAFELAF+q08IhAACiFoCQ9vZv3S6K6nGqi7dOAwAQtQCEs/tyslNUyzt1qvacBgAgagGIF7blZPHjq8m8WFa3U0qvnQgAIGoBCBm3e69u3Snq6oG9LQAgagGIGbf7k117WwBA1AIQO27tbQEAUQtA6LC1twUARC0AOcStvS0AIGoBiB239rYAgKgFIHzc2tsCAKIWgNBha28LAIhaAHKIW3tbAEDUAhA7bu1tAQBRC0D4uLW3BQBELQChw9beFgAQtQDkELf2tgCAqAUgdtza2wIAohaA8HFrbwsAiFoAQoetvS0AIGoByCFu7W0BAFELQOy4tbcFAEQtAOHj1t4WABC1AIQOW3tbAEDUApBD3NrbAgCiFoDYcWtvCwCiFgDCx629LQCIWgAIHbaf7G3r0okAgKgFgJBxu/fqq7v2tgAgagEgbtx+srcVtwAgagEgYty+nOwUVXXX3hYARC0AxAxbe1sAELUAkEPc2tsCgKgFgNhxa28LAKIWAMLHrb0tAIhaAAgdtva2ACBqASCHuLW3BQBRCwCx49beFgBELQCEj1t7WwAQtQAQOmztbQFA1AJADnFrbwsAohYAYsetvS0AiFoACB+39rYAIGoBIHTY2tsCgKgFgBzi1t4WAEQtAMSOW3tbABC1ABA+bu1tAUDUAkDosLW3BQBRCwA5xK29LQCIWgCIHbf2tgAgagEgfNza2wKAqAWA0GFrbwsAohYAcohbe1sAELUAEDtu7W0BQNQCQPi4tbcFAFELAKHD1t4WAEQtAOQQt/a2ACBqASB23NrbAoCoBYDwcWtvCwCiFgBCh629LQCIWgDIIW7tbQFA1AJA7Li1twUAUQsA4ePW3hYAUQsAhA5be1sARC0AkEPc2tsCIGoBgNhxa28LgKgFAMLHrb0tAKIWAAgdtva2AIhaACCHuLW3BUDUAgCx49beFgBRCwCEj1t7WwBELQAQOmztbQEQtQBADnFrbwuAqAUAYsetvS0AohYACB+39rYAiFoAIHTY2tsCIGoBgBzi1t4WAFELAMSOW3tbAEQtABA+bu1tARC1AEDosLW3BUDUAgA5xK29LQCiFgCIHbf2tgCIWgAgfNza2wIgagGA0GFrbwuAqAUAcohbe1sARC0AEDtu7W0BELUAQPi4tbcFQNQCAKHD1t4WAFELAOQQt/a2AIhaACB23H7Y29bLh+IWAFELAASN2z8/sbcFQNQCAHHD9tO97QsnAoCoBQBCxu3eq6/u2dsCAAAQ3nzj/7fnG0c7TgIAAAAAAAAAAAAAAAAAAAAAAAAAAAAAAAAAAAAAAAAAAAAAAAAAAAAAAAAAAAAAAAAAAAAAAAAAAAAAAAAAAAAAAAAAAAAAAAAAAAAAAAAAAAAAAAAAAAAAAAAAAAAAAAAAAAAAAAAAAAAAAAAAAAAAAAAAAAAAAAAAAAAAAAAAAAAAAAAAAAAAAAAAAAAAAAAAAAAAAAAAAAAAAAAAAAAAAAAAAAAAAAAAAAAAAAAAAAAAAAAAAAAAAAAAAAAAAAAAAAAAAAAAAAAAAAAAAAAAAAAAAAAAAAAAgBb8C70HhvqxspEsAAAAAElFTkSuQmCC;" vertex="1" parent="tQHMTcdeYaFuNHWwaCvj-1">
          <mxGeometry x="709.37" y="489.49" width="201.26" height="151" as="geometry" />
        </mxCell>
        <mxCell id="tQHMTcdeYaFuNHWwaCvj-29" value="" style="group" vertex="1" connectable="0" parent="tQHMTcdeYaFuNHWwaCvj-1">
          <mxGeometry x="1250" y="440" width="335" height="230" as="geometry" />
        </mxCell>
        <mxCell id="tQHMTcdeYaFuNHWwaCvj-30" value="" style="group" vertex="1" connectable="0" parent="tQHMTcdeYaFuNHWwaCvj-29">
          <mxGeometry width="335" height="230" as="geometry" />
        </mxCell>
        <mxCell id="tQHMTcdeYaFuNHWwaCvj-31" value="" style="group" vertex="1" connectable="0" parent="tQHMTcdeYaFuNHWwaCvj-30">
          <mxGeometry width="335" height="230" as="geometry" />
        </mxCell>
        <mxCell id="tQHMTcdeYaFuNHWwaCvj-32" value="" style="rounded=0;whiteSpace=wrap;html=1;" vertex="1" parent="tQHMTcdeYaFuNHWwaCvj-31">
          <mxGeometry width="335" height="230" as="geometry" />
        </mxCell>
        <mxCell id="tQHMTcdeYaFuNHWwaCvj-33" value="Azure Data Lake Storage Gen 2&lt;div&gt;Storage account&lt;/div&gt;" style="image;aspect=fixed;html=1;points=[];align=left;fontSize=15;image=img/lib/azure2/storage/Storage_Accounts.svg;labelPosition=right;verticalLabelPosition=middle;verticalAlign=middle;fontStyle=1" vertex="1" parent="tQHMTcdeYaFuNHWwaCvj-31">
          <mxGeometry x="7.976190476190476" y="9.998292682926827" width="50.580720092915215" height="40.46457607433218" as="geometry" />
        </mxCell>
        <mxCell id="tQHMTcdeYaFuNHWwaCvj-34" value="" style="group" vertex="1" connectable="0" parent="tQHMTcdeYaFuNHWwaCvj-31">
          <mxGeometry x="87.73809523809524" y="87.75" width="119.64285714285715" height="54.5" as="geometry" />
        </mxCell>
        <mxCell id="tQHMTcdeYaFuNHWwaCvj-35" value="" style="rounded=0;whiteSpace=wrap;html=1;" vertex="1" parent="tQHMTcdeYaFuNHWwaCvj-34">
          <mxGeometry width="119.64285714285715" height="54.5" as="geometry" />
        </mxCell>
        <mxCell id="tQHMTcdeYaFuNHWwaCvj-36" value="" style="group" vertex="1" connectable="0" parent="tQHMTcdeYaFuNHWwaCvj-31">
          <mxGeometry x="94.91666666666667" y="98" width="119.64285714285715" height="54.5" as="geometry" />
        </mxCell>
        <mxCell id="tQHMTcdeYaFuNHWwaCvj-37" value="" style="rounded=0;whiteSpace=wrap;html=1;" vertex="1" parent="tQHMTcdeYaFuNHWwaCvj-36">
          <mxGeometry width="119.64285714285715" height="54.5" as="geometry" />
        </mxCell>
        <mxCell id="tQHMTcdeYaFuNHWwaCvj-38" value="" style="group" vertex="1" connectable="0" parent="tQHMTcdeYaFuNHWwaCvj-31">
          <mxGeometry x="102.89285714285715" y="108" width="119.64285714285715" height="54.5" as="geometry" />
        </mxCell>
        <mxCell id="tQHMTcdeYaFuNHWwaCvj-39" value="" style="rounded=0;whiteSpace=wrap;html=1;" vertex="1" parent="tQHMTcdeYaFuNHWwaCvj-38">
          <mxGeometry width="119.64285714285715" height="54.5" as="geometry" />
        </mxCell>
        <mxCell id="tQHMTcdeYaFuNHWwaCvj-40" value="" style="group" vertex="1" connectable="0" parent="tQHMTcdeYaFuNHWwaCvj-31">
          <mxGeometry x="110.86904761904762" y="118" width="119.64285714285715" height="54.5" as="geometry" />
        </mxCell>
        <mxCell id="tQHMTcdeYaFuNHWwaCvj-41" value="Container N" style="rounded=0;whiteSpace=wrap;html=1;" vertex="1" parent="tQHMTcdeYaFuNHWwaCvj-40">
          <mxGeometry width="119.64285714285715" height="54.5" as="geometry" />
        </mxCell>
        <mxCell id="tQHMTcdeYaFuNHWwaCvj-42" value="" style="aspect=fixed;sketch=0;html=1;dashed=0;whitespace=wrap;fillColor=#2875E2;strokeColor=#ffffff;points=[[0.005,0.63,0],[0.1,0.2,0],[0.9,0.2,0],[0.5,0,0],[0.995,0.63,0],[0.72,0.99,0],[0.5,1,0],[0.28,0.99,0]];shape=mxgraph.kubernetes.icon2;kubernetesLabel=1;prIcon=role" vertex="1" parent="tQHMTcdeYaFuNHWwaCvj-1">
          <mxGeometry x="1550" y="725" width="50" height="48" as="geometry" />
        </mxCell>
        <mxCell id="tQHMTcdeYaFuNHWwaCvj-43" style="edgeStyle=orthogonalEdgeStyle;rounded=0;orthogonalLoop=1;jettySize=auto;html=1;exitX=0.5;exitY=0;exitDx=0;exitDy=0;exitPerimeter=0;entryX=0.5;entryY=1;entryDx=0;entryDy=0;" edge="1" parent="tQHMTcdeYaFuNHWwaCvj-1" source="tQHMTcdeYaFuNHWwaCvj-45" target="tQHMTcdeYaFuNHWwaCvj-32">
          <mxGeometry relative="1" as="geometry" />
        </mxCell>
        <mxCell id="tQHMTcdeYaFuNHWwaCvj-44" value="HAS SCOPE" style="edgeLabel;html=1;align=center;verticalAlign=middle;resizable=0;points=[];" vertex="1" connectable="0" parent="tQHMTcdeYaFuNHWwaCvj-43">
          <mxGeometry x="0.1062" relative="1" as="geometry">
            <mxPoint as="offset" />
          </mxGeometry>
        </mxCell>
        <mxCell id="tQHMTcdeYaFuNHWwaCvj-45" value="Role assignment" style="aspect=fixed;sketch=0;html=1;dashed=0;whitespace=wrap;fillColor=#2875E2;strokeColor=#ffffff;points=[[0.005,0.63,0],[0.1,0.2,0],[0.9,0.2,0],[0.5,0,0],[0.995,0.63,0],[0.72,0.99,0],[0.5,1,0],[0.28,0.99,0]];shape=mxgraph.kubernetes.icon2;prIcon=c_role;labelPosition=center;verticalLabelPosition=bottom;align=center;verticalAlign=top;fontStyle=1" vertex="1" parent="tQHMTcdeYaFuNHWwaCvj-1">
          <mxGeometry x="1392.5" y="725" width="50" height="48" as="geometry" />
        </mxCell>
        <mxCell id="tQHMTcdeYaFuNHWwaCvj-46" style="edgeStyle=orthogonalEdgeStyle;rounded=0;orthogonalLoop=1;jettySize=auto;html=1;exitX=0.995;exitY=0.63;exitDx=0;exitDy=0;exitPerimeter=0;entryX=0.005;entryY=0.63;entryDx=0;entryDy=0;entryPerimeter=0;" edge="1" parent="tQHMTcdeYaFuNHWwaCvj-1" source="tQHMTcdeYaFuNHWwaCvj-45" target="tQHMTcdeYaFuNHWwaCvj-42">
          <mxGeometry relative="1" as="geometry" />
        </mxCell>
        <mxCell id="tQHMTcdeYaFuNHWwaCvj-47" style="edgeStyle=orthogonalEdgeStyle;rounded=0;orthogonalLoop=1;jettySize=auto;html=1;exitX=1;exitY=0.5;exitDx=0;exitDy=0;entryX=0.005;entryY=0.63;entryDx=0;entryDy=0;entryPerimeter=0;" edge="1" parent="tQHMTcdeYaFuNHWwaCvj-1" source="tQHMTcdeYaFuNHWwaCvj-5" target="tQHMTcdeYaFuNHWwaCvj-45">
          <mxGeometry relative="1" as="geometry">
            <Array as="points">
              <mxPoint x="1150" y="555" />
              <mxPoint x="1150" y="755" />
            </Array>
          </mxGeometry>
        </mxCell>
        <mxCell id="tQHMTcdeYaFuNHWwaCvj-48" value="APPLY" style="edgeLabel;html=1;align=center;verticalAlign=middle;resizable=0;points=[];fontStyle=1" vertex="1" connectable="0" parent="tQHMTcdeYaFuNHWwaCvj-47">
          <mxGeometry x="-0.7149" relative="1" as="geometry">
            <mxPoint as="offset" />
          </mxGeometry>
        </mxCell>
      </root>
    </mxGraphModel>
  </diagram>
  <diagram name="Unprovisioning" id="EFrypm149renJ2B9cyiy">
    <mxGraphModel dx="475" dy="278" grid="1" gridSize="10" guides="1" tooltips="1" connect="1" arrows="1" fold="1" page="1" pageScale="1" pageWidth="850" pageHeight="1100" math="0" shadow="0">
      <root>
        <mxCell id="3dwIg2GyyQ7QE6z8QwCl-0" />
        <mxCell id="3dwIg2GyyQ7QE6z8QwCl-1" parent="3dwIg2GyyQ7QE6z8QwCl-0" />
        <mxCell id="3dwIg2GyyQ7QE6z8QwCl-2" value="" style="rounded=0;whiteSpace=wrap;html=1;glass=0;shadow=1;textShadow=1;" vertex="1" parent="3dwIg2GyyQ7QE6z8QwCl-1">
          <mxGeometry x="1170" y="275" width="480" height="550" as="geometry" />
        </mxCell>
        <mxCell id="3dwIg2GyyQ7QE6z8QwCl-3" value="" style="rounded=1;whiteSpace=wrap;html=1;arcSize=3;fillColor=#f5f5f5;fontColor=#333333;strokeColor=#666666;fontSize=13;" vertex="1" parent="3dwIg2GyyQ7QE6z8QwCl-1">
          <mxGeometry x="1199" y="365" width="421" height="320" as="geometry" />
        </mxCell>
        <mxCell id="3dwIg2GyyQ7QE6z8QwCl-4" style="edgeStyle=orthogonalEdgeStyle;rounded=0;orthogonalLoop=1;jettySize=auto;html=1;exitX=1;exitY=0.5;exitDx=0;exitDy=0;entryX=0;entryY=0.5;entryDx=0;entryDy=0;" edge="1" parent="3dwIg2GyyQ7QE6z8QwCl-1" source="3dwIg2GyyQ7QE6z8QwCl-5" target="3dwIg2GyyQ7QE6z8QwCl-32">
          <mxGeometry relative="1" as="geometry" />
        </mxCell>
        <mxCell id="3dwIg2GyyQ7QE6z8QwCl-5" value="Terraform Specific Provisioner" style="rounded=0;whiteSpace=wrap;html=1;fontStyle=1;strokeWidth=2;fontSize=13;verticalAlign=top;fillColor=#dae8fc;strokeColor=#6c8ebf;" vertex="1" parent="3dwIg2GyyQ7QE6z8QwCl-1">
          <mxGeometry x="650" y="455" width="320" height="200" as="geometry" />
        </mxCell>
        <mxCell id="3dwIg2GyyQ7QE6z8QwCl-6" style="edgeStyle=orthogonalEdgeStyle;rounded=0;orthogonalLoop=1;jettySize=auto;html=1;fontSize=13;" edge="1" parent="3dwIg2GyyQ7QE6z8QwCl-1" source="3dwIg2GyyQ7QE6z8QwCl-22" target="3dwIg2GyyQ7QE6z8QwCl-5">
          <mxGeometry relative="1" as="geometry">
            <mxPoint x="650" y="465" as="targetPoint" />
            <mxPoint x="410" y="464.4999999999998" as="sourcePoint" />
            <Array as="points">
              <mxPoint x="600" y="566" />
              <mxPoint x="600" y="566" />
            </Array>
          </mxGeometry>
        </mxCell>
        <mxCell id="3dwIg2GyyQ7QE6z8QwCl-7" value="Unprovisioning request" style="edgeLabel;html=1;align=center;verticalAlign=middle;resizable=0;points=[];fontSize=13;" vertex="1" connectable="0" parent="3dwIg2GyyQ7QE6z8QwCl-6">
          <mxGeometry x="0.0837" y="2" relative="1" as="geometry">
            <mxPoint x="-11" y="-9" as="offset" />
          </mxGeometry>
        </mxCell>
        <mxCell id="3dwIg2GyyQ7QE6z8QwCl-8" value="A&lt;br style=&quot;font-size: 13px;&quot;&gt;P&lt;br style=&quot;font-size: 13px;&quot;&gt;I" style="rounded=0;whiteSpace=wrap;html=1;fontStyle=1;strokeWidth=2;fontSize=13;fillColor=#dae8fc;strokeColor=#6c8ebf;" vertex="1" parent="3dwIg2GyyQ7QE6z8QwCl-1">
          <mxGeometry x="650" y="425" width="25" height="260" as="geometry" />
        </mxCell>
        <mxCell id="3dwIg2GyyQ7QE6z8QwCl-9" value="" style="group;fontSize=13;" vertex="1" connectable="0" parent="3dwIg2GyyQ7QE6z8QwCl-1">
          <mxGeometry x="530" y="495" width="40" height="43" as="geometry" />
        </mxCell>
        <mxCell id="3dwIg2GyyQ7QE6z8QwCl-10" value="" style="shape=note;whiteSpace=wrap;html=1;backgroundOutline=1;darkOpacity=0.05;size=13;fontSize=13;" vertex="1" parent="3dwIg2GyyQ7QE6z8QwCl-9">
          <mxGeometry width="40" height="43" as="geometry" />
        </mxCell>
        <mxCell id="3dwIg2GyyQ7QE6z8QwCl-11" value="" style="endArrow=none;html=1;rounded=0;fontSize=13;" edge="1" parent="3dwIg2GyyQ7QE6z8QwCl-9">
          <mxGeometry width="50" height="50" relative="1" as="geometry">
            <mxPoint x="3.333333333333334" y="18.305714285714295" as="sourcePoint" />
            <mxPoint x="36.66666666666667" y="18.305714285714295" as="targetPoint" />
          </mxGeometry>
        </mxCell>
        <mxCell id="3dwIg2GyyQ7QE6z8QwCl-12" value="" style="endArrow=none;html=1;rounded=0;fontSize=13;" edge="1" parent="3dwIg2GyyQ7QE6z8QwCl-9">
          <mxGeometry width="50" height="50" relative="1" as="geometry">
            <mxPoint x="3.333333333333334" y="24.571428571428573" as="sourcePoint" />
            <mxPoint x="36.66666666666667" y="24.571428571428573" as="targetPoint" />
          </mxGeometry>
        </mxCell>
        <mxCell id="3dwIg2GyyQ7QE6z8QwCl-13" value="" style="endArrow=none;html=1;rounded=0;fontStyle=0;fontSize=13;" edge="1" parent="3dwIg2GyyQ7QE6z8QwCl-9">
          <mxGeometry width="50" height="50" relative="1" as="geometry">
            <mxPoint x="3.333333333333334" y="30.71428571428571" as="sourcePoint" />
            <mxPoint x="36.66666666666667" y="30.71428571428571" as="targetPoint" />
          </mxGeometry>
        </mxCell>
        <mxCell id="3dwIg2GyyQ7QE6z8QwCl-14" value="" style="endArrow=none;html=1;rounded=0;fontSize=13;" edge="1" parent="3dwIg2GyyQ7QE6z8QwCl-9">
          <mxGeometry width="50" height="50" relative="1" as="geometry">
            <mxPoint x="3.333333333333334" y="36.85714285714286" as="sourcePoint" />
            <mxPoint x="36.66666666666667" y="36.85714285714286" as="targetPoint" />
          </mxGeometry>
        </mxCell>
        <mxCell id="3dwIg2GyyQ7QE6z8QwCl-15" value="yaml descriptor" style="text;html=1;align=center;verticalAlign=middle;resizable=0;points=[];autosize=1;strokeColor=none;fillColor=none;fontSize=13;" vertex="1" parent="3dwIg2GyyQ7QE6z8QwCl-1">
          <mxGeometry x="495" y="465" width="110" height="30" as="geometry" />
        </mxCell>
        <mxCell id="3dwIg2GyyQ7QE6z8QwCl-16" style="edgeStyle=orthogonalEdgeStyle;shape=connector;curved=1;rounded=0;hachureGap=4;orthogonalLoop=1;jettySize=auto;html=1;entryX=0;entryY=0.5;entryDx=0;entryDy=0;labelBackgroundColor=default;strokeColor=default;fontFamily=Helvetica;fontSize=16;fontColor=default;endArrow=classic;" edge="1" parent="3dwIg2GyyQ7QE6z8QwCl-1" source="3dwIg2GyyQ7QE6z8QwCl-18" target="3dwIg2GyyQ7QE6z8QwCl-21">
          <mxGeometry relative="1" as="geometry" />
        </mxCell>
        <mxCell id="3dwIg2GyyQ7QE6z8QwCl-17" value="Deploy,&lt;br&gt;update DP" style="edgeLabel;html=1;align=center;verticalAlign=middle;resizable=0;points=[];fontSize=16;fontFamily=Helvetica;fontColor=default;" vertex="1" connectable="0" parent="3dwIg2GyyQ7QE6z8QwCl-16">
          <mxGeometry x="-0.0027" y="-2" relative="1" as="geometry">
            <mxPoint x="2" y="-26" as="offset" />
          </mxGeometry>
        </mxCell>
        <mxCell id="3dwIg2GyyQ7QE6z8QwCl-18" value="DP team" style="shape=umlActor;verticalLabelPosition=bottom;verticalAlign=top;html=1;outlineConnect=0;hachureGap=4;fontFamily=Helvetica;fontSize=16;fontColor=default;" vertex="1" parent="3dwIg2GyyQ7QE6z8QwCl-1">
          <mxGeometry x="40" y="305.25" width="60" height="117.5" as="geometry" />
        </mxCell>
        <mxCell id="3dwIg2GyyQ7QE6z8QwCl-19" value="" style="edgeStyle=orthogonalEdgeStyle;shape=connector;curved=1;rounded=0;hachureGap=4;orthogonalLoop=1;jettySize=auto;html=1;labelBackgroundColor=default;strokeColor=default;fontFamily=Helvetica;fontSize=16;fontColor=default;endArrow=classic;" edge="1" parent="3dwIg2GyyQ7QE6z8QwCl-1" source="3dwIg2GyyQ7QE6z8QwCl-21" target="3dwIg2GyyQ7QE6z8QwCl-22">
          <mxGeometry relative="1" as="geometry" />
        </mxCell>
        <mxCell id="3dwIg2GyyQ7QE6z8QwCl-20" value="Deploy,&lt;br&gt;update DP" style="edgeLabel;html=1;align=center;verticalAlign=middle;resizable=0;points=[];fontSize=16;fontFamily=Helvetica;fontColor=default;" vertex="1" connectable="0" parent="3dwIg2GyyQ7QE6z8QwCl-19">
          <mxGeometry x="0.3239" relative="1" as="geometry">
            <mxPoint y="-24" as="offset" />
          </mxGeometry>
        </mxCell>
        <mxCell id="3dwIg2GyyQ7QE6z8QwCl-21" value="" style="rounded=0;whiteSpace=wrap;html=1;hachureGap=4;fontFamily=Helvetica;fontSize=20;verticalAlign=middle;fillColor=#fff2cc;strokeColor=#d6b656;glass=0;" vertex="1" parent="3dwIg2GyyQ7QE6z8QwCl-1">
          <mxGeometry x="230" y="304" width="200" height="120" as="geometry" />
        </mxCell>
        <mxCell id="3dwIg2GyyQ7QE6z8QwCl-22" value="Provisioning Coordinator" style="whiteSpace=wrap;html=1;fontSize=20;fontFamily=Helvetica;fillColor=#fff2cc;strokeColor=#d6b656;rounded=0;hachureGap=4;glass=0;" vertex="1" parent="3dwIg2GyyQ7QE6z8QwCl-1">
          <mxGeometry x="230" y="505.62" width="200" height="118.75" as="geometry" />
        </mxCell>
        <mxCell id="3dwIg2GyyQ7QE6z8QwCl-23" value="" style="shape=image;verticalLabelPosition=bottom;labelBackgroundColor=default;verticalAlign=top;aspect=fixed;imageAspect=0;image=data:image/png,iVBORw0KGgoAAAANSUhEUgAABUgAAAD3CAYAAADPJr6lAAAACXBIWXMAAC4jAAAuIwF4pT92AAAgAElEQVR4nO3dDWyd5Z3n/dsvcV6c4KQYesIWbCbMUCpaG3V2mzIRNh0x7fOwTMxoZmiXleyUjlQ98gpn9lkRFkYxGlhAOzsx6pGekaZVbGn7UGZmi720O2VQi82klHbbSVwQlDZpYtomh3AgMYnz4tfV5fxPuOP45bzcL9f/ur4fKYLOtDn3uX18n/v63f///6qam5sLAACISz6bsfmLZqSxO9duwXGkLp/NNAdB0KXw0Icbu3PDFhwHAAAAAKVq+cEBAIAgCExAulvpiSAgBQAAgLfy2UyX5cUO/Y3duX4LjmNJBKQAAAAAAACAXqbYoc3io7e+oKHagmMAAAAAAAAAgFQQkAIAAAAAAADwFgEpAAAAAAAAAG8RkAIAAAAAAADwFgEpAAAAAAAAAG8RkAIAAAAAAADwFgEpAAAAAAAAAG8RkAIAAAAAAADwFgEpAAAAAAAAAG8RkAIAAAAAAADwFgEpAAAAAAAAAG8RkAIAAAAAAADwFgEpAAAAAAAAAG8RkAIAAAAAAADwFgEpAAAAAAAAAG8RkAIAAAAAAADwVi0/egAAAABanXnliaa5yVN3m8OfPT/eFsyc3zT/72eO3zg3dWbNwrc1N31m9cyJQ2vNv1evv2a2eu2V7y/21msamkcL/1697urB+X+pXfvj+lsf3seHBQAAtxCQAgAAALDexEsP9cxNn7l5bvL0DTPjR1rCQWe5Zk8frZ49fXTjYv/z6XdebQv9x4v/fvZfskF1/ebp6nWNp6vXX3Okqm7DkerVDSNVdRueXbd11xifJAAA9CEgBQAAAGAVE4aaatDZU7/aOns231BpEBq12YljtbMTxzYG77zaGgSB+dMRBMGesz/92lxNQ/O4qT41VaeEpgAA6EBACgAAACBV84HomeMdpjJ0+p1XF63o1GBu8lSVOX6pPjV/9pw/9NzZ6g3XHq1Zv3m4et2H/5LAFAAA+xCQAgAAAEjUxL7ee2bP5j8/896b7ZoD0WKY6teZE4e2TAXBliAI7jOBac3GG96s2fCRgfrbHuuz/x0AAOA+AlIAAAAAsTOh6Mz44V3Tx396s2lR9/WMS2A635p/7md/99e1mU/+suaKpr9f3/7kgxYcHgAAXiIgBQAAABALQtHlmZb8qbeGTXXprvM//+YDhKUAAKSDmxQAAAAAkTnzyhNNM6d+3Td9fP9nbdtcyWYLw9JV/+rW0ZpNv/0f6m99eJ/v5wYAgLgRkAIAAAComNloafrkoW4T8nE2K2PC0snDz7cGh5//56lfjZysverm/7H+M3u+pPk9AQBgMwJSAAAAAGUx1aKzZ97+i8mx4U5a6OMhu+Lfd/7gt75Yd137S9VXND1MVSkAANHiJgYAAABASebb6E8eGph8a/g2U+3I2YufOc/nDz7XFgTBP0/nXztU23hzF0EpAADRICAFAAAAUJSJlx/dNnPiF1+Z+s3LLQSj6ZmfVfrW8D/PvPvGr2oamv+6/rbH+nw9FwAARIGAFAAAAMCyTMXo1PED32W+qF0mx757bRAEe6aO/Wj3qn/1e1+u39b7jO/nBACAchCQAgAAAFgUrfQ6yJzSb0y/97PHaL0HAKB0BKQAAAAALnPqhe5nJw8/v51gVI+LrfcnfnGg9sqbOtZt3TXm+zkBAKAYBKQAAAAALpp46aGe84f+139lV3q9Jg8/3zr1m5cPz5z69dCGO7J3+34+AABYCTc9AAAAAOY3YJrO/e+/nzr6wwxnQ7/5Xe/f/IeO6eP7z9Rd2/6f2cgJAIClEZACAAAAnjv1nT8bZs6om2ZOHFp79sShPdMnD3Wvurr192m7BwDgcgSkAAAAgKcm9vXeMzn2wl4TovEZcJuZTzqd+8nh2XMnnlzf/uSDvp8PAADCCEgBAAAAD5mq0fMHn2vjZ+8PUyF87rWBXTPv/axr1TWf3ko1KQAAFxCQAgAAAB6hahRmzux0/nWqSQEAEASkAAAAgCdOvdD97OTh57czaxSFatLZidznaq+8qcOHatJ8NrMxCILWBf/n9iX+6yeDIDiw4P92oLE7dzKmwwPKls9mCp/jxT7jxRou/Pcau3PD/DTgGwJSAOrks5nmIAi6FB76MDcbAIA0nHnliaapoz94hR3qsdDk4edbZ04efGNu+tyO+m29z2g+QaEAtFWCokJoFNkoiXx2/ldoXMLTQoh6xPzhPg9xymczhc92s3y2zWe8JcKX3F34F/mcG2OFz7f8MZ/xk43duYUPDwD1CEgBaNQc/gJXhhtnAECiTEv9+V8M/ffZiWPc+2NRZtzCuYnjT89Njt+x/jN7vqThLEkY2i6BUeGfDQm9fEModN0eOqZAAqUD8meYqlOUI/T5Lny205oX3SR/Cq8/vwaTz/pI+LPe2J07wg8bmtVKKfZSbQU2M180g3z6PiAX0R5bjqcUjd25Xj1Hm4x8NtMjTwW16efL0Q75bKZLwmQsrTmfzdh8/aHqWIEFLZuVtLgVqjOCUGXSEa6pqMTp7+386vmD3/oiLfVYyXzL/etP3zd79r1PXnHnwC22nbAFgVF7xJVzUSoESttDYdKohKXDrGGxFKkQ7bL88x3WFg5u89nMWOFzTmAKjWrl5ltjJZb55ePL5VIdWqvq8tkMoVqI3ADuseaAijdO2G2VrhSfNmvRpOC6SUBqEXmwHG5xi/J3bNG/S6o0RiU8LVRqHOB7EysZ/5+fPzj11vAWThRKYVruT3z9986s3nLXTWnPJZWxSh1yT6MhMFpKi/y5X67pQ/L9Psi13G9yX9Eln/OkKqDjYu6rO+VP4cHAoHzOacmH9WrNB1WS/iZlP64m84XJF8olOiw6llKZY+/Tdcix0vqz5KEFAGfIwjzcvpnm4rywuA63co6FWjiHWXygwMwbnRz77oHpd17V2IkCC8y33L/xzMG56XP/Pum5pHLt7ZH7YW1r1GJtlz97JETqJyz1R2g/hS6HP+NB6N5lt9yz9Ln6Oc9nM3MWHIbtzOfA5sKU2wtziEyocX/KB1MOQjUhFYfbi/ov26mLn+UltAakVLoBUE0qOTqUtLeF2zjNsY/LPV2hKomZdx4y80Ynx17YawIu388FKmNm1p57/etPz02fbV3f/uSDcZ5OWct0SDCquVK0HC3SOWbC0pFQWMo13DFyj9GjfN1erqbQ53xIxrJRXAOrFALSYaUBKaHaBzRXjxotVARfoDzs5ksOgDr5bKZDvke1t7c1hFrb9lKV5B8Tjs4HWswbRUTm55K+NrArmJ28Ko7Nm2TmYk+hJRcXZzr25bMZc1/dy/VbP9kXoNfxatFSzFdQh6pK+3kgABtUBxc2yDEX33GFP5EWKU+Hzo22FtIe8kZF63kY4osNgBamisPMv85nM+a69awszrXP/lqoUJV0OJ/NDJsFmjyEg4NODz/wOOEo4mI2bzr1nT+LrFNIrkfm79tPOLqowgOvwvXbhbWed+RzbgLuvYSjiypUlR4xm6Zyj4K0VYdeX2vlF6HaBS6cB774L9B6HqgeBWA1c+Odz2Z6ZLHyoqOh6FLaZIF2RILhUnfYh8XMTvWmyo9wFHE6f/C5NrPxVyUvsSAwYiPJ4pjz9KI5b1KJCMvJQ9gDBKNFa5BNUwlKkSoXAlLvQzVpDXRhgbedi+E8NmgCgAiZbhMTCgZBcEIqFXxerBSqkvYXqkotOCZUYD4cff3p+ziHSMLUW8NbyglJqaSLRJOMTyEotZTcbwzKQ1jfZulGoRCUHuAzjjRcDEgVD8glVHOritbrimDFYfcI7fUAbCMVHKaF8zAtnItqCy+2uZ/Sh3AUaSglJCUYjUU4KPW+WMgWpvLRBHuebsAUtcJnfJiRikhS9YLXGlJ69n1vsycgdQfVowBQoVAw+iItnEVpCrXf09qmBOEo0rRSSEqLcSKapPV+mLEp6THnXj7ruz0a25OUNpnD2+vH20XaFgakzCFVRp4aunQh9v2JGwEpAJSJYLRi4RlgtLZZjHAUNlgsJKXFOBVtMjalnwdcyTJzzYMgGOazHrvdJoSmmhRxcyUg9TlUcy4cljZz7ygOu0cbu3NHLDgOAJ4KzRglGI1GQ6h90/fODusQjsIm4ZCUFuPUdfKAKxmy6WO/zDWnajQZLcwmRdwuCUhlhqDKNnuPb+BdfN/8LHXpV3rcANzQwYzR2Jj2zWeZAWYPwlHYyISk7+39xE9pMbZCA7Mb4yXndZj7jlQUPt99Hr53JGBhBWlAm70eMmvGxZk+BKS6DCs9bgBuoK0tfhdngNG+mZ7Tww88TjgK21TXb55e+4n7ds5OHL/NdBXxA7JGm1Tb9fh+IqIk6+8D3Huk7n55CMA9CSK1WECqNezwMVRztby8wbeKYMVh91hjd+6ABccBAIjfbllws2tywib29d5z/ufffMCrNw3r1V3/2QNrbrrnhvrbHuuTTkSzNhnnJ2cNU223hyApGtLavZ8qaWuYhwBUSiNSlwWkMktQ49M/70K1IAhcXqD49rPUGnazORMA+KWwa3IfC+5kTLz86LZzr3/96bnJU1U+vF/Yr6puw9yamzufuOLOgVvWbd01VjhgeWjeTkhqnTaZTcrDrTJJOLpX5cG7rTCXtNX3E4FoLFZBGiieKehNqCZPSlwu7fftC1zr+2X+KAD46X4WJfE788oTTZOH//GfCEdhi5pNW86uubnztvXtTz642CFJSEpbt30a5OFWr+8nolSEo9ZrkEpS7kdQsaUCUq1VYT6Faq6HwU2+XOQUh9201wOA30w16X4W3PGZOvqDV2ZOHFrr6vuDLquuaz+06d7vr6u/9eF9yx14Y3fOPEB/hB+vlXbTcl88wlE1CEkRiUUDUsVt9t6Eag7PHw3z4T0GbM4EAFCOBXcM3v925/6poz/MOPfGoNKaj33haw1/+I0bij32xu6ceXAywE/bSm10AKyMcFQdQlJUbKkK0kBx+OF8qOZBe32BLyMTmD8KANCOBXeETn9v51cnDz/PuUTqzLzRta1f/vz6z+z5UhnH0sPO9tZqkjDJx42OVyTfZX2WHyYuZ0LSfh7YolzLBaTMIbWXL6MEnK8IVhx2jzd25whIAQBhhZZ7XzpAYjG/Y/3Bb33RwbcGZebnjX7s3i/Ub+t9ppwjl53tO9i0yVomTHqWa/alZH02zG71arVI+E9IipItGZDKbMExhafUhzZ7n570uR4Ga31/hKMAgKXsNbvcc3ZKN78p09gLe9mUCWkz4ejqLXfdVG44WiCj2wjg7MY1W0ioNkg4ql4LFcAox3IVpAGbNdlHLtrbXX1/i3D9hkpr2E1ACgBYzv35bIY2txJNHT/wXTZlQtpWXfOpnAlH123dFUmxjHQdPcUP1mrz12zfT4KEaj6MsvNBZz6b6fH9JKA0rgakLodqvs2JaZE2B+doDrtprwcAFKGTNrfinR5+4PGpt4a3aDleuMnsVN/wR0ObowpHCxq7c8wjtV+nzyGpzGPttOBQEJ09zEZHKZYNSBu7c8NKZ8Y4G6p5GJAGDr9nre9ryIJjAADowCywIky8/Oi28z//5gPWHyicNh+OlrBTfRm6mEdqPS9DUskOqKB1E90sKNpKFaSB4ipSV0M1n9rrCwhI7UL1KACgFISkK5j61chzzB1FmhIIRwt7XPTyg7aejyFpP3NHndXCdQfFIiBVRMr+fdTm6KJKa9hNQAoAKBUh6RJOvdD97PQ7r3JekJokwtGCxu6cmfE4wk/bet6EpLLGbrPgUBAfM2PX9c2fEYEVA1KZNaixFcLFUM3XgDRw7b0rDruHGrtzJy04DgCAPoSkC5jW+snDz/vYHQRLmN3qkwpHQ2i118H5kFS+j2it9wO72mNFxVSQBlSRWoOA1B1a38+wBccAANCLkDSE1nqkyYSjZrf6pA+hsTt3hJZXNUxI6vIGyD201nvD7FPDdQfLKjYg1RqKOBOqScWhzxfv7Y4tppg/CgDwFSGp2bX+ezu/Sms90lJdv3nahKNR71ZfLFrtVdnrYkgqGzP1WHAoSE6P7/ceWJ7rFaQuhWrMzHAk8FYcdo/KE38AACrldUh65pUnms4f/NYXLTgUeKiqbsPc6t/e/u/TCkdDCKf06MtnM62Ovadeqke900D1OpZTVEAqMweHlJ5JV6pIfW6vL3AlJNb6PpjPAwCIUouvM8Gmjh/4Lq31SMvq3/mjJ+u39T6T9g9AdrV/JO3jQFEaXHqoJdWjnRYcCpJ3v/z8gcsUW0EaKK4iVR+qydO6JgsOJW2E3emivR4AEDUz386rkHTipYd6pt4a3mLBocBDq2/848H17U8+aNE7N7//aVeyojgNDu1H4PJcVayMKlIsyoeA1IVQjQv4BQ2Kd3+fpzjspr0eABCX+x3fBOQSU8d+tNuiw4FHVl3zqdyGO7J32/SOpVORsEKPFu0720sVLOMd/NZJFSkWU3RAKl9eowrPovpQjfb6S2g/F1oXgOxeDwCI014H59tdho2ZkBazKdOqaz691cYfQGN3rp8Nm1TRvrO975sf4wKK0HCZ2hJPifny2qPwNHZorYCVJxu013+AsDsdzB8FAMRt0ISk8lDeSZNjw8y8Qyos2ZRpOaaK9MUEXmc8CAIz+/Sk/LNgYTGAeZARfmhTGNvWlsAxamA2bTogc2S18b161FwHjsjn2+eg2Oxo3+fyPQdKV2pAOqg4INWK6tFLNcjiSd2XseKwe0zpzQ8AQJcmudd0ZVPGS5x6ofvZ2Yljpd57AxUzc0dt2JRpOY3dObMB0EjEAeS4BJ8HCv8sMQxZtMBGWrRb5VpV+KdvQVODFFCoqvyX9ViLBYcSt7HQZ//ASp996eBolp9nhyfnqEHeK4VAuKikmzQzgzCfzYwq/IVRG6pR+r2oLqVP/ticCQCA5bXls5nexu6cUzMJz7zyRNPk4ee3W3Ao8EztVR8/advc0WWYe/zDFf4dI3LvOhzX2k+CpuFw1akETO3yHnwIlwKZR6rteu1y8dGYhH39pe4dIb8rB+R3p1ceAnTI59nlqukeAlKElbJJU4HWsERd0OjRE65Saf1i0xp2E5ACAJK027V5pDMnDw3MTZ6qsuBQ4JGqug1zq65tu0vLO5ZQZ6CM/6kp4NkRBMGmxu5ce2N3ri/pwhjzevK65tp1fRAEO5Xu31EqbddrF4uPTDC6o7E712zC6ig21jUPAcxsYPP7JJ/ncn4vNWhhsyaE+RSQagzVaK9fXJO2hZPisHvctDxZcBwAAL8MSgWLevPVo28N38bnF0mru/6zQ/W3PrxP2YkvthrRtM8/ZcIbE0pKmGPFLEETUIXC0lskXBq34NDioqICz8HiI/OZ2inBaGw/A/k8dzkclPo+kxYhJQek8jTO5gHfS1EXqhGQLkvbuaG9HgCA4jWVEJRYjepRpEFZa/1FRVSRmnXoI2ZeYmN3rieKark4SWVpl8x3fMTRoHS+1d6C41iJS/OtTXWyeTDQl9QLhoLS25XmQUshc8FF5VSQBlSRxk+qJtglcWkEpMkgIAUApOX+fDajfkFL9SiSpq21fhGLhW0mWHwk1EasaudpaVnudTgo3a2gVdmVgNSEo+1pPRyQ7sJWh6pJNRbSISbl7qRpSrjvV/hD6VBUjcCTjOXNzwux/alxoDvsNu31BKS69Yc3EEjAboVna8zy1jBGXMB3/bLRpqowpOD093Z+lepRJK3uuvaXFLbWXyQbA4d3tDeBYp/W60CYvAezCU6frEs1rqmX0m95COlCQFoIR1P9XZDX78pnM+Y+dW+axxKRDtmkCp4rKyA1rQL5bGZM2p80UROqEZAWxZyjxNoKKjxOjQhmlItzHtFi8tmMxoD0iGu7ZcMq46Eb7pOL3HybioXCnM1mhfdVSWiS+WAqf08nx4Y7LTgMeKS6fvP0hs/9rfogqPqKa/+/2dO5NcHs1OeVrN1KIgFTTz6b6Zf1jAudg235bKbDxgILKVjR/h07ZkM4GmbWGvls5qSE4w22HFcZoiikG0nweDcqnadrPsM2X89PlltBGkh4ovGmz/pQTS7g2y04FNt1EZDGiupRACjeiASg83/K3UFZ2ryaJTxtl39qXnREwbRuDia9K3WlTg8/8PjsxLFK7rWBktVd/wd/pf2szVdenzv5xbqmz4xeceeAc+FomFzX2vPZTOFBkPbrfZ+lawgXWqg7bKyiNoG4jMMZVvz5NYV0Gys5v7LjfyLkfL+Y1OtFqN/2wpRKbtoGlQakGkI1lwZIx8n6imDlYTcBKQAsbUyuk8NRVsvIYvlA+BosoWmH/HFpB95S9Gm7P5p++1++bMFhwCNmY6b17U8+qPUdn3nliaapoz94ZeroDzPmP0/95uUW839bt3WXSxvCLMpstiPtyv3Kr/NmnmOvhSGI9vX1UzY/JJQO4x7l7fbtrH9R7iZNgSwGNA6XblEwQJr2+uLZ/mWn9ct4yIU5TwAQsXHZlOB22SikJ4lWQtkF2Sw4TVB6vVkoObaDbDHmWzftP8wLJl5+dNv0O69uLOa/C0Rl1eZ/84jWkzmxr/eec288c7AQjhpmfu/smbf/It0jS45c61vlGq9ZjxSJ2MT29f9KrB8zI6O9dlpwKOWiSA3lB6RCa8Ju+4efgLR4tp8r2usBQL8xuek3oWiX7OCaCtM1IcGsWeztSHjmVdo0jNWZN3PiF1+x4DDgkVXXfCpXf9tjan5HwkxL/bnXv/70YiMppo796N+lenApMNd4ub5r3em+QWZH20RzQDqgpXDFVEKbQhsLDqUcBKTwNiC1NrSS6gjfZ42VYruFTyjDCEgBQC8TjO6QalHrdlA21Roy8+p2T4LS+dZNC45jRaY12PJDhGNqM//6TzS+o/e/3bn/3OtP32eqRRf7/8+cOLTWVJcmf2Tpkmq8dsUhqW1VpJor+rWty7q0dhpbcAxIWaUBqdZdrm0O1ageLZ2V50xx2D1Kez0Az5kbe9Oq2iqLVKuZilYJSnd40HpvY+vmJeY3mFki7AHisOq69kP1tz68T9vJHf+fnz84efj5FTfPmX7vZ48lc0R2KWzgZO7NFR6+bVWkWsOv8SRG+URJ1pEqHmYuJJsfwWMVBaTy4ddaQm1rEElAWjp+ltGyPgwAgBiNSDDaq+1hkYS5LsyvW46NrZuXmDn5yzstOhx4oPZDH31I27s04ejUW8NbivnvTud+8lvxH5GdlIek1j/QUsDajZmWI632Gh/YrvjABm6rtII0oM0+OrJLLe31pbP1SY/WJ1C01wPwkaka3WkqMc2cT63v34S6Mr/udoerSa1ddF/YhfuDTWaAuJmd6+u39T6j6USXEo4GslnT6eEHHo/3qOwlD+s0hqTWP9BSQGvHbqC0ilT7Zl6okM8BqY3hVZcFx6BRg20720rY3WTBoZRqVHMwAABlMovOdql4cIJsJNWquNNnOdYuumdOHPQ2xEE6tO1cX2o4WjDz3s+8XicpDklZ3/pLY05EBannKg5I5WKtcWMA60I12usrYtu503ozQPUoAN+MSDiqso1tOVJN2iHzVF1jZUA6/d4b3MshMdX1m6c17VxfbjhqmMpsU6Ed/VHpEQpJNW2AYzbXIyT1kNJxjFSQeq42ordvQpU2haeyw5ZASHHFoS0Iu6NBQArAJwON3TnnF25mnmo+mzHdAXstOJyomAfdXTZtojXx8qPbzI7bFhwKPFHX1D6g5Z2eeqH72XLD0YLZM2//RRAEX4r0wJQxoZNsJDOsaDRbD3sc+Eke0gJqRNFiHzCHNBJcPCrTYMuuc4rD7jEXK6gAYAlehKMFEiTusONoImPVfLPZidx/tOAw4Imqug1z1es+/Jca3q2ZH3r+zX+oeK3DBmgXyP26pu+vFlkfoXRscgUkKJKAVGYWatxZz5pQjYA0EracQ6pHAcBuXoWjBQ6GpE0W3ccFs6d+tdWCw4AnajOf/OW6rbus34htYl/vPed//s0Hovi7pvOvfziKv8cFjd25QWXjU9isqTxaN/0FVIqqgjRQXDafepiVz2bMrIuWtI/DAQSklaH1BYAPvAxHCxwMSa1YdLN7PZJW+6GPPqThpE+OvbDX7EIfxd/l+272C5nxKYr2AqEYqDwtkhUASECUASlt9rqPwQVNabdvKA67x2mvB+CBIZ/D0QIJSXfacTQV227D4nH23Ikvp30M8Mf85kzbep+x/Q2//+3O/VHP5Z2dyH0uyr/PAR1KNm1qYLOmsqnZiA3QLrKAVNrsrW/zWETqoZriHc9tlPa5pL0eAOw0yvftBxq7c2bBpWaDlxWk/t078/7Yn6R9DPDHqo/83rdsf7MTLz3UM3n4+cjXWNPHf3pz1H+nZrJTuJbvtjSv1RrHARZsJ1wGkhFlBWmgOGRJ7YKTz2Y20l4fqbQXSVq/vAhIAbjMVNd0yUISQqppNS8aC1Jvs595902NmzNCqer6zH+z+cjNyInzh/7Xf43j756dOFY78fKj2+L4u7WSeaRDCg5/u6x906D9+7+Pja6A+EUdkDKHVNdru6gprVY7xWH3uNxYAYCrehgjsiQt7ZnLSbUbyIQ1JrRJ6/Xhl5pNW87W3/rwPpvf9MzJQwNx/k7MnXuXarrLdSm5lqe19tUekDYEQTCcz2bIDoAYRRqQyuJDa5t9WvOruMhFL61zSns9ANhnSGZuYhEyIqnXgXOTWmBCWIMk1V59y/M2n3DzwOD8wefa4nyNmdPH2Nl7AemQ0HAtT2u95MJDUhOSPpvPZlz4zgasFHUFacBmTcWTisPtSb+uB9JaqBCQAoBdxpk7ujKZR6plJ+SlpPYdTFiDJFWvbfyGzSd8Ove//z7u12CkxeLkWm57sVJa10uXukh257OZA/lshu8eIGJxBKTDSn9IaSygqB6NR0vSFcHKw26tv7MAsJJe5o4WTXuQnFqbPWENkmL77vVmY6apoz/MxP06zCFdVuozmVfQkFKwdySF14yTGev2Yj6b6U+xExZwTuQBqcwy1DjLKvv3PE0AACAASURBVPFQjYA0VkmfW60/yyHCAwCOGpVqGhRBWu0fUX6uEg95zWY0zB9FUmquvNHq6sCpYz/andRrzU2eujOp19JE1uK2dwQkvm5yeA55ZxAEhyUopaIUqFAcFaQBbfZF4yIWn6TPrdafJe31AFxlexWNjfqUb9iU+Hfx3OSpu5N+Tfir5oqm2NvXy2WqR6ffeTWxHcpnJ3KfS+q1FLL94WBa6ybto2SW0ykVpab1vku6GwGUiID0UoldrGUHuoakXs9D2xP+YmD+KADYY6SxO8f4kBJJR4HmqtvEu4FmzxynGwiJqV6z6W9sPdvT+dceSPL1Zk8fpa14CVJFanO1cUtKAZ4P9wWm9X6vGSkgVaV8RwEliCUgVdxmn2SoxsUqfomcY8Vh9wjt9QAcxQ6v5aOKtASzZ47fmOTrwV81m7acXbd1l5Whl5kHmsTs0bAkq1WVsv17MI0qUp8KQxqkqtTsen+SsBQoTlwVpIHiJzRJXTi4QMWPn+XyqB4F4KJRqkfL50AVaaKL7pnxtxqTfD34q2bjDW/a+uZnTvziK2m8Lhs1Lcv2gqXEN9WTOaSaHwCWKxyWzuWzmUFpw6cKG1ggzoCUOaRLkAHKtNfHL6mKYAJSALAHGzNVrl/xsSdbQcoGTUhI9doP/cTWcz31m5db0nhdNmpamjzssvleP605pKx/gmC7tOEflpmlfWzwBFxAQHq57Qm8BtWjyYn1Yq847B6VHYsBwCXjjd05zeGeFeT7YUjp4TclVRVjNqVJ4nUAo6qu4QUbT8Tp4Qcen5s8VZXGa8+de+/TabyuIjY/MGxL6XW5R7iUebhxv2zwdJLqUvgutoBUnlqpvLlOYD4HAWly+FkujpsDAC7i2hYdqkhXMDd95uYkXgcw6rf1PmPjiZh5f+xP0nptZgAvT1rKrd2sKZ/NpNFmP2z5BlZpalhQXXpEqks72BUfvoizgjSgzf5y8kXQFNffHyOtXyQEpItjPh8AFxGQRkTxhptBUrPt5iZP35DE6wC1V33c2k01p3M/+a20Xntu6syatF5bEZvX42lVKTKKpzhNUl36bBAEJ/LZzHA+m+lJI9gGkhJ3QMpGTZfrivHvjpP5ch1VeNwNcVUEaw675YkyALiEa1v0tD7oTmTxRvUaklK9/horxyKl2V4fsJN9sWx+cJhW0Nbv6WZNlTJjEfYEQbA/tDN+F9WlcEmsAanMsCJUu5TWAcj9iitz4vpZag67AcA1XNuip/WcJjLbjuo1JKWqboOVAensRO5zFhwGlmH5zu2pBKQyCpCOk8oUdsbfu6C6lNmlUC3uCtKAUO0DcsFIZZfHChWqcrQulOIKpTWH3QDgGkaHREza7FVKogVwZvyIxk0aoVD16oYRG4965uTB1Kuo2SytKLZ+P6YZpvVSRRqpQnVpeHYprfhQJ4mAlFDtA1rnVc7/DBVXBDdFfYF2IOwGAKdoDvMsZ2UwU4TYF95pthbDM7Vrf2zbGz7zyhNNMycOrbXgULAyWwPS1NZSUkXKLNJ4FGaX7icshTaxB6SEapfQ2pI9vMS/axL1uVcddgOAY7SGeBpo/d6PdTE28fKj2+L8+4Gw+lsf3mfbCZmbPHW3BYcRzJ4fT2SkhnLWXsdTnl/ZRxVp7BYLS2nDh7WSqCANFN9cRxaqKa44HF9QlcPIhAtcCLsBwBVc2+Kj9dzGuwCbPvu7sf79gKiu3zxt47mYPXPcjmKBmfObLDgKq1nePZZaZaFUkWpd02lUCEtNG/4BNniCjZIKSAnVHKk4lC/YsfQOp2yRVQQ7FHYDgCsYHRKTxu4cASmQoup1jadtPP+zZ46nPn8UJaHTYhGyNhqy7sDc1yIbPB2R3fBpwYcVEglICdXmad3QZ7FAzfe5srTXA4BdCEjjpfEeLtaAlLZe+G72bN6KTcpmxo9oLFpIwxFLj8uGNXIXrfapKeyGv79QVerpeYAlkqogDXwO1aR0fHs0h5OsJSoOtVYER3XBdSnsBgD1ZN454qMxgG6K9W+nrRcJqWlotnIvBzZoUofvySVIq73WAhiXzFeVyqzSXtrvkYYkA1KfQzWtF9xF2w2kIljjU7aWSodCOxh2A4B2tA3GT2WFLosrIB5mB3tOrToEpMuQcTKPWHuAfjHXl93Sfk9QikQlFpD6HKo52pKtNWyr9GfhVNgNAA44yQ8xdloX1sw0A2Jgyw72KImt13FrrtON3bneIAgGLDgUXNBAUIqkJVlBGngcqqmsOHQ0IK20Ipj5owBgF+aPxo/KIwBWmhk/YsUsVJTNqtCrsTtn1opWjrXwWDgoZUYpYkVAWpyyQ7F8NqO24lDmsSxK2rW1VgRX8kXsYtgNAABKwMYwSEr1uqutu4ebm53+sAWHMW9u8lSVBYdhPWkhR3HaCUmt1CAzSs1mTlr3BIHlEg1IFYdqbRWEaloD0mK+RL0KvF0NuwEAWI7ihTUt9kAM5s6992nOK1wl6yZCUnuZB5Qv5rOZPtruEbWkK0gDD6tIXW7J1rpg8u1nyRNjAICPWDgBAEoWCknZCNJe90vbvdY1OiyURkDqTagmv6wa5+KMNnbnipk3pjXs3l7m0ybmjwIAAACA40xI2tida2fjJquZrOVZqkkRFSpIi1dOqKZ1NkZ/Mf8lebKmdXf0ksJOD8JuAAAAAECIbNy0k3NiNVNNOpzPZhitg4okHpD6FKp5UnGoNfAuNbx2OuwGAAAAAFyusTvXFwTB7Ur3U/FFi4SktNyjbGlUkAY+hGry9KIp3sOJRakVh77MlKW9HgAAAAA8JBsWNjOX1GqFlvte308EykNAWppSQrIuGw64DCXNiJWKYI07/DUU+3TJo7AbAAAUoWrVunOcJ/iqas2HfsAPHz4KzSXdSTWp1Xbnsxk6KVGyVAJSH0I1xRWH5VxItF58iv0ZeRF2AwCA4lSvu/pNThWSMHvmuHVriqrq2rctOIx5VXUb5iw4DOvlsxmt48KsJC33rVSTWq2TkBSlSquCNHA5VFNccTjW2J07UMb/zvWKYJ/CbgAAAECFmoZmqvh0U9vtZjr1pJr0brOOtuCQcDlCUpQkzYDU5VBN6xO6sn4m0sattSJ42Z3uPAy7AQAAgCVV1W14lrOjTrOlB6x+HFhjd25Qqkkfoe3eSoSkKFpqAanLoZriluxKQmutF52VflZehd0AADjkJD9MaDc3M9lg21tYt3UX1XL62BqQOkFmk/bKeR7w/XxYiJAURUmzgjRwMVTLZzPmotiS7OFEYlx25iuX1nmXK1UE+xh2AwBwUREPhm0VWydFVd36g3xCkITZ00etDLZqr/o4DyB0sfU67tTnSIJSs368nqDUOiYk1bq2R0LSDkhdDNW0zqusKFCTdm6NT5Obllr4eRx2AwAQtpGzcamq2nWv2XQ8QNKqVq07Z8NJr2lo1tiRmAZbK0idHAkm80lNGLeJ1nur7GXDMiwn1YDUxVDN14A0wr8jDUs9SfL5ZwkAWmitbtSE1kwgJTPjR6xrsTeq1139pgWHgeJpLPpQb0Hr/Q42c7LCYD6b4cEvFpV2BWmgOMy5LFSTX7S2dA6nIuMyXLpSWkcmLPUUiYAUAOzHTW78tAak8VUm1a79cWx/NxAyN3mqysbzUb3uajvuN2tWn7DgKKxmecWcF5vKSlDa39idM9+nt9N+n6oGxbkFYmZDQOpSqOZ1oKa4IrhF2ukvIuwGADU0Xqu1UVmlaxakcf3d9bc+vC+uvxtYaGJf7z22nZT62x7rs+AwgurVDSMWHIbtrL2Gx3mdtpUZhRZqv9+hdONq7bYzjxSLST0gdSlUUxyQRjmv0pW5svwsAUCJRb6PES2N5zf2e8uqug1zcb8GMG92arONJ6Jm05azFhwGVmZrBanX4XaoqrRVNnXaSQt+ovpotcdCNlSQBi6EavLLtT3dwylblBWHroxMoL0eAPRgDmm8NM6uOxL3C9Q0NLPpBhIxe+a4lfelNRtvSH0OqS2VrJazNSD1rnp0KbKpU5+04N8SBMFTVJbGzrTac/3AJWwJSF0I1bTuhjYUZWuDtHdrXDBcrAgm7AYAdQhIY6J4t9fYA1JbdvGG+2YnT33ExjdZs+Ejqc5RpIp7ZXINt3KjL1/mj5bKdNg2dud6FlSWEpbGo5MuJIRZEZC6EKpRcRj735mEwiKQsBsAdNF63daAgHQJ7OKNpMydffdKG0+2qd5MM6SkirsoNq9RCUhXEKosbQ3NLB1Qmp3Yig2bcJEtFaSB4sq3wsKBgDTevzMJhZ8hP0sA0IWNmuKjNSCNfeFdVbf+YNyvARjT77xq7Zy82swnf5nWa1etvfLdtF5bEQJSR4RmlnY1duc2Siv+I1SXVqwtn83QiYR5BKSV68hnMx0Wty4sZzSmikOtM2W3S3s9ASkAKKO4Fdx2WsPn+Fvsa9e9FvdrAAU27mRv1G7ckk3rtavrNvw6rdfWQL4Xmyw91HFTHWnBcaglrfi9oerSu6W6lI2eStej7YARD5sCUrWh2iIb/GgRSzm5hK5Dis8JYTcA6KP14Za15AGwSmbhGPdxszkMkjQ3OX6HjSfc/B5U12+eTuO1q9ddTXHA8mxeo1I9GiGpLh2U6tJmmV26Q9bktOOvjFmkmGdNQKo8VGNDn2T/7jhp/VkyOwWA7whIo6f1nI4k9UJpBUPwz8zpY9ZWya/a/LvfT+WFa9f+OJXXVUBBV5zW4igVZHapacfvCLXj70zy+1EhrUVviJBNFaQBLcKJGo25rYGfZbI43wB818QMqchpDUgTq0yqabgun9RrwW8z775pa6t0UH1F08NJv6bZHKr+1of3Jf26inRZ3hVHQJogacc3mz21N3bnqqQd/yna8S9BQAoCUo/Feq6VVwRrE3fYDQBacHMbEcXz1YMkA1J2skdSZieO1U68/Og2G0+4CSpXXdd+KMnXZAf7Fdk+U5EW+xRJO35PqB1/J2t3HrTDsoCUUC1RSYTRPBlMBg8WAOACAtLoaB5ZkNj9BzMQkaS5c+9ae42rbbw50WOraWhm5+4l5LOZLos3ZwrYO8Eu0o5vqks7Fmz25ONDCO4jPWdbBWlAqJaIsSQ2LyC4SwznGQAuaJCFISogGxV0Kj2Hie6MXFW34dmkXguweQ5p0lWkVWs+9IOkXkuhXssPmbWLpRZs9rQxFJb6gnn2nrMxIOWCGb9EzrEsUHi6G6+kwm4A0IKAtHKaz2GiD9rXbd01VrNpy9kkXxP+snkOaZBwFensRO7ppF5LEwXVowEFUXoUwlKpLN3hwdq+id3s/WZdQEqologkdzxnd/V48UABAC7Vls9mrK2ysp3sfGz77LrlJP69WL3uw8wBRyLm55Du673H1rOdVBVpdf3m6SvuHPhp3K+jjVy/ba8eNVX+BKTKSGWp2RXfzOi83fHd8LmH9JiNFaQBoVqskq44JMCLF78rAHA52xeINutRvDlTkEZlUk1D08tJvyb8NTN+eJfNb95UkZod5uN8jZorb2Tn7cX1KKgeZW2onAm4zW74QRDc4mhQSkDqMVsDUi6c8Ul04SAVwdzExGOc9noAWBRVpGVwoHp0LMn5owVVa67kYSUSM3Py4I02n21TRVp3XftLcb5GzfrNVCAuIG3BGq7frPMdYdahEpTe7th6n53sPWZlQEqoFqs0vpT4IowH5xWoHHOG3EUVaem0V4+m8r1oAiHmkCIpMycOrZ14+dFtNp/wDZ/72/Y4fyd4KLGofgXXb1PcwfrFMTIyodWhzZxaLDgGpMTWCtKA8CcWaX0pcRMTD35HgMrZ3oqG8rWxo33xpPpot5bjXUJq9xs1G294M63Xhn9mTvziK7a/6bqmO3bE8fea4NU8lIjj79Yqn82Yh1ttCg6ftYujZEZpl2zkpB5dSP6yOSAlVIteKl9K0gZORXC0eAILACvrk7ZxrEz7fVfSM9YvUV2f+U5arw3/TB//6c22v+n6bb3PrL7hrsjnE/Iw4lLycEtLxwRrF8eZjZwcCUm5d4yH9cGztQEpoVos0vxS4gsxWpxPICL5bIZZQ+5q4IHryhRVHy0n1e/F9e1PPpjm68Mv87vZv/SQ9fMmTat97VUfPxnl31mz4SOutPFGZVDJaBSKOzwhIelTyt8tawNP2VxBGhACRS7NgeYMU48WvxtAdJhD6rbt+Wymw/eTsBRl1UfLST0IX3XNp3JpHwP8MX3yULeGN1vX9PutUe1qb/6e+tse64vi73JBPpvpVzQvkYeVHmnszvVQ7IZFWF+Za3tASqgWnSEzGyStF5cnhuNpvb6D+N0AosNTYvf1SxCIy2mpPlpOqu31BTUbf+vbaR8D/DH11vCWM688Yf0c7XVbd42t+di9X4ji76rNfPKXUfw9LpAZ252K3grBtn80P3xlBmk8rH+gY3VASqgWKRsqDql6jEaqYTewDK3Xa26C3GcCwEHmkV5KWfXRcqyoTKpe9+G/tOAw4JGZU79WETqZeaRrPvaFr1X699Rc0fT30RyRbjIaaK+iNzHS2J07YsFxIFms/XEZ20eb1VpwDCsZVPZ0zFa2BKT8LCvHlw1sdUDpHEPtsxdRnBapYGFne53VR8uxIiA1lXJTR3+Qmzr6w4wFhwMPTP36+/9Wy7tc/5k9X5qbPH3D+YPPlfWda9rrmfV7MVzQ1kmWaJAvHSOHk3zNCOxs7M45VWVrCnry2cwI99lYoFXWjFayvcU+IAyKxIgNFYdUBEeG3wkgYsyo9EanVE16TcJRTdVHyxmyqTKJNnskyWzWdHr4gce1nHSzadOq69oPlfO/pb3+knBU01iUsaQ3Z1JarerquCetlcO2j2WyNmAsgtWde9YHpIRqkbApUGN2ZmWsCLuBJWj+bBKQ+sPrkDSfzbQ7FI4Gtm38QZs9kjb99r98WdNJb/jDb9xQTkjqe3u90nA0SHEOpbb8wNVxT1oDUqvnOyvPA6xec2moIA0I1SpmU0BK9WNlOH+wmeanmZ3Mp/SKlyGpVI669D2SeGXSSkybfbkVckA5pt95dePESw/1aDp5pYak1fWbp31ur1ccjo6n+J2j7Z60ydHNJNkIFQs12Ny5pyUgJRQq36hlbQb8LCvD+QPio2qBiYp5FZKG2uq171gfZuUOub5XuiF5U8d+tFvbaTchad31ny0qxKq9+hOvxX9EdlIcjhp9KVa6aaxcdLGbieKD+IwqPnYC0goRCpXPqsWffEkOWXAoGtkWdgMLaa/276GK1DsmJHV+d/t8NtPrWFt9kHJl0rJMpZupeLPx2OAmjVWkxhV3DtxSzO72NZt++z8kc0R2kSorreHoeNKbMy2gcc3k4iaSbNAUH81t9p22VkyrCEgJ1Spi4+KBwLs83m8sAutpn4/bkPLNPNKx3SxApUrHKSb4NQFwEATqqsuKkGZl0opWbf7d79t6bHCTxirSQHa3X/uJ+3aaXeoX+//XXvXxk/W3Prwv+SNLlzzYelZx1X/a12iNY59aXLoXUf5eNMyw1TzaLLC1C0hLBWlAqFaWMUsrDpkpWx5+B2C1xu6c9i/qQJ5oujooH0trkZDUmTEL8jk+IAGwa9KuTFpR9RVNDzt31mE1rVWkRv1tj/WtubnztppNW84u/P/VXnXz/0jnqNLhyIMtG67RWu9JXRr3pLkiVsPnR3thSqeNIbqmgJRQrXRWBmoS2mqemZEGW8NuYCEXfredb7nGokyVzp58NjOseaMEWVybhemLtu/CWgGrq0cNU/HGZk1I2uSvhv+L1pNufmc23fv9deG5pPObM31mz5fSPbLkOPRgqyfta7Ssm7TtZB/Y3HpcBhdHBtjEhXzMuofdagJSQrWy2NySTbt4aagehRYuBPkNUk1ISOonMy/rgLQ3qiLz6szi+n6Hf3LWV48W1G7ckrXjSOCLmROH1p7+3s6van67Zi6pabk34agvoyoce7BlijpsWedprSJVv06WjSFd2hTSRtorSI022+63NVWQBoRqJRmzvN2VwK80fPahhQtt9oG0XDOP1F/mpn53Pps5Ijf5VjNVR6byVebVuVo1WmB99WiBaRterGUYiNP5g9/64plXnlB9HTC/O0Ew9/+c/+U/Xu362JtQ1agrD7Zs+s7UWmHXJg88VZICA3UPmRew/rPjyGizQO63rfm8awtICdWKZ/W5oiK4JLaH3UCYS+NQTJvTASpJvWZChr2FoNS2z4K5oZRg9EVPdoo134eqFl2rNv+b/9+Cw4BH5iZPVU2/+4b6NdPsRO7eYHb6JnN9y2cz/Q61Hc8z70dmjbo0DmWosTtn032g5vWT5s98rwOfaS3VmSMWHEMU+m2ZR6oqICVUK4mGkIK5ssXhwQDUsOzGOAotru5wjpLMB6VmhIQs1FP7PMiiuteEtlIx6kMwWqCuIsXMTzStwhYcCjwyefj51ol9vfdofcdSVRm+tnUGQXBYrn2qH1rKNdx0hh12bBO9cQs3GNJ8T9qgcSa+VAK6UA2tJVx3pYiqwZb1lrYK0oBQrSjjjd05DaEabePF4TMPbVx7kGVC0v0aZ1Iicg2yUN8vVaV9SbR/mhtGs8O+qWiWRfVuD1rpFxqxaK5dSeqa2gcUHS4cMTn2wl7F72Sp79vdoQdVqqrrFgSjnRYcUtR6bdtQVsaxaL4nVTXuScItV9b3WvZUcKnLtEHur1Md01E1NzeX5uuXTH7x9qs66OQNNHbnVOwaJxUwvi3ySmHCbtp7F5BA4kWrDqo4j2hrDy2HbDTg6iYxY7IIcO4Bj+LfK1uMyAMtc7N6pNzRKLLoN3/Mz6NV/slGB0Fwi+ZxM+/tvWVqduJYrQWHAo+svvGPBzfckb1b0zsu8btoSOYSW1tMIBV1XY5Viy5kHmBZOStWHm7vtuBQKmH92l4ymmFH7lfUrL/lnvGwBYcSNXNt70pj5ry6GzVzc5zPZsYI1ZalqSV70PHdditFez00cvn3ujCTslee6g9GXTEhN5kbHRxX4Lq2cEtoPpsJJFAvfD4OLDHTqrCo3CjVIrjcU9pncZsq0nOvP32fBYcCj0wefn67abWv39b7jKJ3XcqDZBM6bpe1obn36LfhWiHf4ybQ6vBkzWpba33YoAMBaae02qcSGK3EsXA00NS9adYgjmZj26VbwBSlJFpFra6CNHC/Oqlijd25Ki3HSkXwiu5WMi4hUVSQ2i+fzZz0qOptVG7A56sHy7l5lc90qywymtL4rFBBCkuZG/9WLTvXL4cqUqShZtOWs5vu/f46DSc/ou+hQlg6nNQ9tIRX7fLHl1C0YGfSAUapHOpYHJWQ1JoHhtIO3efYPb/1n+kwGd3h4tiOgjEZ3dAXx71gYc5v4e/WepPWT0C6pCFLj2tRUhE8Tvvg4ghHodiw4+1kYS3yZ75CQZ7kHpFqwaVuYgtVg810RADLsrJiphxUkSINMycOrT31nT8b3vC5v7WyBXqBKB4MNsk68X6p5B+R7+LC+JOKq8MkyG0OjUHxtfp/REmQNOxIgFTYODTxqrqFJFTqd/ReX1sH16DjAWmTrLF257OZodADsIo6+OQ6Xqj07yj83FUGpIRqy9IYqLn+S10uVWE3sMCgRwHpQk2h0NPXcwBE4SmXRk2YHe0nx4Y7qSJF0s4ffK6t+qWHeupve8zaMEtmdbYV8V8t1UrjT1a6xmyUIDSQf7L+vGBcQgUNXKqwM5+/PfL70pvGd6SjVaMF4wpH+vg0kmt7YW0VKkgpvP/lzkNhvn/her7ktVzzDRqh2uIISN1B9Sg0M59fzTvoAkjXWETVZFZZveX//k9nf/q1PXy2kLRzP/u7v66q2/Dsuq27xiw9+UmGt+EHmXGEsj7o0FLdb0JEB+c0ms/ti/lsZiSJoFQqRjvke9nlzid162/zeyiVlb4VZRSu44VreCSzhquj+EtSQnh0uSGNbWjSRj5uwaHYhs841JJrEVXQAMrlTGt9mKngq73q4869L9hvbvJU1eTYd62sjMpnMz2Mm1HlEYXV/f0WHEMcCkHp/IY2sr9HZEylqsy4PCKFD67/nmpdf5MbRERtBakJ1Wizv4zmXwyqSC+lMuwGFnB1NhGAeGlcfBdt1bVtd02/8+o/KzlcOGT6nVc3vv/tzv1X3Dlwiy3vSirTvNjA0hEjSjcc7XdgN/vlhOc0jhU2Di38KWZdmc9mCm3I7aH5uj5lLeOK9/+gcy8i2mcgEapdSvNiwpXh2VHhKRDUkwdZrrU0AYiX1sV30epvfXjf7PtjI2YupJJDhkMmDz/fevp7O79qZuJa8q5cnWXoolFFc0cvYTZ08agNuUnW1RfX1ovM3g1jtu4FatffHrfZR05zi33g2UDalYxWupNXyggEL8VnG65wtaUJQPQ0bfpRkZqNWzqr6zdPK34LUOzc60/fN7Gv956034HsIkyBhA7jDow+0bDjfpyaQpuWhf8Qjl6g/fPBmisC2gNSQrUPqP6FYF7hJbSH3UAYX9YAitXuy3gZs1FO3fV/8FcWHAo8de71rz9tQUjqe2ClSYfC3b0vIaNbRi06JNhjxIHP96BUCaMCqgNSQrVLuBAWE3hfQKAEZ0jYP8BPFMAKdmhfnJRqffuTD6665lM5XUcNV5hNm87/Yui/n3nliVTG4JgNZYIgaOEDpcIOh+ZCE8pjMa58LsgRKqS9gjQgVJvnSsUhP8sLOA9wDZsvAFjOQGN3zsub+lXXfHprVd2GOQsOBR6anThWe/7Qc28kHZLKTtsub5jjkh0uXZ/lvVBlh7AxxZszLdQn4zBQJgJSNzjxRE8qgkcsOJQ00V4P51BFCmAZQ43duS5fT5BptV/9O3/0pAWHAk/NnDi0NoWQlConHZ5y9OGVt985WJQzhRySp5CPVUB9QCofAt9nibj0xeX7LzSbM8FVVJECWGiUhSqt9khfkiEprfVqmMr+HhffmIwL8L0oBxeMOvgQgDVXBVyoIA08fwo55tjMLt8DUp6ow0lUkQJYYNSnTK25wAAADqJJREFUTZlWQqs90pZESEprvRoDHlT2Oxn+omTOfQ5Yc1XGlYDU51DNqfcuv9C+VgS7FnYDC/UyFweAzH8jHA0xrfZrPvqnf27NAcFLcYak+WxmI4UQKvgQjgay5nrKgkNBeoYc2nxsoR7WXOVxIiD1PFRz8UbD1ypKbhrhNLlWs3so4Ddzw95BOHq5+tse66u7/rM8KEWqYgxJzfd/Kjvmo2g7PZsJ3cuGTd4ad7mKWO6xWHOVwZUK0sDTUG3c0acevs7hJCCF8xq7c73MjQa8NS6Vo4SAS7jizoFbajZtOWvlwcEbhZB04uVHt0XxnvPZjAndOvkEWc3sVu9VoCIhEq32fur1YGPkPh4AlM6lgNTHUM3JQE0WTr79MrsadgOL4WYU8M8Y4Whx6q7/v/6AeaRImwlJz7028NLEvt57KjkUmTtKJZO9xiUc9bKDr7E7N0irvXdGfHgYwAOA8jgTkHoaqrlccehbNSXVo/CGPAzgZhTwh6kabyUcLU79rQ/vYx4pbDA3earq3Otff/r093Z+tZzDCc0dbeAHaqVCVb/vm8TS3eQP85n3ZoyEPAAYsuBQ1HCpgjTwLGQalw+8q3z7oiYghVcau3M93IwCXmC3+jKYeaSrb/xj7g2Qugsh6dP3nfrOn5XT6TTI3FFrmWtzMw+uLlbadbGpjRe6PGitX4jPdglcC0h9CtWcvmn2rCLY9bAbWApf2IDbhghHy7fhjuzdq65rP6T1+OGW8wefaxv/5vZjxW7elM9mzLqsjY+BlQa4Nl9K1p60I7vtER/X3KEHACiCUwGpZ6GaD/MqfZnJSTgKL3EzCjhtoLE7x271FWr4w2/cwKZNsMXU0R9mzr3xzMGV5pKyKZPVzLzRLq7Nl5NRA4/YdlyIxJBsFOslCYYH+CitzLUK0oBQzSm+BIdszgRvyc0o80gBt8wvwPmZRmP1lrtuIiSFLWYnjtWePfA33zj1Qvezix1SPpvpCIJgLz8w65iW+luYN7o8CdEIktwySgXlPMabFcHFgNSHUG3Ih6d+8qTDh/ZbKkjhNZlHys0ooN84C/Dordu6a6yu6Y4d7GwPm5x/8x86Tj5zx4lwy73sWM/vv32ekpZ67+eNFkMe8HFf6gbmoAs5Bx2MN1uecwGpJ6GaT4Ga6+/Vi7AbKAJPNQHdRtjwIz7123qfWfOxe79ASAqbTL/z6sazP/3a4dPDDzwu4egwO9ZbxayJ7zYPollvlIz7Uv0IRxeQDararTooy7hYQRp4EKoRkLqD6lHgg6ea7dyMAiqZjQ9YhMRsPiT96J/+udNvEurM73L/2sCu6vrM3xGOWmVAHlqx1ihD6L50SN3BIyAcXZo8yN5h6/GljYBUn1GfftE9+FLnpgUQhKSAOmZjzNt93vggafW3Pda35mNf+Jpf7xq2W3Vd+6EP7TjwO6ZakfbN1BWuy2zEVCFz/sxmg7Tbq0M4ugIZhURIuggnA1LHQzUf5/q4+uTOq7AbKAYhKaCG+W5ubezOsdFgwtZ/Zs+XCElhCxOONvzhN24IPliDNbP5YirGpZq/metytJhJqgrhaJEISRfnagVp4HCo5mPFoavvmSH2wCIISQGrjclMuw4WIOkhJIUNwuFogVTdmfmN18tsYsRvQB5YUc0fEwlJCZPsNtDYnWvl3qR4hKSXczkgdTFUG5XBur5xNSClvR5YgiywWnliD1jlKVmE8/1lAUJSpGmxcDTMrFnMbGLT7k1QGhtzXm+Rdnof14iJkjDpFsZIWGmnhNgoESHppQhIdfFyQSJPgVyrCPY17AZKIjc7OzlrWAaVxvErLMLZCdkyhKRIw0rhaJhp9w4FpVyvozEic0bbZcMVJETOdzOhvzXG5Xehz/cTUYlQSOp9+O9sQOpoqOZzxYZrs3SovgGKJDc9t/OljSUM0soZG9NOv4NFuN1MSLr2E/ftrKrbMOf7uUD8Vt/4x4PFhqNhEpS2UlFakXAwypzRlEiXU7s8wOfeND0m62HmbkQkJG33/TPtcgVp4FioNub54sS1QJGAFCiB3PzwxB6LopUzcuHNPpiXrcCF3e3v/QIhKeJkqpU33JG9u5KXWFBRyhid4pjzdD3BqF3kAX4r9x2JG5eWemahR4wKafcDUpdCKK8DNWlHd6Utx/ewGygLT+yxkgULbxYspZsPRqUig80+lKnf1vuMCUlrNm056/u5QLRM8L7m5s4nTLVyVH+xXK+7pAPgEalYxwfG5H5nEzNG7RV6QEt7cjKGZBY6LfUxCa23HnHyDa7A6YDUsVCNCg53zgHVo0AFQk/sXRujgogQlJZsLByMUpGhlwlJV2+56yZCUkRlPhz92L1fWN/+5INxnFQJmMx1x1Qt3e35d/u4VIveLhX8fVyPdZBui2ZfQ6UEjMnvRQcPC5IhD8pv8e3hlesVpIEjoRoVhxe4EiwSdgMVkgVVhwRgVJ1gUaGg9BZaORc1KjNGCUYdsm7rrrFN935/ndlIx/dzgcqYoH3tJ+673gTvSZzKxu7coHy3b5KKPF/C0iF5v81SLUobvUJSedcrVdHcc0Sj0E7PrNEUSAbV6lPw70NA6kKoxsXgg4pg7UEIYTcQIQnAmmVhQVCKRZnrLq2clyhUKLUyY9RdZiMds6GO7+cB5TEBu6lGNoF70qdQgqb+BWHpgEMtzGPyfu5u7M5VSVVcPw+p3CAP8bsISisSHvlDO32KFgT/zndl1VpwDLEyF6h8NmO+hJoUvw1ubj9gzsX9thxMGQi7gRhIyNOfz2bMDWmv8ms+YiIP2sznozefzZiFd+FPgwfn3FSLmkXGIItwf5gNdapXN/Sc+9nf/fXc5Kkq388HimOC9Uo3Y4qKXK/6Cx1Y+WymVa7b7VLZpOH6PS5rgPk/FEv4Qe45uvLZTE8QBOZPF/enKxqT33XGS1hGPs/t+WymXe4nW1x8n84HpEJzqDZu2k0sOA5b9CsPSPlZAjEKBaXtcjO6nfONxch362A+m9kYCkpd+7yMyvfmIDO7/GV2uA9q1/548vA//tPMiUNrfT8fWNr8vNGP/umfz39mLCXh4sWAUQLT8J82C458RI5x/g+BqN8k6Cs8nO1y9H6jUuZ3pp+uFvvJqINW+Sz3uBaUVs3NzVlwGPGSL879Sg9/QEr0IfLZzBGlT99M2L3RguNQT8KvFxW+j0fYGTpZ+WymWW5EexRdN8zT88RnkPF7dUGosrRd4XdNoUppUKqUCEVxife/3bl/8vDzrZwVLFR71cdP1jX9fmsaLfVRk+/+ZrmOB6F/RlVxOh4Kac0196T85yNcd1GM0P1pl6uVeEUYL1SH8xBBL0eKUm4vrLu8qCA1v3CK2+ypOLyc1opgfpZAwmShYiph+kJteR0W3oyOyTWCm8SUFSpLgw8WMO2hP7bdRxQW6YW2Tca4YFlX3Dlwy+nhBx4///NvPkDLPQpW33DXyIbP/W27KydEvvuPLDfaSu4JSilcIPxEZBbcnzaHHsy6Xlk6LvdYg3TJukHuPYflc9yldJTExXEOXlSQBh9UhGh8Ys78jQVCv3zaDBJ8REPxZ4AAwxKhtupWuSFNOjAdXRBspb7oooJ0ZfK5aQ3NvmtO8LMzFlrwF9o2WayjLGdeeaJp6ugPXpk6+sMMZ9BfZpf6uqY7diS1Sz2AlUlu0Z7S/WkcRgvdLayD/CAPoArjJGwNS0dDFcz+BaQAACxHAsJC6FWoLInixnREgq2L4RYPvtwSaucs/AlCn6Gwhe2di+0GWlg8FFo2T/JwDXE59UL3s5OHn99ONal/6q7/7IHaK2/qcKGlHnCZ3J+m8WC2XCMLigC45/WYhKXhbqy0NtYrqjiFgBQAgBXIzWlYOAgLQgFoAaEWABUmXn5029SvRp6bfudV5qR7YL5q9Nr2/2zzRkwAlif3pc0LHupHNWO3WKPyMHdY7oHZkAwrWmRjvTg+t+ERVAdKCeoJSAEAAADPMZvUfa7NGgVwudA4oCAUnIYtfMi/mJOhjciCBYUAdEIhcqFilHAH1mKf34KFn9H5DqxKxzgQkAIAAACYn006/e4bg+x07xazQ/2qa9vuqr/14X2+nwsAAJZCQAoAAADgool9vfdM/eb7f0PbvW7V9Zun667/g79a3/7kg76fCwAAVkJACgAAAOAypu1+8vA//b+zE8dqOTt6VNVtmKu7rv0l2ukBACgeASkAAACAJZ3+3s6vTo4NdxKU2s/MGa3ZuKWT3ekBACgNASkAAACAZZn5pDMnDw1MvjV8Gxs52WfVde2Hahtv7mLOKAAA5SEgBQAAAFCUQlA6dezHv0dFabpMK31t5pO/JBgFAKByBKQAAAAASkbrfToKM0ZppQcAIDoEpAAAAADKZjZzmn77X77Mrvfxmt+Vvql9oHrdh/+SYBQAgGgRkAIAAACo2MTLj26bOfGLr0z95uUW5pRGZ36+6MYt2frbHutz5T0BAGAbAlIAAAAAkTLt9zMnf3nn1NEfZjizpavZtOVs7dW3PF+z4SM9VIsCABA/AlIAAAAAsZjf1OnUr/umj+//7MyJQ2s5y0szLfS1V3/itZqG65+o39b7jK3HCQCAiwhIAQAAAMTOtODPTuT+48x7b7Yzr/QCUylas/GGNwlFAQBIFwEpAAAAgESZytLZM2//xczpY+0z777Z5MtO+GYH+trGj71dveHaV6rrM/+t/taH91lwWAAAeI+AFAAAAECqJvb13jN7Nv/52VO/2joz/lajK4GpCURrGprHaxqaR6vXXT3IRksAANiJgBQAAACAVUw7/tzkqTvnzr336ZnxIy0z40caNOyMX3vVx09Wr7/mSPXaD/2kqq7hBdrmAQDQgYAUAAAAgPVMW/7c5Km7Z8+Pt81NnmqePX20eW76zOqkN38ymylVr2s8XbX2yner6zb82lSGBrVrf0y7PAAAehGQAgAAAFCtEJ6a9zA3febmucnTNxTez+yZ4zfOTZ1ZU+z7M+3wH/yH1SeqVzeMzP87ISgAAG4KguD/AHF5VCE9kdVYAAAAAElFTkSuQmCC;fontFamily=Helvetica;" vertex="1" parent="3dwIg2GyyQ7QE6z8QwCl-1">
          <mxGeometry x="251.99" y="349.75" width="156.02" height="28.5" as="geometry" />
        </mxCell>
        <mxCell id="3dwIg2GyyQ7QE6z8QwCl-24" value="Synchronous operations" style="text;html=1;align=center;verticalAlign=middle;resizable=0;points=[];autosize=1;strokeColor=none;fillColor=none;fontStyle=1;labelBackgroundColor=default;fontSize=13;" vertex="1" parent="3dwIg2GyyQ7QE6z8QwCl-1">
          <mxGeometry x="460" y="565" width="180" height="30" as="geometry" />
        </mxCell>
        <mxCell id="3dwIg2GyyQ7QE6z8QwCl-25" value="Idempotent, i.e. does not fail if something it provisions already exists" style="shape=callout;whiteSpace=wrap;html=1;perimeter=calloutPerimeter;flipH=1;spacing=4;flipV=1;fontSize=14;position2=0.64;base=25;size=30;position=0.56;" vertex="1" parent="3dwIg2GyyQ7QE6z8QwCl-1">
          <mxGeometry x="870" y="655" width="250" height="100" as="geometry" />
        </mxCell>
        <mxCell id="3dwIg2GyyQ7QE6z8QwCl-26" value="" style="shape=image;verticalLabelPosition=bottom;labelBackgroundColor=default;verticalAlign=top;aspect=fixed;imageAspect=0;image=data:image/png,iVBORw0KGgoAAAANSUhEUgAAAaIAAAB4CAMAAACHBwagAAAAdVBMVEX///8AidYAh9UAftMAhdUAgdQAg9QAgNNCm9yhyet0suMqlNlTo949l9ra6vfV5/bw9/y/2vFgqODr9Pv1+v3N4vTk8Pm92fGMvuex0u7G3vMdj9hrreLm8fp8tuVZpd+mzOyLveeWw+kAetJ5teRHntwAdNBkg6ipAAAOR0lEQVR4nO1d6ZqquhJtGZ21FafWttVuz/s/4mVIhSSkkgqgnHNh/djfblCIKVJZWVUVPj5egdNLrjqgNSSjfddNGGDEMtp03YQBRhxif9l1GwaYcPS9Z9dtGGDCJhzFu64bMQBHMotG3qLrVgzAsfS80Sj87LoZA1Ac4tRC3pn/ve6wLQN0OPqjFBFftn5dumzNgCpSopDC8/iBy+9Avv9NyIhCPogm/FDsjTts0AAFOVHIBlHED52iUXzosEkDJBz8wkKj4MGPPT3R6w3oFgVRyBAncGybHYvuXTZrAEdBFPJBdOUHH0Fusm2H7RrAsGZEQbHIOXd93k+HLRtQYBl43EJBuRJaxcxog2DXNThRyOCXobxrUBwSxIYBneDulwaSvFoElhMWSgM6wE8oWGgUr/iJz/JElBguMOC1EIlCNogEMWEjTFDT7lrYd4CiwAfRFz+VxMLxIU7eFfLQgziIZuW5mzi8BqmuIxz9kYxQEOTGkvXiIa2uC2xCxUIiu97H8qlBqns/Epko5MTtVp5+KGcHqe7tUImCOlLO6ulBqnszVKKQD5QyCvGxi9Wzg1T3XlSIQoZQ+MA0qJwepLp3okIUKrNNZZ4apLp3QkMU8lEiqDwH3SdENjHgldAQhQzBn/CZH+1HBqnuPdARhQz+d/mZpEIWCisOUt07oCUKKTyxoOim9YRSMGnAq6AlChliUSid6QfaINW9HsmsyqVZ58+Fj+31fi4z5JBV91ogRCHve3HRc0T8XGrJ0csaN38W6PUKeeejFpILinBLSgpE240r4K/sH/6/xQjveamgaIfNV/lwe1E5ywUa12faqGrX4iCShAON+CN89DWl5ImQKPGSG/wXsEY5gFhQlME0iFLi/RJHJND8qLfRww0+NmQSoBV/hA/PsDs0waJ0wr1l9ivTIJLy5Ob4lJUjvLXfOonm93WBjK1GR1JB0YfZIWo+3g7uxRAv2hj0M8B7MkwwgUSkJ2Y/lyK6YnepjSKp3GN5/kHr1/8vIDB4r1gSsA3DDdC6J2KJrwF7PHq5p8DVMDQCaVAsbX4ue8zb3n6GTX8Rc7KSGtUTfCPydjEmpMXo3bQoAsTtPuZrHyzDZiO/f9s9PA3OK5C3VjCIP8IwajdGPikei5RYsnqZ4FUy078WXybnJU8sX+Z1K6Bdqe7Mxw5LPOpfmkQlJ04cELKyfKEMohRhi66ILdnyGY55ur5lGxlpdCzrObRBVHGPjcA0wVz4gQVSvza2SUzdrpCzk3VRBGhRqmPty9P4gFCGvcpkuZg4muJRTLxCsW1rW9axx4INHLYs61VC2NJEuBVNdG36rIKwLUGaVcmERfUZ88qvEWvfgOR7udw7uoCFaWCEci7ChLIoAuu2VM7CFFS4HEiE8b+xLjA5Xefz+eV+0togOUxnYZwjmD/oCoxJnKuQW4L4U6IltfMeyVdjSkOACoH3xZiAGe/FKTuAksTv6TVHJdw7Z99kvf298aMgi90Hv5osm11+lj+/QTyjuhnjUlSJnlHEHwF+K+UsrIExPHUsXIXr6ZfAI8DnJvqJ8gNCGa+CpR/k+FVPzNiligH9KFM/ooqJVuNKBqkXntFbisCTeUZVX0USf4SvtyGlsbWyMPdEWDcwGOP2vG2lhVnyc4SbiD2ZvnqCOZUwN9FFeH4rbZtqM3c8n7B22BrHhbrlBUn8EYA/mHSwrQOEpjAToFotyUR+2bR2THQRn3XFRPsz1qTgbF3i69Pn+Z3kDxPFnxIt6DScHZQ/BeLDYpK5CIqJxJCW3UTsd5tM9JD6RjbRKhR6OXeNwp8ji42qtXbSjY7ypw8OlJtdofHOM8CxRZ/J9Cq1eYA/u4kkyt6GiVasa1IakFECyUSrchYKwvj8nD/PPt+bx/oYm8Q5NZSX4ug6jJqXs4A5xN/8YJ4OYfV/UTq1RwVCCdwXSXW5YCI0gEIwUd5ML4oXl+v0GYVi3vSeWyiI7sAaP3/Ko8b0WqzAgX23Smt/yPoPXKNhXiI4NcnlwgQauk5136z58iYRzU20z1cu0Rku+zUub5CAW/NiadQvefq8ccuKyDiIdJzZaWGUX6TZCpM5Lan8jOsNzlmVrPWKxLtpbqJsEMVi/KV0Hj+wI9xI7QkgGKY1vtlpa8XkxJXUNUx6g8de1mRBzPXd3Ogfm9eU0oDGJoqyCRNhrwc24r1zta1gIzy4tjfP/vrn33H12rCcBRRUdUoF9+fERj6BCSo/rLGJssQkzFux+Jbn6YjbGU5idzar1ti605XWNZLqWBMrj9kF+sbhWmvm1kP1Yo1NlJoB87kw2+uf951lUv00j4cYi/c8HMcRxo0J2LLHobICgtoMtJEawARWWfE2NxFeD+KZ1wfQJoRUGUpVRsY55OJI6+rvPMPUKU1bIC+VThjhWkFlTmjBRJime2DqFVYY9wldqT1rKFXJ+9VAaMdulKF+OQszhKYUAqTFUPMtLWBt6Vd/l9VEK6uJMMF4jv4ABpOJ1uZVqNnLmwdgBX7NXBAQnCpL6DINn1zIAh5H87g3NxE2bycs/w+fjmHzUt05YzTc9tO/Qycb1ZXqNoblDwtEUjn9nAkSulhtcxNhvXVSQl1VQGaP7q5mXmarKt650bp6iQaJie8AVYpJwcsJjEedQwIToasDq4mw9RkjniHuRXa4iSwqgbVPb060rl4pA7OC3k2A/UihXVgB6hcvjU2EZtJA0p+hZTFmImM0nNSlpjz9KmqVs4BcozcCeEHKsgu0WH0ArbGJMD7HtESTM16jJjKVqoxoKdNzpwhsjXKWpTmPBLhEaFcvLohGwdDYRJjP2UHA+G+K4YLRBVuAm5RHaA5kKKhRznI1zPAZ4J1k1uj7CRF+AJfGJkIWKCAlegEK6EP1q1vLZE9L3VlbhqIM93IWptcEN+T8kT1ntpXxFoYbJui9zEQPuqNRv2qrJyZW71hYoQxn4s3r0pVIMj8I/7V5ZZjT0XHc2ESYxOaQjaN801iqMnJQVU4uNnItZylFXiTLip82G/+KCj+A5iZCSHV9E9kmESxtowqnQLlbOYs5NUmCsZDlC4Qf/EMvM9G1rolsFd8ukpphO40K3MpZHPy4qZAliXDhB/DyUeTFVmgbjcIpWdqYEK7AqZzFhS9qNDwAc5fGJP2XmQjE9b9ku92uAYkO0vdsWWZu9DhxUFRdihnM2WMKcC0E5Hwj6xMrzLSoayJWpIBnn+thLFXJf42bLI1v8FiFQzkLLOkMS4pyVYHafmUUfgDNTYS4B7kwigxbrMe5bueLTuscYuSQlLG5TXDcgPVhvhkCf+bZ9WUmAnXBLcPmYHvoCXqKggl9HJHLWYg6NsTHEVfyAxsHmW/GiBfuLuua6FuXBGiFbeqoE9qZ0hVVajnLjDDLiz9H2wk3i/ADuNv2coBVtKuJeIqZCwGzRMNrbsf3JBNkYjkLTHCBLQkL4uO6ZsNFKhk/yEXwKQPWN84mYrOKy0Ye9n3K6mVU0RkyjYzAgsKqRMHGODp3D0lqVoYKcSl0yMLPczbR0XblKja2rqxZybC1rbXKZ4DkSANq73L2E1cUEahCwoUfwBf4I+STfDNFZxO555LZdc+6m/3RFVXKQwDv9CV4XdD7K4lqwIs0GT8qeKoKwpT4StLZRKDW09ea1pz5+lmJZEXVI5SzQF2aIaDMwaypemhIcCKFeyGso+fmpVrobiKYxajlipZo+MiopNhAVlTtOvqaL4oI94VHXAkILIiUMAcsr/R8syxkdDfRnleGUdphjYa7KxUSyIqqtZxlou91PUApkneTulOEn8oNtZzuVFIsczmyFhCaCwxUdskJn10ab1aET1VUrYttoGK0tCGgW2JW9Y4k/HDAElMXGhY3Xq6YaGE1EdfbkNSWFI9fGBnfVhGg4e5U5NIjSzkLdApxTEPUQuAhSUASfkpwVaxCvXZZUidPC1a/ZzdRua6PxtoB8HmO+A+1RcObbzpLVVQtggzMLkSmCrO5QOchAkFWSniRiBffpBPHbLuE4IKtiwgmKvUcT7OGPp3TRwBMZIuGt7GRBVVRNcfIgV9RO5hrqWBSSD31Fs/nc47gKcmFJdcNF3yMJ7dRlDcE+EstEwmhhSC6Co/d/rSJc1IOJrILAC61Ogioiqrp7SzoSgcDKGhAFcs+Me0vI9dpC/3oRfHzej/er2NWee8vG5lIqpkLwvD5d0wvfhmHMaz3mYns+5+38iYGoqJqotNcLyC7XbgnK2ShBRmVJkh1bV4QRDwY5d8+UBONKSZK14yedPEou7hwqKi1Tuxd18ZmMGRFFR+xMKE56FpQVV2IEUTyrz4lU2Rd5z8+mproY2fUxzw/b7d9z5W2tuCjKar43WBF46AWAgXMs98/ifNhZSDfdRspFd3X1EQf6yfyItbsDpuc6S19k1sutvpqaQ9GoqKKxsjBA7i8TOws+Ebq5q1VX/vpqU33wnPe+Y1NlDZrpOsXL/Iv7Lv5pngLBcoWevQeMWNJ6iNsXXr4xy/g0p7Hb/Gd35Qw3Nj/bfjV8NeJF5cKjBfEsBvJmjXqH/ULC3acErI7LVL64Yk9EPmzyft37V+e7j+0p/gFb2dpAbt7yrTiMEz/OV/b3gr8e7LJMurCfO/NaHw9tbKjosP9Px+bsx9G5Fz8f+17otbL1WpFTsh1RLZ57XK53753C+v17jZdRHEUuO090/rbWQZokKR+be7FDkNHRDssfwCGfebXcuPUsU4xjHr3ao53Yf01yf1aVN84DC97kXJ/kaxO92dQ169p0CDIO0DF/gB8rSXr5Gjz7Sw9xjb1a7O4Db+mQcMtH3uP1K9dn54zmXZBe29n6R2Wh+NPQ75GQ2tvZ+kRUr92mYUv8mtVtPV2ln4gm3TG7iJBQ/T0XdQV/A9n77O84dIawQAAAABJRU5ErkJggg==;" vertex="1" parent="3dwIg2GyyQ7QE6z8QwCl-1">
          <mxGeometry x="1199" y="295" width="139.33" height="40" as="geometry" />
        </mxCell>
        <mxCell id="3dwIg2GyyQ7QE6z8QwCl-27" value="Resource group" style="image;aspect=fixed;html=1;points=[];align=left;fontSize=12;image=img/lib/azure2/general/Resource_Groups.svg;labelPosition=right;verticalLabelPosition=middle;verticalAlign=middle;fontStyle=1" vertex="1" parent="3dwIg2GyyQ7QE6z8QwCl-1">
          <mxGeometry x="1214" y="375" width="42.5" height="40" as="geometry" />
        </mxCell>
        <mxCell id="3dwIg2GyyQ7QE6z8QwCl-28" value="" style="shape=image;verticalLabelPosition=bottom;labelBackgroundColor=default;verticalAlign=top;aspect=fixed;imageAspect=0;image=data:image/png,iVBORw0KGgoAAAANSUhEUgAAA7UAAALICAYAAACgkteeAAAL5XpUWHRSYXcgcHJvZmlsZSB0eXBlIGV4aWYAAHjarZhrlts6DoT/cxWzBL5AkMvh85zZwSx/PtDq7qTzzr12x1JkiiJRhULBbv/vv8f9h1eSkl0WraWV4nnlllvsnFT/er2Owef7eV9DfHqufnXdzerjPYtcsiGvYb7s1zF0rsvHDZqf6+Pr607n6yTWZ6Lni7cJkz3ZHvWMq89EKb6uh+f/rj339fzFdp5/Zfq75bCeVX76f1aCsYT5UnRxp5A8n9meklhBaqlzzHyGVOPbFUbd6+n7sXPvp5+C9+zkm9j5/oxIX4fCvRZr6/4Uo+d6kO/H7kboyxWFt9P49RerfCzqc+zOWfWc/dpdz4VIFfdsyj9T3DMGDkL5ikbhrfwTzvW+G+/KFieILR43eE8XWojE8YQcVujhhH2PM0yWmOOOyjHGGdO9VpPGFucFJds7nKiAsVyqYDVBLXE5vq8l3Oe2+7wZKk9egZExMFngjm/e7nsX/+b9PtE5FtsQLJjzFSvWFY3TLMOQs09GAUg4T0zlxve+3TusHy8DNoGg3DBXNtj9eE0xJHxwK12cE+PEZ+dfqRF0PRMQIp4tLCYkEPAlJAkleI1RQyCOFXw6K48pxwECQSSu4A7YpFQAh2zg2dyj4Y6NEl+XkRaAkFSSAg3pAlg5C/zRXOFQlyTZiUgRlSpNekklFymlaDGN6po0q2hR1apNe001V6mlaq211d5iS0iYtNLUtdpa652Hdqbu3N0Z0fuII408ZJSho442+oQ+M0+ZZeqss82+4kqL9F9lqVt1tdV32FBp5y27bN11t90PXDvp5COnHD31tNPfUXtQ/Rq18Am5n6MWHtQMsXzH6QdqXFZ9myKYnIhhBmIxBxBXQwBCR8PM15BzNOQMM98iSSER1IIYOCsYYiCYd4hywjt2H8j9FDcn+Y9wiz9Czhl0/wZyzqB7kPsWt++gtvrV4XQBsiy0mPp0EDYG7Npj7VaT/vro/ukEP5hoLF/k+LMs0F1ljBS1SdIWR21GrIOS6ipjnj6W9JnORiXLcgdtkdn0QLujKUoX3/tG0gufcxxq/TwqmUcczYMBOZ8Uwzwhdo2JBMiMc/3IMqKiHc1bXso8pTfIBFp9rShtx7Xl7G1YpFO1HNYR+0qBhSbZp4TFiqbFevrtifgQXWxolbbYjSoJkaNuQzCMXUvvS2uCST0gTmyX+hyy8Jdd9XJP/T88up8MUFZY9cya9hpnj4awxyAbHdt9FQQ8+jOKRblvlwcj2ZEvBD+sfLKcVsm6C+TpQsLN5fFjMK/2UlfJdR7Sii9AafdBVKZ3ZEheZUJZYpeY9Jy6yHa7k3zFWCnoLAkK4DXs3Kz+ZbDIYtUn1zFJ++BqjK3J2qdOVjHJDeorT87S2B8pFb2mxb7AbYYBh5ifwEtibJsohaR94na+hZWIQBBqL7OPrbmM1NUf7bNbVEJrFxlt+8HIf3t0HxfYftt1oBiIWBsF/H2l0ozFas/yqmeLtCVqRKw97wwb/KgXHfe92X90fAPLtPbC1feDVctu/QBkcgqmT5W0gm5czUWR6OCF3mZG0utNNq/HkW+iB1j68cvmG/CafBhspGa4fN7HspIfD3Y2ekxzYOgVyAGONyb5xT0zjSK91XiGztbOyLWmflZWRQcHq/X7yWQ0ex2/FY1IIDx1ISUpmiWbXcTcfKVU6MAejdmNHZBB9p5jMCN2ZJNoourEFp/L2gCWR6E4hMhqPX/sKBye0Ter0HwQg7QLnNkllpzYRUGJkxzSuLvppcyUjlrKI+Dneh/I8IptraZ6Lfqhre+CHMwU2OHWwfVNWuzjBwLmFii1oRfUBjO0UlLhIqIS0A0cwqGAMJx8W8idRzwZL7ohANuGz2se3x0KhxLaSH9kmIrlNkKaxHlQFzLpLGWQcAhjDXgiyWZbKY7kPPONVpV0aI66BDAmzalMC8fZiSvnkCPI4EnaD4l5USUoaPKCDrOD9OZq0kUgU+zYmstw2an139cyLasnYIBSm1itst3U5nfv+AJ4wmkijiudBuCKlaaW4/0C5PADyLouUg77uJS0k4WiDOoO2oQbCdOkBFbOk+fSaAwrFFFdKxQr58cIliDYyCsChRpJd0iqLaW20xwIjYMeYWN+9thIBxZAwszS41mrYR4O/RXBf8kIPd2X6fVVyrhfJtjPc/GVXeSWe0+uAAfenou5kikjs3qPddmR6oafWuQMdZP14nlorVleSB25QsHd3HiuvSmEbOYarltceQ6PJ64dTYPK+dgQ+hUGI0A4nYYdJEUn2wet6IjgISlZHSU5mR7dIm5FHcJxOVJlb8GZNypYwX7anHn7XuFpC5ivXemOqMCYw8JzsAaCs7IsQrsHliwC4ZHE3wKKW58y/RYbLzJCfVEwT8/u3WVy/00mY9YW+9E5V/zEZPdXZZqyxLMh9olTKVns0JlQkPspHIqOjqsCpDHkRLbKwspSWNbIWG1vSUWH2ZTgsvne6DsHRpgGs7mQRky9zVq4JSKPMmOBO70qLgs9wcicq1JUALi8aVtJpfvANQTyDNRhYo+JTDwCQAggBSawnET8JyRKMBFW1E09k1WTGfiKeAZbEYunPaXQpFNGjQ5jRA7uxebwXAP+NcSNKsDK8ylMAVnnegTTPO09qz4lnfk6koAPNFfbN8gUVGzG9ip+A6z2eMXr6pqme89tQuyur2+5N7jnjjseG37JN5B0xhwjGPEfr9wpaP5baSSTXrDA93tHdbhQKi7i07Ms+tORWx3BfplJmML++o7OYJgWmzik197GVHzfs02O7u3kD49rsVKPPk4sS8SfoUcKC6Kfg21gbGJWYrqHx0ZHIPkOqlAskovgAdOwLSxTzURQf6ldlKgd0brRpkkJe5wLa0tqWzCOoUirx57poSuluvbZnqKuVtTdziaYt/IfMVe/O77rGBUpsoquaRWzKWq1im9RtWiycMxhU1bNWhJdF8AO9k7z+PTtw+IYUW205fYRlfWxE+wledUmtm7DeRMKpWJ0Gq9O/ejk2ujv3PoZT76kyUOrZ/CLie4XVAQUwv1OLPsd7p1akvsVQQo0W0PQsTIoN8WD+0ag2tG4Trxybgv9o5aQ1oIJRzfZrSDeGNaZ6ursPKB61r442k/aGhLK7OW01PbISrZYdIuFCLaC3MPRzBUOWIacWDjeSxKMyGEko66LB0u9Q1YMct6Xsig6bYKigqql1Kdr+UXT4n6r0vd8aoECPJJaYWsWKJKtx0K6dks70K+dFhQvRjUqhgoNBKYqKKrDkNMBFf6aFTQuhtvTZWKt+L65NaEzvslwNGdUBLAwZ9gtqWNim1DQm+Sn7pkfWfO9BCwIvIdPslqrm0JC3K56BuA3b9CtmmJ0BqVq0mWYEsP8Pjyuoh1R3FxG1WgVT4SsHiRYomJviXheeUxHHaPqICAl0p9SAA75SxMbaGpsYagohaC0kq07tiaJ8kV2mfp0zHFulkrSXLSajVUFqIm5S9Ts9FGzyyBNTtAwrPbkEehSMABdMIjdKFLybEKfhPjDNIKXCtDPCf9M24sRRmllG057zrmnEJRhvyMzw6Rla9YsCZ5x0WLvkwptVkTyX0UT3v31TwjuR1/8WNYSm83ts1tyL7u04POgEsZbYP27VzKuvM1N2f9sWzAmiRTL8wT3/a8aXS4Tk1xMjLF+TVvLb3WQf3eE/WYHCPZbzX2V3PrUXNwNSCLZSoBwNJAaLxNoVH3qgX57k3yDBoeWekbyzdnvML30SQ51OgPusSqwBmI/rS0jL+yHkfNUAf+qA+n+bJ7tJ5VtYrwqPS1VA4MFeXrZO4VyY7vqL4L7+Rv3t8H914It9qseGaSjQ+gQXNqH8oI4zE7DSE40KFRa3jCfjMcf7jn9od2y7kFui0v7unZek6CRzNtSuLh09aRRTBAM054b7MGLiIc1d7HMO4V+kNL5lspkKe3G6rr3pmtBbBxNn0UNkn9bq+ynNJqUhUbiF5ATnLLfCx1BwnDH9ZD9aSbyYTtTewu8Uhpw8WLujqI5kC7/FvP+G6Fz/5DY30xEz9LDH7ukx01SM5r7P8y3PJFu7AfFAAAABmJLR0QA/wD/AP+gvaeTAAAACXBIWXMAABYlAAAWJQFJUiTwAAAAB3RJTUUH4wQSEAoLIo9oKgAAHFJJREFUeNrt3UFyFFeex/GXVcwsZkVvBlfHLIoT9HCCKaRZ22bfWMUJLE6AOIHhBEju3kPYW5DyBuYGqsXEyMKLZt9UZi8QRoBkqaSszPy//HwOQBBPBJFf3vsFKQEAAAAAAAAAAAAAAAAAAAAAAAAAAAAAAAAAAAAAAAAAAAAAAAAAAAAAAAAAAAAAAAAAAAAAAAAAAAAAAAAAAAAAAAAAAAAAAAAAAAAAAAAAAAAAAAAAAAAAAAAAAAAAAAAAAAAAAAAAAAAAAAAAAAAAAAAAAAAAAAAAAAAAAAAAAAAAAAAAAAAAAAAAAAAAAAAAAAAAAAAAAAAAAAAAAAAAAAAAAAAAAAAAAAAAAAAAAAAAAAAAAAAAAAAAAAAAAAAAAAAAAAAAAAAAAAAAAAAAAAAAAAAAAAAAAAAAAAAAEFrhCKAZ39092i3GN/5RvHv3dLecLJwIAACs38gRQIPqarsejw7ubxzNHQYAAIhaiGg6KkbPtjaPD/+6efyt4wAAAFELIeN2nNLzrc03z+azo6njAAAAUQsB1fN6PDrc+t/ffhC3AAAgaiFo29rbAgCAqIXYft/bilsAABC1EDxu7W0BAEDUQlgne1txCwAAohaCx629LQAAiFoIy94WAABELeQSt54kAwCAqIWw7G0BAEDUQh5xa28LAACiFsKytwUAAFELucStJ8kAACBqISx7WwAAELWQR9za2wIAIGqBsOxtAQAQtUAucetJMgAAohYIy94WAABRC+QRt/a2AACIWiAse1sAAEQtkEvcepIMAICoBcKytwUAQNQCecStvS0AAKIWCMveFgAAUQvkEreeJAMAIGqBsOxtAQAQtUAecWtvCwCAqAXCsrcFAEDUArnErSfJAACIWiAse1sAAEQtkEfc2tsCACBqgbDsbQEAELVALnHrSTIAAKIWCMveFgAAUQvkEbf2tgAAiFogLHtbAABELZBN3D73JBkAAFELRPWtvS0AAKIWCO7D3vbXbWcBAICoBSKajoriB3tbAABELRA8bu1tAQAQtUBs9rYAAIhaIDp7WwAARC0Qm70tAACiFsghbu1tAQAQtUBs9rYAAIhaIDp7WwAARC0Qm70tAACiFsghbu1tAQAQtUBs9rYAAIhaIDp7WwAARC0Qm70tAICoBcghbu1tAQBELUBs9rYAAKIWIDp7WwAAUQsQm70tAICoBcghbu1tAQBELUBs9rYAAKIWIDp7WwAAUQsQm70tAICoBcghbu1tAQBELUBs9rYAAKIWIDp7WwAAUQsQm70tAICoBcghbu1tAQBELUBs9rYAAKIWIDp7WwAAUQsQm70tAICoBcghbu1tAQBELUBs9rYAAKIWILr3e9vvNn575CwAAEQtQETToqh27G0BAEQtQOi4fb+3fXPgSTIAgKgFCKqe2dsCAIhagOhxa28LACBqAUKztwUAELUA8ePW3hYAQNQCBGdvCwAgagHix629LQCAqAUIzd4WAEDUAsSPW3tbAABRCxCcvS0AgKgFiB+39rYAAKIWIDR7WwAAUQsQP27tbQEARC1AcPa2AACiFiB+3NrbAgCIWoDQ7G0BAEQtQPy4tbcFAEQtAMHZ2wIAohaA+HE7r8ejA+cAAIhaAKKaOgIAQNQCAACAqAUAAABRCwAAAKIWAAAAUQsAAACiFgAAAEQtAAAAohYAAABELQAAAIhaALqwtfnm2Xx2NHUSAM2azX7+fjZ7/q2TAFELwFrV83o8Ori/cTR3FgBNxOzz2Wz200FK9ZOUxjedCFzfDUcAwAWmo2L0bGvz+FFVV4//tj/ZdSQAK8fsNKXxs5TSzGmAqAWg07h98z/Fcvl4t5wsHAnAhTF7M6Ub36dUb6eU3MzCGnh+DMCK6nk9Hh3a2wJcFLQ/f5/S+DClekfQgqgFoJ9xa28L8EXMnt7NillYN8+PAbgOe1uAjzE7tZsFUQtA6Li1twUGGbN2s9Ahz48BaJC9LTC0oLWbBVELQK5xa28LZByzdrPQF54fA7Au9rZAjjE7tZsFUQvAIOPW3hYIHbN2s9BTnh8D0BJ7WyBq0NrNgqgFgE/j1t4WCBCzdrMQgefHAHTB3hboc8xO7WZB1ALACnFrbwv0ImbtZiEgz48B6AF7W6DroLWbBVELAM3Erb0t0GLM2s1CdJ4fA9A39rZAGzE7tZsFUQsALcStvS3QaMzazUJmPD8GoOfsbYGmgtZuFkQtAHQbt/a2wBVi1m4Wcub5MQCR2NsCq8Ts1G4WRC0A9Dhu7W2BM2PWbhYGxPNjAAKztwU+D1q7WRC1ABAzbg/ub/y67SxgqDFrNwtD5fkxALmYjorih63N4+/tbWFQMTu1mwVRCwCZxe3o2dbm8TfFsnpobwvZxqzdLJBS8vwYgHx9a28LuQat3SwgagEYDHtbyCdm7WaBL3l+DMAQ2NtC7Jid2s0CohYA7G0hWszazQIX8vwYgCGyt4XeB63dLCBqAeAC9rbQv5i1mwVW4/kxAENnbwv9iNmp3SwgagHgWnFrbwsdxKzdLHAtnh8DwKfsbaG1oLWbBUQtAKyJvS2sL2afz2azn3+xmwWa4PkxAJzP3haajdnpx91s7UAAUQsA7cWtvS1cI2Y/7GZ3nAbQNM+PAeDy7G1h5aD9ZDcLIGoBoHv2tnBxzNrNAu3w/BgArsbeFs6O2andLCBqASBU3Nrbgt0s0BXPjwGgGfa2DDho7WYBUQsAmbC3ZUgxazcLdM/zYwBonr0tucfs1G4WELUAMIi4tbclq5i1mwV6x/NjAFg/e1syCFq7WUDUAsDA2dsSMWbtZoF+8/wYANplb0uUmJ3azQKiFgD4g7i1t6WXMWs3C4Ti+TEAdMvelh4Frd0sIGoBgCuxt6XLmLWbBeLy/BgA+sPelrZjdmo3C4haAGANcWtvy1pj1m4WyIbnxwDQX/a2rCFo7WYBUQsAtMreliZi1m4WyJPnxwAQg70tV43Zqd0sIGoBgB7Frb0tl4pZu1lgEDw/BoCY7G35g6C1mwVELQAQgr0tp2PWbhYYHs+PASA+e1sxO7WbBUQtAJBB3NrbDixm7WaBwfP8GADyY287iKC1mwUQtQCQtfd72+82fnvkLHKKWbtZgNM8PwaAvE2LotrZ2jye29uGj9mp3SyAqAWAwcbt+73tm61iuXxgbxsqZu1mAf6A58cAMCj1zN42UtDazQKIWgDgrLi1t+11zNrNAlyW58cAMFz2tv2L2andLICoBQBWjFt7285j1m4W4Io8PwYATtjbdhO0drMAohYAaDJu7W1biVm7WYAmeH4MAJzF3nZ9MTu1mwUQtQBAS3Frb9tYzNrNAqyB58cAwCXY214vaO1mAUQtANCHuLW3XSlmn89ms58O7WYB1sfzYwBgVfa2F8fs9ONuFgBRCwD0Mm7tbb+I2ZspjR+llLb98QBoh+fHAMA12du+D9oPu1lBCyBqAYCIcTvIva3dLEC3PD8GAJo0mL2t3SxAP7iphYb8eDCZF3X1INVp4TQAft/bHuT2JHk2e35zNvvph5OnxoIWQNRCPnb3J7tFVd2tU/3UaQCklNve1m4WQNRC/mFbThY/vvpqu1hWt+tU7TkRgJSi723tZgFELQw0bifzIqV7niQDpJQ+7m0P728czYPE7HQ2++kgpfFBSmnqRwggamF4cfvq1ou9/Vu37W0BPsZt3/e2drMAohb4PG7tbQE+08+9rd0sgKgFzgtbe1uAs+K2F3tbu1kAUQusFLf2tgCndLa3tZsFELXAVePW3hbgi7hta29rNwsgaoGm4tbeFuAz693b2s0CiFqg6bC1twU4K27n9Xh0cH/j10bi8+Spsd0sgKgF1hu39rYAp0xHqfhLQ7/WLNnNAohaoIW4tbcFAABRC+Hj1t4WAABELYQOW3tbAAAQtZBH3NrbAgCAqIXIcWtvCwAAohbCx629LQAAohYIHbb2tgAAiFogj7idzIuiuutJMgAAohaIGbcvJ6W9LQAAohaIHbcne9uiqB47DQAARC0QL2zLyWL35WTH3hYAAFELhI5be1sAAEQtEDtu7W0BABC1QPi4tbcFAEDUAqHD1t4WAABRC+QQt/a2AACIWiB23NrbAgAgaoHwcWtvCwCAqAVCh629LQAAohbIIW7tbQEAELVA7Li1twUAQNQC4ePW3hYAAFELhA5be1sAAEQtkEPc2tsCACBqgdhxa28LAICoBcLHrb0tAACiFggdtva2AACIWiCHuLW3BQBA1AKx49beFgAAUQuEj1t7WwAARC0QOmztbQEAELVADnFrbwsAgKgFYsetvS0AAKIWCB+39rYAAIhaIHTY2tsCACBqgRzi1t4WAABRC8SOW3tbAABELRA+bu1tAQAQtUDosLW3BQBA1AI5xK29LQAAohaIHbf2tgAAiFogfNza2wIAIGqB0GFrbwsAIGodAZBD3NrbAgCIWoDYcWtvCwAgagHCx629LQCAqAUIHbb2tgAAohYgh7i1twUAELUAsePW3hYAQNQChI9be1sAAFELEDps7W0BAEQtQA5xa28LACBqAWLHrb0tAICoBQgft/a2AACiFiB02NrbAgCIWoAc4tbeFgBA1ALEjlt7WwAAUQsQPm7tbQEARC1A6LC1twUAELUAOcStvS0AgKgFiB239rYAAKIWIHzc2tsCAIhagNBha28LACBqAXKIW3tbAABRCxA7bu1tAQBELUD4uN2f7BbVv9+xtwUAELUAMcO2/NNbe1sAAFELEDxuT/a2y3/e8SQZAEDUAgSN2/96bW8LACBqAWLHrb0tAICoBQgdtva2AACiFiB+3NrbAgCIWoDwcWtvCwAgagGix629LQCAqAUIHbb2tgAAohYgftza2wIAiFqA8HFrbwsAIGoBosetvS0AgKgFCB229rYAAKIWIH7c2tsCAKIWgPBxa28LAIhaAKLH7cne1kkAAKIWgJhhW/7prVMAAEQtAAAAiFoAAAAQtQAAACBqAQAAELUAAAAgagEAAEDUAgAAIGoBAABA1AIAAICoBaALRb18mOq0cBIAjdtNafnCMYCoBWCdX1z7f35SVNXdOlV7TgOgEWVKy7tl+fWDsrz31nHA9d1wBAD8YdiWk0VKaT6fHe1U47RTpNGWUwFY2SKl5cOyvOd2FhrmphaAS8ftj68m86KuHniSDHBpb1OqH6e0vCNoYT3c1AKwWtzuT3ZTSrvzjaN5nUaPUpGmTgXg7L8yT25nPTOGNXJTC8CV49beFuBMpd0stMdNLQBXD1t7W4DTFnaz0D43tQA0Erf2tsCA2c1Ch9zUAtBc3NrbAgP8q89uFrrlphaAtcStvS2QudJuFvrBTS0A6wlbe1sgT4uUlg/K8l7pKKAf3NQCsPa4tbcFMnB6NytooUfc1ALQTtza2wJh1U9TqnY8M4Z+clMLQOtxa28LBFG+381+sy1oob/c1ALQftja2wL9trCbhTjc1ALQadza2wI9YjcLAbmpBaD7uLW3BTpnNwtRuakFoFdxa28LtKy0m4XY3NQC0K+wtbcF2rGwm4U8uKkFoLdxa28LrIHdLIhaAIZiPjuadh63+5Pdvf1bt8UtcH3105SWt8vyG9tZELUADOLzbzw6/G7jt0d9+L3Y2wLXUNrNgqgFYKCKotrZ2jw+vL9xNO88bD88SV5Wt8UtcAmL9zH79V1PjUHUAjBs01Exera1eXw4n/3ff/cmbj1JBs5mNwuiFgDOjtt6/G+/bG2+eWZvC/ST3SyIWgC4+KNx/mFvO58d3uxD3NrbwuCVdrMgagFgJUVR7dTj//jF3hbo0MJuFkQtAFyHvS3QBbtZQNQC0Gzc2tsC7bCbBUQtAOv72LS3BdaltJsFRC0ArbC3BRq0sJsFRC0AXbC3Ba7DbhYQtQD0I27tbYHV2M0CohaA/n2k9nRvWz/1s4HeKN/fzNrNAqIWgJ7q3972q217W+jc4tRu9rXjAEQtAH3Xz71tSvc8SYZWvU2pflyWX9+2mwVELQAh47ZXe9tXt17Y20JbPu5mnQUgagGI/nFrbwvDUdrNAqIWgCzZ20LWFnazgKgFYAjsbSEvdrOAqAVgmHFrbwvR2c0CohYAH8X2thBPaTcLiFoAOMXeFkJY2M0CohYAzmdvC/1kNwuIWgBYJW7tbaEv7GYBUQsAV/2YtreF7pR2s4CoBYAG2NtCqxZ2s4CoBYDm2dvCetnNAqIWANqIW3tbaJrdLCBqAaDtj3B7W7i+0m4WELUA0CF7W7iShd0sIGoBoD/sbeFy7GYBUQsAfY5be1s4j90sIGoBIMrHu70tfFTazQKiFgACsrdl4BZ2s4CoBYD47G0ZGrtZQNQCQI5xa29L/uxmAVELALl/9NvbkqPyJGbtZgFRCwBDYG9LJhandrMLxwGIWgAYFntbonqbUnpoNwuIWgAgJXtbQvmwm/36ibMARC0AcDoWTu1texC39rZ8qrSbBUQtAHCh93vb0YG9LT2xsJsFRC0AsKrf97Z/nR3N+hG3k3lRVHc9SR4Mu1lA1DoCALh+3I7Ho4Pe7G1fTkp72yGwmwUQtQDQbGT0cm9bFNVjP5uslHazAKIWANamb3vb3ZeTHXvbLCzsZgFELQC0xd6WptjNAohaAOgubu1tuTq7WQBRCwD9iBN7W1ZR2s0CiFoA6B17Wy6wsJsFELUA0Hf2tnzObhZA1AJAvLi1t8VuFkDUAkD0qLG3HabSbhZA1AJANuxtB2NhNwsgagEgV/a2+bKbBRC1ADCcuLW3zYndLICoBYBhxpC9bWyl3SyAqAWAwbO3DWdhNwsgagGAT9nb9p/dLICoBQAuilt72z6qH9vNAohaAODyEWVv2w/lyW52x24WQNQCACuyt+1K/dpuFkDUAgDNsLdtz8lu9ps7drMAohYAaDhu7W3XyW4WQNQCAG3El71ts0q7WQBRCwC0zN722v84YDcLIGoBgI7Z267ObhZA1AIAfYtbe9vLsJsFELUAQI/Z256jtJsFELUAQBD2tr9Hvt0sgKgFAIIa8t7WbhZA1AIAucTtsPa2drMAuSgcAQDn2do8rp3CMNX1aGdUvdvbLSeLrn8v89k/bqb0z+lu+Z+vr/trzWY/z1J6t/DMGEDUAiBqyd+iqqvHf9uf7DoKAEQtAKKWsHG7XFYP/l5OSkcBQN/Y1AIAF+nV3hYATnNTC8C53NRylj7tbQHATS0AsJI+/f+2AOCmFoBzuanlEhbLlB7+/dWtF44CgC64qQUArmM6Tum5vS0AXXFTC8C53NSy+pfF6Enx7t1Te1sA2uKmFgBoTl1t29sC0CY3tQCcy00t12RvC8DauakFANbF3haAtXNTC8C53NTS7FeHvS0AzXNTCwC0w94WgDVwUwvAudzUskb2tgA0wk0tANAFe1sAGuGmFoBzuamlvS8Se1sArsZNLQDQPXtbAK7ITS0A53JTS0fsbQG4NDe1AEDf2NsCcGluagE4l5ta+vG1Ym8LwPluOAIAoNfqarsejW6mlB44DAA+5/kxAAAAohYAAABELQAAAIhaAAAARC0AAACIWgAAABC1AAAAIGoBAAAQtQAAACBqAQAAQNQCAAAgagEAAEDUAgAAgKgFAAAAUQsAAICoBQAAAFELAAAAohYAAABRCwAAAKIWAAAARC0AAACIWgAAAEQtAAAAiFoAAAAQtQAAAIhaAAAAELUAAAAgagEAAEDUAgAAIGoBAABA1AIAAICoBQAAQNQCAACAqAUAAABRCwAAAKIWAAAAUQsAAACiFgAAAEQtAAAAohYAAABELQAAAIhaAAAAELUAAACIWgAAABC1AAAAIGoBAAAQtQAAACBqAQAAQNQCAACAqAUAAEDUAgAAgKgFAAAAUQsAAACiFgAAAFELAAAAohYAAABELQAAAKIWAAAARC0AAACIWgAAABC1AAAAiFoAAAAQtQAAACBqAQAAELUAAAAgagEAAEDUAgAAgKgFAABA1AIAAICoBQAAAFELAACAqAUAAABRCwAAAKIWAAAARC0AAACiFgAAAEQtAAAAiFoAAABELQAAAIhaAAAAELUAAAAgagEAABC1AAAAIGoBAABA1AIAACBqAQAAQNQCAACAqAUAAABRCwAAgKgFAAAAUQsAAACiFgAAAFELAF+q08IhAACiFoCQ9vZv3S6K6nGqi7dOAwAQtQCEs/tyslNUyzt1qvacBgAgagGIF7blZPHjq8m8WFa3U0qvnQgAIGoBCBm3e69u3Snq6oG9LQAgagGIGbf7k117WwBA1AIQO27tbQEAUQtA6LC1twUARC0AOcStvS0AIGoBiB239rYAgKgFIHzc2tsCAKIWgNBha28LAIhaAHKIW3tbAEDUAhA7bu1tAQBRC0D4uLW3BQBELQChw9beFgAQtQDkELf2tgCAqAUgdtza2wIAohaA8HFrbwsAiFoAQoetvS0AIGoByCFu7W0BAFELQOy4tbcFAEQtAOHj1t4WABC1AIQOW3tbAEDUApBD3NrbAgCiFoDYcWtvCwCiFgDCx629LQCIWgAIHbaf7G3r0okAgKgFgJBxu/fqq7v2tgAgagEgbtx+srcVtwAgagEgYty+nOwUVXXX3hYARC0AxAxbe1sAELUAkEPc2tsCgKgFgNhxa28LAKIWAMLHrb0tAIhaAAgdtva2ACBqASCHuLW3BQBRCwCx49beFgBELQCEj1t7WwAQtQAQOmztbQFA1AJADnFrbwsAohYAYsetvS0AiFoACB+39rYAIGoBIHTY2tsCgKgFgBzi1t4WAEQtAMSOW3tbABC1ABA+bu1tAUDUAkDosLW3BQBRCwA5xK29LQCIWgCIHbf2tgAgagEgfNza2wKAqAWA0GFrbwsAohYAcohbe1sAELUAEDtu7W0BQNQCQPi4tbcFAFELAKHD1t4WAEQtAOQQt/a2ACBqASB23NrbAoCoBYDwcWtvCwCiFgBCh629LQCIWgDIIW7tbQFA1AJA7Li1twUAUQsA4ePW3hYAUQsAhA5be1sARC0AkEPc2tsCIGoBgNhxa28LgKgFAMLHrb0tAKIWAAgdtva2AIhaACCHuLW3BUDUAgCx49beFgBRCwCEj1t7WwBELQAQOmztbQEQtQBADnFrbwuAqAUAYsetvS0AohYACB+39rYAiFoAIHTY2tsCIGoBgBzi1t4WAFELAMSOW3tbAEQtABA+bu1tARC1AEDosLW3BUDUAgA5xK29LQCiFgCIHbf2tgCIWgAgfNza2wIgagGA0GFrbwuAqAUAcohbe1sARC0AEDtu7W0BELUAQPi4tbcFQNQCAKHD1t4WAFELAOQQt/a2AIhaACB23H7Y29bLh+IWAFELAASN2z8/sbcFQNQCAHHD9tO97QsnAoCoBQBCxu3eq6/u2dsCAAAQ3nzj/7fnG0c7TgIAAAAAAAAAAAAAAAAAAAAAAAAAAAAAAAAAAAAAAAAAAAAAAAAAAAAAAAAAAAAAAAAAAAAAAAAAAAAAAAAAAAAAAAAAAAAAAAAAAAAAAAAAAAAAAAAAAAAAAAAAAAAAAAAAAAAAAAAAAAAAAAAAAAAAAAAAAAAAAAAAAAAAAAAAAAAAAAAAAAAAAAAAAAAAAAAAAAAAAAAAAAAAAAAAAAAAAAAAAAAAAAAAAAAAAAAAAAAAAAAAAAAAAAAAAAAAAAAAAAAAAAAAAAAAAAAAAAAAAAAAAAAAAAAAgBb8C70HhvqxspEsAAAAAElFTkSuQmCC;" vertex="1" parent="3dwIg2GyyQ7QE6z8QwCl-1">
          <mxGeometry x="709.37" y="489.49" width="201.26" height="151" as="geometry" />
        </mxCell>
        <mxCell id="3dwIg2GyyQ7QE6z8QwCl-29" value="" style="group" vertex="1" connectable="0" parent="3dwIg2GyyQ7QE6z8QwCl-1">
          <mxGeometry x="1250" y="440" width="335" height="230" as="geometry" />
        </mxCell>
        <mxCell id="3dwIg2GyyQ7QE6z8QwCl-30" value="" style="group" vertex="1" connectable="0" parent="3dwIg2GyyQ7QE6z8QwCl-29">
          <mxGeometry width="335" height="230" as="geometry" />
        </mxCell>
        <mxCell id="3dwIg2GyyQ7QE6z8QwCl-31" value="" style="group" vertex="1" connectable="0" parent="3dwIg2GyyQ7QE6z8QwCl-30">
          <mxGeometry width="335" height="230" as="geometry" />
        </mxCell>
        <mxCell id="3dwIg2GyyQ7QE6z8QwCl-32" value="" style="rounded=0;whiteSpace=wrap;html=1;" vertex="1" parent="3dwIg2GyyQ7QE6z8QwCl-31">
          <mxGeometry width="335" height="230" as="geometry" />
        </mxCell>
        <mxCell id="3dwIg2GyyQ7QE6z8QwCl-33" value="Azure Data Lake Storage Gen 2&lt;div&gt;Storage account&lt;/div&gt;" style="image;aspect=fixed;html=1;points=[];align=left;fontSize=15;image=img/lib/azure2/storage/Storage_Accounts.svg;labelPosition=right;verticalLabelPosition=middle;verticalAlign=middle;fontStyle=1" vertex="1" parent="3dwIg2GyyQ7QE6z8QwCl-31">
          <mxGeometry x="7.976190476190476" y="9.998292682926827" width="50.580720092915215" height="40.46457607433218" as="geometry" />
        </mxCell>
        <mxCell id="3dwIg2GyyQ7QE6z8QwCl-34" value="" style="group" vertex="1" connectable="0" parent="3dwIg2GyyQ7QE6z8QwCl-31">
          <mxGeometry x="87.73809523809524" y="87.75" width="119.64285714285715" height="54.5" as="geometry" />
        </mxCell>
        <mxCell id="3dwIg2GyyQ7QE6z8QwCl-35" value="" style="rounded=0;whiteSpace=wrap;html=1;" vertex="1" parent="3dwIg2GyyQ7QE6z8QwCl-34">
          <mxGeometry width="119.64285714285715" height="54.5" as="geometry" />
        </mxCell>
        <mxCell id="3dwIg2GyyQ7QE6z8QwCl-36" value="" style="group" vertex="1" connectable="0" parent="3dwIg2GyyQ7QE6z8QwCl-31">
          <mxGeometry x="94.91666666666667" y="98" width="119.64285714285715" height="54.5" as="geometry" />
        </mxCell>
        <mxCell id="3dwIg2GyyQ7QE6z8QwCl-37" value="" style="rounded=0;whiteSpace=wrap;html=1;" vertex="1" parent="3dwIg2GyyQ7QE6z8QwCl-36">
          <mxGeometry width="119.64285714285715" height="54.5" as="geometry" />
        </mxCell>
        <mxCell id="3dwIg2GyyQ7QE6z8QwCl-38" value="" style="group" vertex="1" connectable="0" parent="3dwIg2GyyQ7QE6z8QwCl-31">
          <mxGeometry x="102.89285714285715" y="108" width="119.64285714285715" height="54.5" as="geometry" />
        </mxCell>
        <mxCell id="3dwIg2GyyQ7QE6z8QwCl-39" value="" style="rounded=0;whiteSpace=wrap;html=1;" vertex="1" parent="3dwIg2GyyQ7QE6z8QwCl-38">
          <mxGeometry width="119.64285714285715" height="54.5" as="geometry" />
        </mxCell>
        <mxCell id="3dwIg2GyyQ7QE6z8QwCl-40" value="" style="group" vertex="1" connectable="0" parent="3dwIg2GyyQ7QE6z8QwCl-31">
          <mxGeometry x="110.86904761904762" y="118" width="119.64285714285715" height="54.5" as="geometry" />
        </mxCell>
        <mxCell id="3dwIg2GyyQ7QE6z8QwCl-41" value="Container N" style="rounded=0;whiteSpace=wrap;html=1;" vertex="1" parent="3dwIg2GyyQ7QE6z8QwCl-40">
          <mxGeometry width="119.64285714285715" height="54.5" as="geometry" />
        </mxCell>
        <mxCell id="3dwIg2GyyQ7QE6z8QwCl-42" value="" style="aspect=fixed;sketch=0;html=1;dashed=0;whitespace=wrap;fillColor=#2875E2;strokeColor=#ffffff;points=[[0.005,0.63,0],[0.1,0.2,0],[0.9,0.2,0],[0.5,0,0],[0.995,0.63,0],[0.72,0.99,0],[0.5,1,0],[0.28,0.99,0]];shape=mxgraph.kubernetes.icon2;kubernetesLabel=1;prIcon=role" vertex="1" parent="3dwIg2GyyQ7QE6z8QwCl-1">
          <mxGeometry x="1550" y="725" width="50" height="48" as="geometry" />
        </mxCell>
        <mxCell id="3dwIg2GyyQ7QE6z8QwCl-43" style="edgeStyle=orthogonalEdgeStyle;rounded=0;orthogonalLoop=1;jettySize=auto;html=1;exitX=0.5;exitY=0;exitDx=0;exitDy=0;exitPerimeter=0;entryX=0.5;entryY=1;entryDx=0;entryDy=0;" edge="1" parent="3dwIg2GyyQ7QE6z8QwCl-1" source="3dwIg2GyyQ7QE6z8QwCl-45" target="3dwIg2GyyQ7QE6z8QwCl-32">
          <mxGeometry relative="1" as="geometry" />
        </mxCell>
        <mxCell id="3dwIg2GyyQ7QE6z8QwCl-44" value="HAS SCOPE" style="edgeLabel;html=1;align=center;verticalAlign=middle;resizable=0;points=[];" vertex="1" connectable="0" parent="3dwIg2GyyQ7QE6z8QwCl-43">
          <mxGeometry x="0.1062" relative="1" as="geometry">
            <mxPoint as="offset" />
          </mxGeometry>
        </mxCell>
        <mxCell id="3dwIg2GyyQ7QE6z8QwCl-45" value="Role assignment" style="aspect=fixed;sketch=0;html=1;dashed=0;whitespace=wrap;fillColor=#2875E2;strokeColor=#ffffff;points=[[0.005,0.63,0],[0.1,0.2,0],[0.9,0.2,0],[0.5,0,0],[0.995,0.63,0],[0.72,0.99,0],[0.5,1,0],[0.28,0.99,0]];shape=mxgraph.kubernetes.icon2;prIcon=c_role;labelPosition=center;verticalLabelPosition=bottom;align=center;verticalAlign=top;fontStyle=1" vertex="1" parent="3dwIg2GyyQ7QE6z8QwCl-1">
          <mxGeometry x="1392.5" y="725" width="50" height="48" as="geometry" />
        </mxCell>
        <mxCell id="3dwIg2GyyQ7QE6z8QwCl-46" style="edgeStyle=orthogonalEdgeStyle;rounded=0;orthogonalLoop=1;jettySize=auto;html=1;exitX=0.995;exitY=0.63;exitDx=0;exitDy=0;exitPerimeter=0;entryX=0.005;entryY=0.63;entryDx=0;entryDy=0;entryPerimeter=0;" edge="1" parent="3dwIg2GyyQ7QE6z8QwCl-1" source="3dwIg2GyyQ7QE6z8QwCl-45" target="3dwIg2GyyQ7QE6z8QwCl-42">
          <mxGeometry relative="1" as="geometry" />
        </mxCell>
        <mxCell id="3dwIg2GyyQ7QE6z8QwCl-47" style="edgeStyle=orthogonalEdgeStyle;rounded=0;orthogonalLoop=1;jettySize=auto;html=1;exitX=1;exitY=0.5;exitDx=0;exitDy=0;entryX=0.005;entryY=0.63;entryDx=0;entryDy=0;entryPerimeter=0;" edge="1" parent="3dwIg2GyyQ7QE6z8QwCl-1" source="3dwIg2GyyQ7QE6z8QwCl-5" target="3dwIg2GyyQ7QE6z8QwCl-45">
          <mxGeometry relative="1" as="geometry">
            <Array as="points">
              <mxPoint x="1150" y="555" />
              <mxPoint x="1150" y="755" />
            </Array>
          </mxGeometry>
        </mxCell>
        <mxCell id="3dwIg2GyyQ7QE6z8QwCl-48" value="&lt;b&gt;DESTROY&lt;/b&gt;&lt;div&gt;&lt;b&gt;(if removeData is TRUE)&lt;/b&gt;&lt;/div&gt;" style="edgeLabel;html=1;align=center;verticalAlign=middle;resizable=0;points=[];" vertex="1" connectable="0" parent="3dwIg2GyyQ7QE6z8QwCl-47">
          <mxGeometry x="-0.7149" relative="1" as="geometry">
            <mxPoint as="offset" />
          </mxGeometry>
        </mxCell>
      </root>
    </mxGraphModel>
  </diagram>
</mxfile>
